<svg width="150" height="150" viewBox="0 0 150 150" fill="none" xmlns="http://www.w3.org/2000/svg">
<g clip-path="url(#clip0_181_240)">
<rect width="149.555" height="149.555" rx="74.7773" fill="#212121"/>
<rect width="149.555" height="149.555" rx="74.7773" fill="url(#paint0_linear_181_240)"/>
<path d="M149.555 75.1654C149.555 116.464 116.076 149.943 74.7773 149.943C33.4789 149.943 0 116.464 0 75.1654C26.046 22.2327 63.0146 108.773 98.3027 107.093C139.554 105.13 149.555 33.867 149.555 75.1654Z" fill="white" fill-opacity="0.46"/>
<path d="M74.3116 87.9856H56.9712V86.5128C58.024 84.6325 60.9844 83.6544 64.1537 83.448C62.1393 82.7981 60.6568 80.6597 60.6568 78.1275C60.6568 75.083 62.8009 72.6065 65.4371 72.6065C68.0751 72.6065 70.2206 75.083 70.2206 78.1275C70.2206 80.659 68.7381 82.7968 66.7237 83.4474C68.4263 83.5568 69.9946 83.885 71.234 84.3993C73.8197 85.4705 74.2828 87.0671 74.3116 87.9856ZM107.855 63.0471V95.5619C107.855 97.5116 106.269 99.0977 104.319 99.0977H86.0228V101.178C86.0228 103.143 87.0886 104.979 88.8043 105.968C89.2007 106.197 89.3939 106.663 89.2754 107.105C89.1568 107.547 88.7565 107.855 88.2993 107.855H72.4872C72.0299 107.855 71.6297 107.547 71.5111 107.105C71.3925 106.663 71.5864 106.197 71.9821 105.968C73.6978 104.979 74.763 103.143 74.763 101.178V99.0977H56.4681C54.5173 99.0977 52.9313 97.5116 52.9313 95.5619V72.8391H45.4619C44.1045 72.8391 43 71.7325 43 70.3724V64.9359C43 63.5758 44.1038 62.4693 45.4619 62.4693H52.9797C53.2562 60.794 54.7144 59.5112 56.4681 59.5112H65.211V49.4369C65.211 47.8508 66.5016 46.5601 68.0876 46.5601H77.1351L77.6906 45.1732C77.9455 44.5259 78.5501 43 80.1662 43C81.5721 43 82.7152 44.1432 82.7152 45.5492V46.5601H89.1149C90.7022 46.5601 91.9927 47.8508 91.9927 49.4369V59.5119H104.319C106.269 59.5112 107.855 61.0974 107.855 63.0471ZM76.8036 51.1121H75.5504V58.9242H84.161C85.067 58.9242 85.8053 58.1872 85.8053 57.2798V52.752C85.8053 51.8472 85.067 51.1115 84.161 51.1115H81.7044C81.1456 51.1115 80.6936 50.6594 80.6936 50.1006V45.5486C80.6936 45.2623 80.4512 45.0212 80.1662 45.0212C80.0464 45.0212 79.8813 45.1273 79.5681 45.9194L77.7424 50.4773C77.5884 50.8612 77.2177 51.1121 76.8036 51.1121ZM67.2307 60.7934C67.2307 61.2651 67.6152 61.6503 68.0876 61.6503H80.102C80.3693 61.6503 80.6268 61.7565 80.8161 61.9471L84.123 65.2543V62.6612C84.123 62.1037 84.5757 61.6503 85.1338 61.6503H89.1149C89.5865 61.6503 89.9717 61.2657 89.9717 60.7934V49.4369C89.9717 48.9652 89.5865 48.58 89.1149 48.58H82.7152V49.0923H84.161C86.1826 49.0923 87.825 50.7341 87.825 52.7533V57.2811C87.825 59.3029 86.182 60.9467 84.161 60.9467H71.01C70.4525 60.9467 69.9991 60.494 69.9991 59.9358V50.1019C69.9991 49.5444 70.4518 49.0923 71.01 49.0923H76.1204L76.3254 48.58H68.0876C67.6159 48.58 67.2307 48.9652 67.2307 49.4369V60.7934ZM49.5837 67.6542C49.5837 66.6865 48.7976 65.9003 47.83 65.9003C46.8624 65.9003 46.075 66.6865 46.075 67.6542C46.075 68.6218 46.8624 69.408 47.83 69.408C48.7976 69.408 49.5837 68.6225 49.5837 67.6542ZM55.4029 67.6542C55.4029 66.6865 54.6155 65.9003 53.6492 65.9003C52.6817 65.9003 51.8942 66.6865 51.8942 67.6542C51.8942 68.6218 52.6817 69.408 53.6492 69.408C54.6155 69.408 55.4029 68.6225 55.4029 67.6542ZM105.834 63.0471C105.834 62.2118 105.154 61.5331 104.319 61.5331H91.8964C91.5695 62.7634 90.4467 63.6721 89.1149 63.6721H86.1446V64.9772H103.461C104.018 64.9772 104.472 65.4299 104.472 65.9881V77.8379C104.472 78.3955 104.018 78.8488 103.461 78.8488H75.7666C75.2091 78.8488 74.7558 78.3961 74.7558 77.8379V65.9875C74.7558 65.4299 75.2085 64.9766 75.7666 64.9766H80.9877L79.6828 63.6715H68.0876C66.7571 63.6715 65.6342 62.7628 65.3073 61.5324H56.4681C55.8373 61.5324 55.2955 61.9196 55.0682 62.4686H61.836C63.196 62.4686 64.3024 63.5752 64.3024 64.9353V70.3718C64.3024 71.7319 63.196 72.8384 61.836 72.8384H59.7488V75.7486C59.7488 76.1574 59.5025 76.5256 59.1259 76.6822C59.0007 76.734 58.8697 76.7595 58.74 76.7595C58.476 76.7595 58.2192 76.656 58.0246 76.4627L54.9535 73.3914V90.0042H105.836V63.0471H105.834ZM59.4724 69.408C60.4387 69.408 61.2261 68.6218 61.2261 67.6542C61.2261 66.6865 60.4387 65.9003 59.4724 65.9003C58.5048 65.9003 57.7174 66.6865 57.7174 67.6542C57.7174 68.6218 58.5048 69.408 59.4724 69.408ZM75.7673 82.2753H87.6206C88.1787 82.2753 88.6307 81.8232 88.6307 81.265C88.6307 80.7068 88.1787 80.2548 87.6206 80.2548H75.7673C75.2091 80.2548 74.7571 80.7068 74.7571 81.265C74.7565 81.8226 75.2091 82.2753 75.7673 82.2753ZM103.461 84.5611H75.7673C75.2091 84.5611 74.7571 85.0132 74.7571 85.5714C74.7571 86.1296 75.2091 86.5816 75.7673 86.5816H103.461C104.02 86.5816 104.472 86.1296 104.472 85.5714C104.472 85.0132 104.019 84.5611 103.461 84.5611Z" fill="#212121"/>
</g>
<defs>
<linearGradient id="paint0_linear_181_240" x1="115.446" y1="-61.6913" x2="93.6181" y2="167.093" gradientUnits="userSpaceOnUse">
<stop stop-color="#5CFBD8"/>
<stop offset="0.49" stop-color="#2ED8EB"/>
<stop offset="1" stop-color="#00B6FF"/>
</linearGradient>
<clipPath id="clip0_181_240">
<rect width="149.555" height="149.555" rx="74.7773" fill="white"/>
</clipPath>
</defs>
</svg>
