<svg width="129" height="128" viewBox="0 0 129 128" fill="none" xmlns="http://www.w3.org/2000/svg">
<g clip-path="url(#clip0_414_1074)">
<rect x="0.772461" y="0.308594" width="127.473" height="127.473" rx="63.7364" fill="#212121"/>
<path opacity="0.45" d="M128.245 64.0449C128.245 99.2456 99.7094 127.781 64.5088 127.781C29.3082 127.781 0.772461 99.2456 0.772461 64.0449C22.9728 18.9278 54.4829 92.6901 84.5607 91.2586C119.722 89.5853 128.245 28.8443 128.245 64.0449Z" fill="white" fill-opacity="0.06"/>
<path d="M63.3937 76.6038H46.0533V75.131C47.106 73.2507 50.0664 72.2726 53.2358 72.0662C51.2213 71.4163 49.7388 69.2778 49.7388 66.7457C49.7388 63.7012 51.883 61.2247 54.5191 61.2247C57.1572 61.2247 59.3026 63.7012 59.3026 66.7457C59.3026 69.2772 57.8201 71.415 55.8057 72.0655C57.5083 72.1749 59.0766 72.5032 60.316 73.0175C62.9017 74.0886 63.3649 75.6853 63.3937 76.6038ZM96.9366 51.6653V84.18C96.9366 86.1298 95.3506 87.7159 93.401 87.7159H75.1048V89.796C75.1048 91.7615 76.1707 93.5972 77.8864 94.5865C78.2827 94.8152 78.476 95.281 78.3574 95.7232C78.2388 96.1648 77.8386 96.4727 77.3813 96.4727H61.5692C61.112 96.4727 60.7117 96.1654 60.5931 95.7232C60.4746 95.281 60.6685 94.8152 61.0642 94.5865C62.7799 93.5972 63.845 91.7615 63.845 89.796V87.7159H45.5502C43.5993 87.7159 42.0133 86.1298 42.0133 84.18V61.4572H34.5439C33.1865 61.4572 32.082 60.3507 32.082 58.9906V53.5541C32.082 52.194 33.1859 51.0874 34.5439 51.0874H42.0618C42.3382 49.4122 43.7965 48.1294 45.5502 48.1294H54.2931V38.0551C54.2931 36.4689 55.5836 35.1783 57.1696 35.1783H66.2171L66.7727 33.7913C67.0275 33.144 67.6321 31.6182 69.2483 31.6182C70.6541 31.6182 71.7973 32.7614 71.7973 34.1674V35.1783H78.1969C79.7842 35.1783 81.0747 36.4689 81.0747 38.0551V48.1301H93.401C95.3506 48.1294 96.9366 49.7155 96.9366 51.6653ZM65.8857 39.7303H64.6325V47.5424H73.243C74.149 47.5424 74.8873 46.8053 74.8873 45.8979V41.3702C74.8873 40.4654 74.149 39.7296 73.243 39.7296H70.7864C70.2276 39.7296 69.7756 39.2776 69.7756 38.7187V34.1667C69.7756 33.8804 69.5332 33.6393 69.2483 33.6393C69.1284 33.6393 68.9633 33.7455 68.6502 34.5375L66.8244 39.0955C66.6705 39.4794 66.2997 39.7303 65.8857 39.7303ZM56.3127 49.4115C56.3127 49.8833 56.6973 50.2685 57.1696 50.2685H69.1841C69.4514 50.2685 69.7088 50.3746 69.8981 50.5653L73.2051 53.8725V51.2794C73.2051 50.7219 73.6577 50.2685 74.2159 50.2685H78.1969C78.6686 50.2685 79.0538 49.8839 79.0538 49.4115V38.0551C79.0538 37.5834 78.6686 37.1981 78.1969 37.1981H71.7973V37.7105H73.243C75.2647 37.7105 76.907 39.3523 76.907 41.3715V45.8993C76.907 47.9211 75.264 49.5649 73.243 49.5649H60.092C59.5345 49.5649 59.0812 49.1121 59.0812 48.5539V38.7201C59.0812 38.1625 59.5338 37.7105 60.092 37.7105H65.2024L65.4074 37.1981H57.1696C56.6979 37.1981 56.3127 37.5834 56.3127 38.0551V49.4115ZM38.6658 56.2723C38.6658 55.3047 37.8796 54.5185 36.9121 54.5185C35.9445 54.5185 35.1571 55.3047 35.1571 56.2723C35.1571 57.24 35.9445 58.0262 36.9121 58.0262C37.8796 58.0262 38.6658 57.2407 38.6658 56.2723ZM44.485 56.2723C44.485 55.3047 43.6975 54.5185 42.7313 54.5185C41.7637 54.5185 40.9763 55.3047 40.9763 56.2723C40.9763 57.24 41.7637 58.0262 42.7313 58.0262C43.6975 58.0262 44.485 57.2407 44.485 56.2723ZM94.9163 51.6653C94.9163 50.83 94.2363 50.1512 93.401 50.1512H80.9784C80.6515 51.3816 79.5287 52.2903 78.1969 52.2903H75.2267V53.5954H92.5428C93.1003 53.5954 93.5537 54.0481 93.5537 54.6063V66.4561C93.5537 67.0136 93.1003 67.467 92.5428 67.467H64.8486C64.2912 67.467 63.8378 67.0143 63.8378 66.4561V54.6056C63.8378 54.0481 64.2905 53.5947 64.8486 53.5947H70.0698L68.7648 52.2896H57.1696C55.8391 52.2896 54.7163 51.3809 54.3894 50.1506H45.5502C44.9193 50.1506 44.3775 50.5378 44.1502 51.0868H50.918C52.278 51.0868 53.3845 52.1933 53.3845 53.5534V58.9899C53.3845 60.35 52.278 61.4566 50.918 61.4566H48.8309V64.3668C48.8309 64.7756 48.5846 65.1438 48.2079 65.3004C48.0828 65.3521 47.9517 65.3777 47.822 65.3777C47.558 65.3777 47.3012 65.2742 47.1067 65.0809L44.0356 62.0095V78.6223H94.9176V51.6653H94.9163ZM48.5544 58.0262C49.5207 58.0262 50.3081 57.24 50.3081 56.2723C50.3081 55.3047 49.5207 54.5185 48.5544 54.5185C47.5869 54.5185 46.7994 55.3047 46.7994 56.2723C46.7994 57.24 47.5869 58.0262 48.5544 58.0262ZM64.8493 70.8935H76.7026C77.2608 70.8935 77.7128 70.4414 77.7128 69.8832C77.7128 69.325 77.2608 68.873 76.7026 68.873H64.8493C64.2912 68.873 63.8391 69.325 63.8391 69.8832C63.8385 70.4407 64.2912 70.8935 64.8493 70.8935ZM92.5428 73.1793H64.8493C64.2912 73.1793 63.8391 73.6314 63.8391 74.1895C63.8391 74.7477 64.2912 75.1998 64.8493 75.1998H92.5435C93.1016 75.1998 93.5537 74.7477 93.5537 74.1895C93.5537 73.6314 93.101 73.1793 92.5428 73.1793Z" fill="url(#paint0_linear_414_1074)"/>
</g>
<defs>
<linearGradient id="paint0_linear_414_1074" x1="97.6588" y1="29.316" x2="34.5855" y2="120.89" gradientUnits="userSpaceOnUse">
<stop offset="0.1" stop-color="#5CFBD8"/>
<stop offset="0.49" stop-color="#2ED8EB"/>
<stop offset="0.93" stop-color="#00B6FF"/>
</linearGradient>
<clipPath id="clip0_414_1074">
<rect x="0.772461" y="0.308594" width="127.473" height="127.473" rx="63.7364" fill="white"/>
</clipPath>
</defs>
</svg>
