<svg width="24" height="22" viewBox="0 0 24 22" fill="none" xmlns="http://www.w3.org/2000/svg">
<path d="M21.5814 2.17109L8.65019 0.6755C8.35248 0.633371 8.04919 0.651229 7.75818 0.728023C7.46717 0.804816 7.19433 0.938993 6.95572 1.12265C6.71712 1.3063 6.51757 1.53572 6.36884 1.7974C6.22012 2.05907 6.12521 2.3477 6.08972 2.6463C6.05423 2.94489 6.07887 3.2474 6.16219 3.53601C6.24551 3.82463 6.38583 4.09351 6.57487 4.32681C6.76392 4.56012 6.99787 4.75314 7.26295 4.89449C7.52803 5.03585 7.81888 5.12269 8.11836 5.14989L15.7572 6.02741L1.5412 17.2645C1.07165 17.6356 0.768381 18.1776 0.698094 18.7711C0.627808 19.3647 0.796265 19.9612 1.16641 20.4295C1.53655 20.8978 2.07805 21.1994 2.6718 21.2681C3.26555 21.3368 3.8629 21.1668 4.33244 20.7957L18.5089 9.58986L17.6176 17.1674C17.5633 17.7528 17.7401 18.3356 18.1101 18.7914C18.4802 19.2473 19.0142 19.5401 19.5983 19.6074C20.1824 19.6747 20.7703 19.5111 21.2365 19.1516C21.7027 18.7921 22.0104 18.2651 22.0939 17.6831L23.6246 4.75596C23.6603 4.46201 23.6373 4.16405 23.5569 3.87937C23.4764 3.59469 23.3402 3.32896 23.156 3.09758C23.1457 3.08209 23.1341 3.06744 23.1214 3.05377C23.1109 3.03836 23.0994 3.02372 23.0868 3.00996C22.7165 2.54183 22.1751 2.24014 21.5814 2.17109Z" fill="black"/>
</svg>
