<svg width="128" height="128" viewBox="0 0 128 128" fill="none" xmlns="http://www.w3.org/2000/svg">
<g clip-path="url(#clip0_414_1047)">
<rect y="0.308594" width="127.473" height="127.473" rx="63.7364" fill="#212121"/>
<path opacity="0.45" d="M127.473 64.0449C127.473 99.2456 98.937 127.781 63.7364 127.781C28.5357 127.781 0 99.2456 0 64.0449C22.2003 18.9278 53.7104 92.6901 83.7883 91.2586C118.949 89.5853 127.473 28.8443 127.473 64.0449Z" fill="white" fill-opacity="0.06"/>
<g clip-path="url(#clip1_414_1047)">
<path opacity="0.979" fill-rule="evenodd" clip-rule="evenodd" d="M59.3647 31.5547C60.0402 31.5547 60.7159 31.5547 61.3914 31.5547C63.6004 32.5108 64.3816 34.1574 63.7348 36.4948C63.2511 37.5698 62.4487 38.2876 61.3281 38.6482C61.2648 39.7874 61.2437 40.9274 61.2648 42.0682C66.635 42.3689 71.364 44.2478 75.4517 47.705C80.1943 51.8898 83.15 57.1042 84.3185 63.3486C84.4038 63.939 84.1504 64.2768 83.5585 64.362C81.5023 63.8947 79.4334 63.5569 77.3517 63.3486C76.1892 58.5509 73.5713 54.7719 69.4982 52.0117C63.5234 48.6098 57.5278 48.5676 51.5112 51.8851C45.6675 55.8669 42.9019 61.4192 43.2144 68.542C43.437 72.0913 45.2315 74.4347 48.5979 75.5722C50.413 76.0482 52.1864 75.9215 53.918 75.1922C54.7846 74.6954 55.6713 74.231 56.578 73.7988C57.0205 73.6716 57.4215 73.735 57.7814 73.9888C57.9416 74.3639 58.0893 74.7439 58.2247 75.1288C56.898 78.7509 56.8768 82.3822 58.1614 86.0224C58.7022 87.2305 59.2723 88.4127 59.8714 89.5691C59.8833 89.8746 59.7566 90.1068 59.4914 90.2658C55.2112 90.4747 51.0312 89.9258 46.9512 88.6191C40.545 86.4348 36.935 81.9804 36.121 75.2555C36.0365 71.8776 36.0365 68.4999 36.121 65.122C37.3565 56.7166 41.4733 50.1508 48.4712 45.4249C51.872 43.271 55.5876 42.1521 59.6181 42.0682C59.6391 40.9274 59.6181 39.7874 59.5547 38.6482C57.2092 37.7999 56.3647 36.1532 57.0213 33.7081C57.5069 32.6519 58.288 31.9341 59.3647 31.5547Z" fill="url(#paint0_linear_414_1047)"/>
<path opacity="0.96" fill-rule="evenodd" clip-rule="evenodd" d="M51.764 56.6356C53.8151 56.3867 55.0184 57.2734 55.3741 59.2957C55.4586 60.3935 55.4586 61.4912 55.3741 62.5891C55.0667 64.5008 53.9478 65.3663 52.0174 65.1858C50.8832 64.9807 50.1443 64.3262 49.8007 63.2224C49.7162 61.7024 49.7162 60.1824 49.8007 58.6623C50.1408 57.668 50.7953 56.9923 51.764 56.6356Z" fill="url(#paint1_linear_414_1047)"/>
<path opacity="0.961" fill-rule="evenodd" clip-rule="evenodd" d="M67.4711 56.6354C69.4911 56.4302 70.6944 57.3168 71.0811 59.2954C71.2191 60.7476 71.1346 62.1832 70.8278 63.6022C69.7139 65.3004 68.2572 65.6593 66.4577 64.6789C66.0292 64.2648 65.7125 63.7791 65.5077 63.2222C65.4232 61.7021 65.4232 60.1821 65.5077 58.6621C65.8478 57.6677 66.5023 56.9921 67.4711 56.6354Z" fill="url(#paint2_linear_414_1047)"/>
<path opacity="0.945" fill-rule="evenodd" clip-rule="evenodd" d="M31.248 70.9482C31.248 69.4282 31.248 67.9082 31.248 66.3881C31.2855 64.43 31.56 62.4878 32.0714 60.5614C32.7033 58.8741 33.8222 57.6285 35.4281 56.8246C36.1261 56.6664 36.5062 56.9409 36.5681 57.648C35.6042 60.1814 34.992 62.7992 34.7314 65.5015C34.6892 68.7949 34.647 72.0883 34.6048 75.3816C34.2806 75.7425 33.8795 75.8482 33.4014 75.6983C32.1131 74.3678 31.3953 72.7844 31.248 70.9482Z" fill="url(#paint3_linear_414_1047)"/>
<path opacity="0.942" fill-rule="evenodd" clip-rule="evenodd" d="M84.8296 56.7617C86.6197 57.3479 87.8653 58.5301 88.5664 60.3085C89.2463 62.1587 89.4785 64.0587 89.2631 66.0086C89.0504 66.1709 88.8181 66.2976 88.5664 66.3886C87.7241 66.0309 86.9218 65.6087 86.1597 65.1219C85.7229 62.5725 85.0684 60.0815 84.1963 57.6484C84.2672 57.2415 84.4784 56.946 84.8296 56.7617Z" fill="url(#paint4_linear_414_1047)"/>
<path opacity="0.987" fill-rule="evenodd" clip-rule="evenodd" d="M96.1011 78.8028C96.1011 80.0273 96.1011 81.2517 96.1011 82.4762C95.1978 87.2456 92.6644 90.8978 88.5009 93.4331C85.7862 95.0486 82.8728 96.041 79.7608 96.4098C78.1563 96.4098 76.5519 96.4098 74.9474 96.4098C69.7423 95.8023 65.3722 93.5645 61.8371 89.6964C58.3376 85.2502 57.6409 80.3946 59.7471 75.1294C58.7184 73.0048 58.3172 70.7669 58.5437 68.416C59.3289 66.9576 60.49 66.5565 62.0271 67.2126C62.1638 67.3337 62.3115 67.4392 62.4705 67.5293C62.8797 68.2765 63.3864 68.952 63.9905 69.556C70.0551 65.0158 76.7474 63.8124 84.0675 65.9459C89.1725 67.5045 92.867 70.6923 95.1511 75.5094C95.5499 76.6009 95.8666 77.6987 96.1011 78.8028ZM66.8405 78.8028C69.0275 78.772 69.7663 79.7854 69.0572 81.8429C68.2654 82.6676 67.3576 82.8153 66.3339 82.2862C65.5091 81.4944 65.3614 80.5866 65.8905 79.5628C66.1583 79.2308 66.475 78.9775 66.8405 78.8028ZM76.9741 78.8028C79.161 78.772 79.8999 79.7854 79.1908 81.8429C78.399 82.6676 77.4911 82.8153 76.4674 82.2862C75.6426 81.4944 75.4949 80.5866 76.024 79.5628C76.2918 79.2308 76.6085 78.9775 76.9741 78.8028ZM86.6009 78.8028C88.7878 78.772 89.5267 79.7854 88.8176 81.8429C88.0258 82.6676 87.118 82.8153 86.0942 82.2862C85.2695 81.4944 85.1218 80.5866 85.6509 79.5628C85.9187 79.2308 86.2353 78.9775 86.6009 78.8028Z" fill="url(#paint5_linear_414_1047)"/>
</g>
</g>
<defs>
<linearGradient id="paint0_linear_414_1047" x1="84.8722" y1="29.4691" x2="24.6535" y2="101.308" gradientUnits="userSpaceOnUse">
<stop offset="0.1" stop-color="#5CFBD8"/>
<stop offset="0.49" stop-color="#2ED8EB"/>
<stop offset="0.93" stop-color="#00B6FF"/>
</linearGradient>
<linearGradient id="paint1_linear_414_1047" x1="55.501" y1="56.2889" x2="46.5412" y2="64.8966" gradientUnits="userSpaceOnUse">
<stop offset="0.1" stop-color="#5CFBD8"/>
<stop offset="0.49" stop-color="#2ED8EB"/>
<stop offset="0.93" stop-color="#00B6FF"/>
</linearGradient>
<linearGradient id="paint2_linear_414_1047" x1="71.2088" y1="56.3008" x2="62.2527" y2="64.9098" gradientUnits="userSpaceOnUse">
<stop offset="0.1" stop-color="#5CFBD8"/>
<stop offset="0.49" stop-color="#2ED8EB"/>
<stop offset="0.93" stop-color="#00B6FF"/>
</linearGradient>
<linearGradient id="paint3_linear_414_1047" x1="36.6274" y1="56.1074" x2="22.8312" y2="61.721" gradientUnits="userSpaceOnUse">
<stop offset="0.1" stop-color="#5CFBD8"/>
<stop offset="0.49" stop-color="#2ED8EB"/>
<stop offset="0.93" stop-color="#00B6FF"/>
</linearGradient>
<linearGradient id="paint4_linear_414_1047" x1="89.3981" y1="56.42" x2="79.6916" y2="63.951" gradientUnits="userSpaceOnUse">
<stop offset="0.1" stop-color="#5CFBD8"/>
<stop offset="0.49" stop-color="#2ED8EB"/>
<stop offset="0.93" stop-color="#00B6FF"/>
</linearGradient>
<linearGradient id="paint5_linear_414_1047" x1="96.52" y1="63.8052" x2="68.1565" y2="113.004" gradientUnits="userSpaceOnUse">
<stop offset="0.1" stop-color="#5CFBD8"/>
<stop offset="0.49" stop-color="#2ED8EB"/>
<stop offset="0.93" stop-color="#00B6FF"/>
</linearGradient>
<clipPath id="clip0_414_1047">
<rect y="0.308594" width="127.473" height="127.473" rx="63.7364" fill="white"/>
</clipPath>
<clipPath id="clip1_414_1047">
<rect width="64.8545" height="64.8545" fill="white" transform="translate(31.3096 31.6182)"/>
</clipPath>
</defs>
</svg>
