<svg width="150" height="150" viewBox="0 0 150 150" fill="none" xmlns="http://www.w3.org/2000/svg">
<g clip-path="url(#clip0_181_250)">
<rect width="149.555" height="149.555" rx="74.7773" fill="#212121"/>
<rect width="149.555" height="149.555" rx="74.7773" fill="url(#paint0_linear_181_250)"/>
<path d="M149.555 75.1654C149.555 116.464 116.076 149.943 74.7773 149.943C33.4789 149.943 0 116.464 0 75.1654C26.046 22.2327 63.0146 108.773 98.3027 107.093C139.554 105.13 149.555 33.867 149.555 75.1654Z" fill="white" fill-opacity="0.46"/>
<g clip-path="url(#clip1_181_250)">
<path opacity="0.979" fill-rule="evenodd" clip-rule="evenodd" d="M71.0552 38.9375C71.7307 38.9375 72.4063 38.9375 73.0819 38.9375C75.2908 39.8936 76.072 41.5403 75.4252 43.8776C74.9415 44.9526 74.1392 45.6704 73.0185 46.031C72.9552 47.1702 72.9342 48.3102 72.9552 49.451C78.3254 49.7517 83.0544 51.6306 87.1421 55.0878C91.8847 59.2726 94.8404 64.487 96.009 70.7314C96.0942 71.3218 95.8409 71.6597 95.2489 71.7448C93.1927 71.2775 91.1238 70.9397 89.0422 70.7314C87.8796 65.9337 85.2617 62.1547 81.1887 59.3945C75.2138 55.9926 69.2182 55.9504 63.2017 59.2679C57.3579 63.2497 54.5923 68.802 54.9049 75.9249C55.1275 79.4741 56.9219 81.8175 60.2883 82.955C62.1035 83.431 63.8768 83.3043 65.6084 82.575C66.4751 82.0782 67.3617 81.6138 68.2684 81.1816C68.7109 81.0544 69.1119 81.1178 69.4718 81.3716C69.632 81.7467 69.7797 82.1267 69.9151 82.5116C68.5884 86.1337 68.5672 89.765 69.8518 93.4052C70.3927 94.6134 70.9627 95.7956 71.5618 96.9519C71.5737 97.2574 71.4471 97.4896 71.1818 97.6486C66.9017 97.8575 62.7216 97.3086 58.6416 96.0019C52.2355 93.8176 48.6254 89.3632 47.8114 82.6383C47.7269 79.2604 47.7269 75.8827 47.8114 72.5048C49.047 64.0994 53.1637 57.5337 60.1616 52.8078C63.5624 50.6539 67.278 49.5349 71.3085 49.451C71.3295 48.3102 71.3085 47.1702 71.2452 46.031C68.8996 45.1827 68.0551 43.536 68.7118 41.0909C69.1973 40.0347 69.9785 39.3169 71.0552 38.9375Z" fill="#212121"/>
<path opacity="0.96" fill-rule="evenodd" clip-rule="evenodd" d="M63.4545 64.0175C65.5055 63.7686 66.7089 64.6553 67.0645 66.6775C67.149 67.7754 67.149 68.8731 67.0645 69.9709C66.7571 71.8826 65.6382 72.7481 63.7078 72.5676C62.5736 72.3626 61.8348 71.7081 61.4911 70.6043C61.4066 69.0842 61.4066 67.5642 61.4911 66.0442C61.8312 65.0498 62.4857 64.3742 63.4545 64.0175Z" fill="#212121"/>
<path opacity="0.961" fill-rule="evenodd" clip-rule="evenodd" d="M79.1615 64.0172C81.1815 63.812 82.3848 64.6987 82.7716 66.6773C82.9095 68.1294 82.825 69.5651 82.5182 70.984C81.4043 72.6823 79.9476 73.0411 78.1481 72.0607C77.7196 71.6466 77.403 71.161 77.1981 70.604C77.1136 69.084 77.1136 67.5639 77.1981 66.0439C77.5382 65.0496 78.1927 64.3739 79.1615 64.0172Z" fill="#212121"/>
<path opacity="0.945" fill-rule="evenodd" clip-rule="evenodd" d="M42.9375 78.331C42.9375 76.811 42.9375 75.291 42.9375 73.771C42.975 71.8128 43.2494 69.8706 43.7608 67.9442C44.3928 66.257 45.5117 65.0113 47.1176 64.2074C47.8156 64.0492 48.1956 64.3237 48.2576 65.0308C47.2937 67.5642 46.6815 70.182 46.4209 72.8843C46.3787 76.1777 46.3364 79.4711 46.2942 82.7645C45.97 83.1253 45.5689 83.231 45.0909 83.0811C43.8026 81.7506 43.0848 80.1672 42.9375 78.331Z" fill="#212121"/>
<path opacity="0.942" fill-rule="evenodd" clip-rule="evenodd" d="M96.5201 64.1445C98.3102 64.7308 99.5557 65.913 100.257 67.6913C100.937 69.5415 101.169 71.4416 100.953 73.3914C100.741 73.5538 100.508 73.6804 100.257 73.7714C99.4146 73.4137 98.6123 72.9915 97.8501 72.5047C97.4133 69.9553 96.7588 67.4643 95.8867 65.0312C95.9577 64.6244 96.1688 64.3288 96.5201 64.1445Z" fill="#212121"/>
<path opacity="0.987" fill-rule="evenodd" clip-rule="evenodd" d="M107.791 86.1847C107.791 87.4092 107.791 88.6336 107.791 89.8581C106.887 94.6274 104.354 98.2797 100.19 100.815C97.4756 102.43 94.5622 103.423 91.4502 103.792C89.8457 103.792 88.2413 103.792 86.6368 103.792C81.4317 103.184 77.0616 100.946 73.5266 97.0782C70.0271 92.632 69.3304 87.7764 71.4365 82.5113C70.4078 80.3866 70.0067 78.1488 70.2332 75.7978C71.0184 74.3395 72.1794 73.9383 73.7166 74.5944C73.8532 74.7155 74.0009 74.8211 74.1599 74.9111C74.5692 75.6583 75.0759 76.3339 75.6799 76.9378C81.7446 72.3976 88.4369 71.1943 95.757 73.3278C100.862 74.8863 104.556 78.0742 106.841 82.8913C107.239 83.9828 107.556 85.0805 107.791 86.1847ZM78.53 86.1847C80.7169 86.1539 81.4558 87.1672 80.7467 89.2247C79.9549 90.0495 79.0471 90.1972 78.0233 89.6681C77.1986 88.8763 77.0509 87.9684 77.58 86.9447C77.8478 86.6127 78.1644 86.3593 78.53 86.1847ZM88.6635 86.1847C90.8505 86.1539 91.5893 87.1672 90.8802 89.2247C90.0884 90.0495 89.1806 90.1972 88.1568 89.6681C87.3321 88.8763 87.1844 87.9684 87.7135 86.9447C87.9813 86.6127 88.2979 86.3593 88.6635 86.1847ZM98.2904 86.1847C100.477 86.1539 101.216 87.1672 100.507 89.2247C99.7153 90.0495 98.8074 90.1972 97.7837 89.6681C96.9589 88.8763 96.8112 87.9684 97.3403 86.9447C97.6081 86.6127 97.9248 86.3593 98.2904 86.1847Z" fill="#212121"/>
</g>
</g>
<defs>
<linearGradient id="paint0_linear_181_250" x1="115.446" y1="-61.6913" x2="93.6181" y2="167.093" gradientUnits="userSpaceOnUse">
<stop stop-color="#5CFBD8"/>
<stop offset="0.49" stop-color="#2ED8EB"/>
<stop offset="1" stop-color="#00B6FF"/>
</linearGradient>
<clipPath id="clip0_181_250">
<rect width="149.555" height="149.555" rx="74.7773" fill="white"/>
</clipPath>
<clipPath id="clip1_181_250">
<rect width="64.8545" height="64.8545" fill="white" transform="translate(43 39)"/>
</clipPath>
</defs>
</svg>
