<svg width="129" height="128" viewBox="0 0 129 128" fill="none" xmlns="http://www.w3.org/2000/svg">
<g clip-path="url(#clip0_414_1088)">
<rect x="0.772461" y="0.308594" width="127.473" height="127.473" rx="63.7364" fill="#212121"/>
<path opacity="0.06" d="M128.245 64.0449C128.245 99.2456 99.7094 127.781 64.5088 127.781C29.3082 127.781 0.772461 99.2456 0.772461 64.0449C22.9728 18.9278 54.4829 92.6901 84.5607 91.2586C119.722 89.5853 128.245 28.8443 128.245 64.0449Z" fill="white"/>
<path opacity="0.973" fill-rule="evenodd" clip-rule="evenodd" d="M43.0261 31.6758C49.1837 31.1919 53.4921 33.7548 55.9512 39.3646C57.5739 44.9685 56.0936 49.542 51.5103 53.0851C47.9301 55.237 44.174 55.5905 40.2422 54.1456C36.3871 52.3661 34.0672 49.3834 33.2826 45.1974C32.7199 39.3611 35.0398 35.1411 40.2422 32.5375C41.1665 32.1858 42.0945 31.8985 43.0261 31.6758ZM47.4007 38.0389C50.1472 38.5124 51.3624 40.1473 51.0463 42.9438C50.8287 43.6446 50.4752 44.2632 49.9858 44.7997C48.4573 46.2839 46.9769 47.8084 45.5448 49.3732C45.2094 49.5617 44.8559 49.6059 44.4843 49.5058C42.698 47.7636 40.9526 45.974 39.248 44.1369C38.3495 42.4132 38.482 40.7782 39.6457 39.232C41.3568 37.8682 43.1023 37.8241 44.882 39.0994C45.627 38.484 46.4666 38.1305 47.4007 38.0389Z" fill="url(#paint0_linear_414_1088)"/>
<path opacity="0.989" fill-rule="evenodd" clip-rule="evenodd" d="M71.5275 31.6753C79.2164 31.6532 86.9052 31.6753 94.5938 31.7416C95.6765 32.1172 96.4056 32.8463 96.7812 33.9289C96.8696 40.9106 96.8696 47.8924 96.7812 54.8742C96.4056 55.9568 95.6765 56.6859 94.5938 57.0615C90.7053 57.1499 86.8167 57.1499 82.9281 57.0615C79.9047 51.748 75.3532 48.6769 69.2739 47.8482C69.2518 43.2082 69.2739 38.5684 69.3402 33.9289C69.7404 32.8439 70.4695 32.0927 71.5275 31.6753ZM78.4209 38.171C78.6896 38.1495 78.9548 38.1716 79.2163 38.2372C82.8397 40.049 86.4632 41.8607 90.0866 43.6724C90.4078 44.1203 90.43 44.5843 90.1529 45.0643C86.5177 46.9151 82.8722 48.749 79.2163 50.5658C78.4442 50.7656 77.9803 50.4784 77.8244 49.7041C77.7359 46.169 77.7359 42.634 77.8244 39.0989C77.8946 38.69 78.0935 38.3806 78.4209 38.171Z" fill="url(#paint1_linear_414_1088)"/>
<path opacity="0.95" fill-rule="evenodd" clip-rule="evenodd" d="M65.1624 49.7058C71.8204 49.18 77.0125 51.6546 80.7388 57.1295C83.1703 61.252 83.7447 65.6266 82.4621 70.2534C81.773 72.4056 80.6904 74.3278 79.2143 76.02C80.1644 76.9701 81.1143 77.9201 82.0644 78.8701C83.4846 78.1893 84.9207 78.1672 86.3728 78.8039C89.6988 81.5107 92.9467 84.3167 96.1163 87.2217C97.1201 89.014 97.0759 90.7815 95.9837 92.5243C95.2505 93.302 94.4771 94.0311 93.6638 94.7117C91.5384 95.7972 89.6162 95.51 87.8973 93.85C85.3287 90.884 82.81 87.8791 80.3411 84.8356C79.7044 83.3835 79.7265 81.9474 80.4073 80.5272C79.4573 79.5771 78.5073 78.6272 77.5572 77.6771C73.7005 80.9351 69.2596 82.1503 64.2344 81.3226C58.3617 80.0548 54.3184 76.6302 52.1047 71.0488C49.9006 63.5666 51.8228 57.4023 57.8713 52.556C60.1024 51.069 62.5328 50.1189 65.1624 49.7058ZM67.0183 51.8269C74.2022 52.3176 78.7316 56.0295 80.6062 62.9623C81.4871 70.0176 78.7695 75.1213 72.4534 78.2736C66.7555 80.3345 61.6961 79.2959 57.2748 75.1583C52.9783 70.1348 52.3155 64.6555 55.2863 58.7203C57.9966 54.4005 61.9072 52.1028 67.0183 51.8269Z" fill="url(#paint2_linear_414_1088)"/>
<path opacity="0.933" fill-rule="evenodd" clip-rule="evenodd" d="M69.8018 59.2505C71.5699 59.2284 73.3375 59.2505 75.1044 59.3168C75.4113 59.4638 75.6102 59.7069 75.701 60.0459C75.7894 61.6367 75.7894 63.2274 75.701 64.8182C75.3889 65.5599 74.8365 65.8029 74.0439 65.5473C73.8892 65.3926 73.7346 65.2381 73.5799 65.0834C73.5358 64.5089 73.4915 63.9344 73.4474 63.36C72.0776 64.9949 70.7077 66.63 69.3379 68.2649C68.7811 68.8235 68.1403 68.9341 67.4157 68.5963C66.6424 67.8231 65.869 67.0497 65.0958 66.2764C63.5555 68.098 62.031 69.9318 60.5223 71.7779C58.9094 72.286 58.3571 71.7337 58.8652 70.1208C60.6549 67.9776 62.4445 65.8346 64.2341 63.6914C64.7644 63.4263 65.2946 63.4263 65.8249 63.6914C66.5981 64.4647 67.3715 65.2381 68.1448 66.0113C69.498 64.5258 70.8015 63.0013 72.0554 61.4378C71.2015 61.4268 70.3619 61.3385 69.5367 61.1727C69.281 60.7411 69.2147 60.2771 69.3379 59.7808C69.4293 59.5355 69.5839 59.3587 69.8018 59.2505Z" fill="url(#paint3_linear_414_1088)"/>
<path opacity="0.971" fill-rule="evenodd" clip-rule="evenodd" d="M36.7961 69.1919C41.0384 69.1698 45.2805 69.1919 49.5223 69.2582C50.5289 73.5282 52.7384 77.0191 56.1506 79.7308C56.3504 79.8418 56.4166 79.9965 56.3494 80.1948C54.9257 81.4698 53.4896 82.7292 52.0411 83.9729C51.1573 84.4147 50.2736 84.4147 49.3898 83.9729C44.3792 79.6254 39.408 75.2286 34.4762 70.7827C34.3927 70.4641 34.5031 70.221 34.8076 70.0536C35.4447 69.673 36.1076 69.3858 36.7961 69.1919Z" fill="url(#paint4_linear_414_1088)"/>
<path opacity="0.99" fill-rule="evenodd" clip-rule="evenodd" d="M33.3526 72.374C38.1457 76.6062 42.918 80.8702 47.6696 85.1665C49.3285 86.4123 51.0962 86.5891 52.9722 85.6968C54.7238 84.1874 56.4914 82.7071 58.2748 81.2559C61.388 82.9514 64.7021 83.7025 68.2172 83.5095C68.2393 86.382 68.2172 89.2543 68.1509 92.1262C67.7311 93.7833 66.6927 94.8217 65.0356 95.2415C55.491 95.3299 45.9463 95.3299 36.4016 95.2415C34.7445 94.8217 33.7061 93.7833 33.2863 92.1262C33.1765 85.5328 33.1986 78.9487 33.3526 72.374Z" fill="url(#paint5_linear_414_1088)"/>
</g>
<defs>
<linearGradient id="paint0_linear_414_1088" x1="56.8481" y1="30.7876" x2="34.0889" y2="63.8158" gradientUnits="userSpaceOnUse">
<stop offset="0.1" stop-color="#5CFBD8"/>
<stop offset="0.49" stop-color="#2ED8EB"/>
<stop offset="0.93" stop-color="#00B6FF"/>
</linearGradient>
<linearGradient id="paint1_linear_414_1088" x1="97.1546" y1="30.7632" x2="73.1553" y2="68.5097" gradientUnits="userSpaceOnUse">
<stop offset="0.1" stop-color="#5CFBD8"/>
<stop offset="0.49" stop-color="#2ED8EB"/>
<stop offset="0.93" stop-color="#00B6FF"/>
</linearGradient>
<linearGradient id="paint2_linear_414_1088" x1="97.3454" y1="48.0138" x2="52.8466" y2="112.474" gradientUnits="userSpaceOnUse">
<stop offset="0.1" stop-color="#5CFBD8"/>
<stop offset="0.49" stop-color="#2ED8EB"/>
<stop offset="0.93" stop-color="#00B6FF"/>
</linearGradient>
<linearGradient id="paint3_linear_414_1088" x1="75.9576" y1="58.7907" x2="65.2077" y2="79.7564" gradientUnits="userSpaceOnUse">
<stop offset="0.1" stop-color="#5CFBD8"/>
<stop offset="0.49" stop-color="#2ED8EB"/>
<stop offset="0.93" stop-color="#00B6FF"/>
</linearGradient>
<linearGradient id="paint4_linear_414_1088" x1="56.619" y1="68.6469" x2="44.4191" y2="94.3308" gradientUnits="userSpaceOnUse">
<stop offset="0.1" stop-color="#5CFBD8"/>
<stop offset="0.49" stop-color="#2ED8EB"/>
<stop offset="0.93" stop-color="#00B6FF"/>
</linearGradient>
<linearGradient id="paint5_linear_414_1088" x1="68.6154" y1="71.5599" x2="50.7164" y2="111.228" gradientUnits="userSpaceOnUse">
<stop offset="0.1" stop-color="#5CFBD8"/>
<stop offset="0.49" stop-color="#2ED8EB"/>
<stop offset="0.93" stop-color="#00B6FF"/>
</linearGradient>
<clipPath id="clip0_414_1088">
<rect x="0.772461" y="0.308594" width="127.473" height="127.473" rx="63.7364" fill="white"/>
</clipPath>
</defs>
</svg>
