<svg width="150" height="150" viewBox="0 0 150 150" fill="none" xmlns="http://www.w3.org/2000/svg">
<g clip-path="url(#clip0_181_210)">
<rect width="149.555" height="149.555" rx="74.7773" fill="#212121"/>
<rect width="149.555" height="149.555" rx="74.7773" fill="url(#paint0_linear_181_210)"/>
<path d="M149.555 74.7767C149.555 116.075 116.076 149.554 74.7773 149.554C33.4789 149.554 0 116.075 0 74.7767C26.046 21.844 63.0146 108.384 98.3027 106.705C139.554 104.741 149.555 33.4783 149.555 74.7767Z" fill="white" fill-opacity="0.46"/>
<path opacity="0.973" fill-rule="evenodd" clip-rule="evenodd" d="M52.8259 43.0576C58.9835 42.5737 63.2919 45.1367 65.751 50.7464C67.3737 56.3503 65.8934 60.9238 61.3101 64.4669C57.7299 66.6188 53.9738 66.9724 50.042 65.5274C46.1869 63.748 43.867 60.7653 43.0824 56.5793C42.5197 50.7429 44.8396 46.5229 50.042 43.9193C50.9663 43.5676 51.8943 43.2804 52.8259 43.0576ZM57.2005 49.4208C59.947 49.8942 61.1622 51.5292 60.8461 54.3257C60.6285 55.0264 60.275 55.6451 59.7856 56.1816C58.2571 57.6658 56.7767 59.1903 55.3446 60.7551C55.0092 60.9436 54.6557 60.9877 54.2841 60.8876C52.4978 59.1455 50.7524 57.3558 49.0478 55.5187C48.1493 53.795 48.2818 52.16 49.4455 50.6138C51.1566 49.2501 52.9021 49.2059 54.6818 50.4813C55.4268 49.8658 56.2664 49.5123 57.2005 49.4208Z" fill="#212121"/>
<path opacity="0.989" fill-rule="evenodd" clip-rule="evenodd" d="M81.3283 43.0571C89.0172 43.035 96.706 43.0571 104.395 43.1234C105.477 43.499 106.206 44.2281 106.582 45.3107C106.67 52.2925 106.67 59.2742 106.582 66.256C106.206 67.3386 105.477 68.0678 104.395 68.4433C100.506 68.5317 96.6174 68.5317 92.7289 68.4433C89.7055 63.1298 85.154 60.0587 79.0747 59.23C79.0526 54.59 79.0747 49.9503 79.141 45.3107C79.5412 44.2258 80.2703 43.4746 81.3283 43.0571ZM88.2217 49.5528C88.4904 49.5313 88.7555 49.5534 89.0171 49.6191C92.6405 51.4308 96.264 53.2425 99.8874 55.0542C100.209 55.5022 100.231 55.9662 99.9537 56.4462C96.3185 58.2969 92.673 60.1308 89.0171 61.9476C88.245 62.1474 87.781 61.8603 87.6252 61.086C87.5367 57.5508 87.5367 54.0158 87.6252 50.4808C87.6954 50.0718 87.8943 49.7625 88.2217 49.5528Z" fill="#212121"/>
<path opacity="0.95" fill-rule="evenodd" clip-rule="evenodd" d="M74.9622 61.0887C81.6203 60.5628 86.8123 63.0374 90.5386 68.5123C92.9701 72.6348 93.5445 77.0095 92.2619 81.6362C91.5728 83.7884 90.4902 85.7106 89.0141 87.4028C89.9642 88.3529 90.9141 89.3029 91.8642 90.253C93.2844 89.5721 94.7205 89.55 96.1726 90.1867C99.4986 92.8935 102.746 95.6995 105.916 98.6046C106.92 100.397 106.876 102.164 105.784 103.907C105.05 104.685 104.277 105.414 103.464 106.094C101.338 107.18 99.416 106.893 97.6971 105.233C95.1285 102.267 92.6098 99.2619 90.1409 96.2184C89.5042 94.7663 89.5263 93.3302 90.2072 91.91C89.2571 90.9599 88.3071 90.01 87.357 89.0599C83.5003 92.3179 79.0594 93.5331 74.0342 92.7054C68.1615 91.4376 64.1182 88.013 61.9045 82.4316C59.7004 74.9494 61.6226 68.7851 67.6711 63.9388C69.9022 62.4518 72.3326 61.5017 74.9622 61.0887ZM76.8181 63.2097C84.002 63.7005 88.5314 67.4123 90.406 74.3452C91.2869 81.4004 88.5693 86.5042 82.2533 89.6564C76.5553 91.7173 71.4959 90.6788 67.0746 86.5411C62.7781 81.5176 62.1153 76.0383 65.0861 70.1031C67.7964 65.7833 71.707 63.4856 76.8181 63.2097Z" fill="#212121"/>
<path opacity="0.933" fill-rule="evenodd" clip-rule="evenodd" d="M79.6016 70.6333C81.3697 70.6112 83.1373 70.6333 84.9042 70.6996C85.2111 70.8466 85.41 71.0897 85.5008 71.4287C85.5892 73.0195 85.5892 74.6103 85.5008 76.201C85.1887 76.9427 84.6363 77.1857 83.8437 76.9301C83.689 76.7754 83.5345 76.6209 83.3797 76.4662C83.3356 75.8918 83.2913 75.3172 83.2472 74.7428C81.8774 76.3777 80.5075 78.0128 79.1377 79.6477C78.5809 80.2064 77.9401 80.3169 77.2155 79.9791C76.4422 79.2059 75.6688 78.4325 74.8956 77.6592C73.3553 79.4808 71.8308 81.3146 70.3221 83.1607C68.7092 83.6688 68.1569 83.1166 68.665 81.5036C70.4547 79.3605 72.2443 77.2174 74.0339 75.0742C74.5642 74.8091 75.0944 74.8091 75.6247 75.0742C76.3979 75.8475 77.1713 76.6209 77.9446 77.3941C79.2978 75.9086 80.6013 74.3841 81.8553 72.8206C81.0013 72.8096 80.1617 72.7213 79.3365 72.5555C79.0808 72.1239 79.0145 71.6599 79.1377 71.1636C79.2291 70.9183 79.3837 70.7415 79.6016 70.6333Z" fill="#212121"/>
<path opacity="0.971" fill-rule="evenodd" clip-rule="evenodd" d="M46.5969 80.5747C50.8392 80.5526 55.0813 80.5747 59.3231 80.641C60.3297 84.911 62.5391 88.4019 65.9514 91.1136C66.1511 91.2246 66.2174 91.3793 66.1502 91.5776C64.7265 92.8526 63.2904 94.112 61.8418 95.3557C60.958 95.7975 60.0744 95.7975 59.1905 95.3557C54.18 91.0082 49.2088 86.6115 44.277 82.1655C44.1934 81.8469 44.3039 81.6038 44.6084 81.4364C45.2455 81.0558 45.9084 80.7687 46.5969 80.5747Z" fill="#212121"/>
<path opacity="0.99" fill-rule="evenodd" clip-rule="evenodd" d="M43.1524 83.7559C47.9455 87.988 52.7178 92.2521 57.4694 96.5484C59.1283 97.7941 60.896 97.9709 62.772 97.0786C64.5236 95.5693 66.2912 94.0889 68.0746 92.6377C71.1878 94.3332 74.5019 95.0843 78.017 94.8913C78.0391 97.7639 78.017 100.636 77.9507 103.508C77.5309 105.165 76.4925 106.203 74.8354 106.623C65.2908 106.712 55.7461 106.712 46.2014 106.623C44.5443 106.203 43.5059 105.165 43.0861 103.508C42.9763 96.9147 42.9984 90.3306 43.1524 83.7559Z" fill="#212121"/>
</g>
<defs>
<linearGradient id="paint0_linear_181_210" x1="115.446" y1="-61.6913" x2="93.6181" y2="167.093" gradientUnits="userSpaceOnUse">
<stop stop-color="#5CFBD8"/>
<stop offset="0.49" stop-color="#2ED8EB"/>
<stop offset="1" stop-color="#00B6FF"/>
</linearGradient>
<clipPath id="clip0_181_210">
<rect width="149.555" height="149.555" rx="74.7773" fill="white"/>
</clipPath>
</defs>
</svg>
