<svg width="128" height="128" viewBox="0 0 128 128" fill="none" xmlns="http://www.w3.org/2000/svg">
<g clip-path="url(#clip0_414_1128)">
<rect width="128" height="128" rx="64" fill="#212121"/>
<path opacity="0.06" d="M128 64C128 99.3462 99.3462 128 64 128C28.6538 128 0 99.3462 0 64C22.2921 18.6962 53.9326 92.7636 84.1348 91.3263C119.441 89.646 128 28.6538 128 64Z" fill="white"/>
<path d="M98.6179 38.6436C98.6179 37.3284 98.0954 36.0671 97.1654 35.137C96.2354 34.207 94.974 33.6846 93.6588 33.6846H57.4824L62.4415 38.6436H98.6179Z" fill="url(#paint0_linear_414_1128)"/>
<path d="M71.3487 83.2754L68.8691 93.1935L78.7873 90.714L90.6642 78.837L83.2256 71.3984L71.3487 83.2754Z" fill="url(#paint1_linear_414_1128)"/>
<path d="M93.3664 63.4385C92.6759 63.4379 91.992 63.5733 91.3538 63.8371C90.7157 64.1009 90.1357 64.4878 89.6471 64.9758L86.7461 67.8768L94.1847 75.3154L97.0857 72.4144C97.8218 71.6792 98.3232 70.7422 98.5264 69.7219C98.7296 68.7016 98.6255 67.6439 98.2273 66.6828C97.8291 65.7218 97.1546 64.9004 96.2893 64.3229C95.424 63.7454 94.4068 63.4376 93.3664 63.4385Z" fill="url(#paint2_linear_414_1128)"/>
<path d="M59.6668 42.8836L50.4925 33.6846H34.1524C32.8372 33.6846 31.5758 34.207 30.6458 35.137C29.7158 36.0671 29.1934 37.3284 29.1934 38.6436V88.2343C29.1934 89.5495 29.7158 90.8109 30.6458 91.7409C31.5758 92.6709 32.8372 93.1933 34.1524 93.1933H63.758L66.8575 80.7957L86.2226 61.4801C88.1153 59.5792 90.6812 58.5011 93.3637 58.4799C95.223 58.4814 97.0445 59.0055 98.6203 59.9924V43.6027H61.4273C61.101 43.6046 60.7775 43.542 60.4754 43.4186C60.1733 43.2953 59.8985 43.1134 59.6668 42.8836ZM46.5501 38.6436C47.0405 38.6436 47.5199 38.7891 47.9276 39.0615C48.3354 39.334 48.6532 39.7212 48.8409 40.1743C49.0285 40.6274 49.0777 41.1259 48.982 41.6069C48.8863 42.0879 48.6501 42.5297 48.3034 42.8765C47.9566 43.2232 47.5148 43.4594 47.0338 43.5551C46.5528 43.6507 46.0543 43.6016 45.6012 43.414C45.1481 43.2263 44.7609 42.9085 44.4884 42.5007C44.216 42.093 44.0706 41.6136 44.0706 41.1232C44.0706 40.4656 44.3318 39.8349 44.7968 39.3699C45.2618 38.9049 45.8925 38.6436 46.5501 38.6436ZM36.632 43.6027C36.1416 43.6027 35.6622 43.4573 35.2544 43.1848C34.8466 42.9124 34.5288 42.5251 34.3412 42.072C34.1535 41.619 34.1044 41.1204 34.2001 40.6394C34.2957 40.1585 34.5319 39.7166 34.8787 39.3699C35.2254 39.0231 35.6672 38.787 36.1482 38.6913C36.6292 38.5956 37.1278 38.6447 37.5808 38.8324C38.0339 39.02 38.4212 39.3379 38.6936 39.7456C38.9661 40.1534 39.1115 40.6328 39.1115 41.1232C39.1115 41.7808 38.8503 42.4115 38.3853 42.8765C37.9202 43.3415 37.2896 43.6027 36.632 43.6027ZM44.0706 80.7957H41.591C40.9334 80.7957 40.3027 80.5345 39.8377 80.0694C39.3727 79.6044 39.1115 78.9738 39.1115 78.3162C39.1115 77.6585 39.3727 77.0279 39.8377 76.5629C40.3027 76.0979 40.9334 75.8366 41.591 75.8366H44.0706C44.7282 75.8366 45.3588 76.0979 45.8238 76.5629C46.2889 77.0279 46.5501 77.6585 46.5501 78.3162C46.5501 78.9738 46.2889 79.6044 45.8238 80.0694C45.3588 80.5345 44.7282 80.7957 44.0706 80.7957ZM39.1115 68.398C39.1115 67.7404 39.3727 67.1097 39.8377 66.6447C40.3027 66.1797 40.9334 65.9185 41.591 65.9185H58.9478C59.6054 65.9185 60.236 66.1797 60.701 66.6447C61.166 67.1097 61.4273 67.7404 61.4273 68.398C61.4273 69.0556 61.166 69.6863 60.701 70.1513C60.236 70.6163 59.6054 70.8776 58.9478 70.8776H41.591C40.9334 70.8776 40.3027 70.6163 39.8377 70.1513C39.3727 69.6863 39.1115 69.0556 39.1115 68.398ZM61.4273 80.7957H53.9887C53.3311 80.7957 52.7004 80.5345 52.2354 80.0694C51.7704 79.6044 51.5092 78.9738 51.5092 78.3162C51.5092 77.6585 51.7704 77.0279 52.2354 76.5629C52.7004 76.0979 53.3311 75.8366 53.9887 75.8366H61.4273C62.0849 75.8366 62.7156 76.0979 63.1806 76.5629C63.6456 77.0279 63.9068 77.6585 63.9068 78.3162C63.9068 78.9738 63.6456 79.6044 63.1806 80.0694C62.7156 80.5345 62.0849 80.7957 61.4273 80.7957ZM71.3454 70.8776H68.8659C68.2083 70.8776 67.5776 70.6163 67.1126 70.1513C66.6476 69.6863 66.3863 69.0556 66.3863 68.398C66.3863 67.7404 66.6476 67.1097 67.1126 66.6447C67.5776 66.1797 68.2083 65.9185 68.8659 65.9185H71.3454C72.003 65.9185 72.6337 66.1797 73.0987 66.6447C73.5637 67.1097 73.8249 67.7404 73.8249 68.398C73.8249 69.0556 73.5637 69.6863 73.0987 70.1513C72.6337 70.6163 72.003 70.8776 71.3454 70.8776ZM81.2635 58.4799C81.2635 59.1375 81.0023 59.7682 80.5373 60.2332C80.0723 60.6982 79.4416 60.9594 78.784 60.9594H41.591C40.9334 60.9594 40.3027 60.6982 39.8377 60.2332C39.3727 59.7682 39.1115 59.1375 39.1115 58.4799C39.1115 57.8223 39.3727 57.1916 39.8377 56.7266C40.3027 56.2616 40.9334 56.0004 41.591 56.0004H78.784C79.4416 56.0004 80.0723 56.2616 80.5373 56.7266C81.0023 57.1916 81.2635 57.8223 81.2635 58.4799Z" fill="url(#paint3_linear_414_1128)"/>
</g>
<defs>
<linearGradient id="paint0_linear_414_1128" x1="99.076" y1="33.5085" x2="98.2246" y2="43.7618" gradientUnits="userSpaceOnUse">
<stop offset="0.1" stop-color="#5CFBD8"/>
<stop offset="0.49" stop-color="#2ED8EB"/>
<stop offset="0.93" stop-color="#00B6FF"/>
</linearGradient>
<linearGradient id="paint1_linear_414_1128" x1="90.9069" y1="70.6248" x2="69.7105" y2="101.399" gradientUnits="userSpaceOnUse">
<stop offset="0.1" stop-color="#5CFBD8"/>
<stop offset="0.49" stop-color="#2ED8EB"/>
<stop offset="0.93" stop-color="#00B6FF"/>
</linearGradient>
<linearGradient id="paint2_linear_414_1128" x1="98.76" y1="63.0169" x2="87.2109" y2="79.7912" gradientUnits="userSpaceOnUse">
<stop offset="0.1" stop-color="#5CFBD8"/>
<stop offset="0.49" stop-color="#2ED8EB"/>
<stop offset="0.93" stop-color="#00B6FF"/>
</linearGradient>
<linearGradient id="paint3_linear_414_1128" x1="99.3934" y1="31.5722" x2="45.157" y2="123.44" gradientUnits="userSpaceOnUse">
<stop offset="0.1" stop-color="#5CFBD8"/>
<stop offset="0.49" stop-color="#2ED8EB"/>
<stop offset="0.93" stop-color="#00B6FF"/>
</linearGradient>
<clipPath id="clip0_414_1128">
<rect width="128" height="128" rx="64" fill="white"/>
</clipPath>
</defs>
</svg>
