<svg width="150" height="150" viewBox="0 0 150 150" fill="none" xmlns="http://www.w3.org/2000/svg">
<g clip-path="url(#clip0_181_230)">
<rect width="149.555" height="149.555" rx="74.7773" fill="#212121"/>
<rect width="149.555" height="149.555" rx="74.7773" fill="url(#paint0_linear_181_230)"/>
<path d="M149.555 74.7767C149.555 116.075 116.076 149.554 74.7773 149.554C33.4789 149.554 0 116.075 0 74.7767C26.046 21.844 63.0146 108.384 98.3027 106.705C139.554 104.741 149.555 33.4783 149.555 74.7767Z" fill="white" fill-opacity="0.46"/>
<path d="M109.424 49.9591C109.424 48.6438 108.902 47.3825 107.972 46.4525C107.042 45.5225 105.781 45 104.465 45H68.2891L73.2481 49.9591H109.424Z" fill="#212121"/>
<path d="M82.1553 94.5918L79.6758 104.51L89.5939 102.03L101.471 90.1534L94.0323 82.7148L82.1553 94.5918Z" fill="#212121"/>
<path d="M104.173 74.7539C103.483 74.7533 102.799 74.8888 102.16 75.1525C101.522 75.4163 100.942 75.8032 100.454 76.2912L97.5527 79.1923L104.991 86.6309L107.892 83.7298C108.628 82.9946 109.13 82.0576 109.333 81.0373C109.536 80.017 109.432 78.9594 109.034 77.9983C108.636 77.0372 107.961 76.2159 107.096 75.6383C106.231 75.0608 105.213 74.753 104.173 74.7539Z" fill="#212121"/>
<path d="M70.4735 54.1991L61.2992 45H44.9591C43.6438 45 42.3825 45.5225 41.4525 46.4525C40.5225 47.3825 40 48.6438 40 49.9591V99.5497C40 100.865 40.5225 102.126 41.4525 103.056C42.3825 103.986 43.6438 104.509 44.9591 104.509H74.5647L77.6641 92.1111L97.0292 72.7956C98.9219 70.8946 101.488 69.8166 104.17 69.7953C106.03 69.7968 107.851 70.3209 109.427 71.3078V54.9181H72.2339C71.9076 54.92 71.5841 54.8575 71.282 54.7341C70.9799 54.6107 70.7051 54.4289 70.4735 54.1991ZM57.3567 49.9591C57.8471 49.9591 58.3265 50.1045 58.7343 50.3769C59.142 50.6494 59.4598 51.0366 59.6475 51.4897C59.8352 51.9428 59.8843 52.4413 59.7886 52.9223C59.6929 53.4033 59.4568 53.8451 59.11 54.1919C58.7633 54.5387 58.3214 54.7748 57.8405 54.8705C57.3595 54.9662 56.8609 54.9171 56.4079 54.7294C55.9548 54.5417 55.5675 54.2239 55.2951 53.8162C55.0226 53.4084 54.8772 52.929 54.8772 52.4386C54.8772 51.781 55.1384 51.1503 55.6034 50.6853C56.0684 50.2203 56.6991 49.9591 57.3567 49.9591ZM47.4386 54.9181C46.9482 54.9181 46.4688 54.7727 46.061 54.5003C45.6533 54.2278 45.3355 53.8405 45.1478 53.3875C44.9601 52.9344 44.911 52.4358 45.0067 51.9549C45.1024 51.4739 45.3385 51.0321 45.6853 50.6853C46.0321 50.3385 46.4739 50.1024 46.9549 50.0067C47.4358 49.911 47.9344 49.9601 48.3875 50.1478C48.8405 50.3355 49.2278 50.6533 49.5003 51.061C49.7727 51.4688 49.9181 51.9482 49.9181 52.4386C49.9181 53.0962 49.6569 53.7269 49.1919 54.1919C48.7269 54.6569 48.0962 54.9181 47.4386 54.9181ZM54.8772 92.1111H52.3977C51.74 92.1111 51.1094 91.8499 50.6444 91.3849C50.1794 90.9199 49.9181 90.2892 49.9181 89.6316C49.9181 88.974 50.1794 88.3433 50.6444 87.8783C51.1094 87.4133 51.74 87.152 52.3977 87.152H54.8772C55.5348 87.152 56.1655 87.4133 56.6305 87.8783C57.0955 88.3433 57.3567 88.974 57.3567 89.6316C57.3567 90.2892 57.0955 90.9199 56.6305 91.3849C56.1655 91.8499 55.5348 92.1111 54.8772 92.1111ZM49.9181 79.7135C49.9181 79.0558 50.1794 78.4252 50.6444 77.9602C51.1094 77.4952 51.74 77.2339 52.3977 77.2339H69.7544C70.412 77.2339 71.0427 77.4952 71.5077 77.9602C71.9727 78.4252 72.2339 79.0558 72.2339 79.7135C72.2339 80.3711 71.9727 81.0017 71.5077 81.4667C71.0427 81.9318 70.412 82.193 69.7544 82.193H52.3977C51.74 82.193 51.1094 81.9318 50.6444 81.4667C50.1794 81.0017 49.9181 80.3711 49.9181 79.7135ZM72.2339 92.1111H64.7953C64.1377 92.1111 63.507 91.8499 63.042 91.3849C62.577 90.9199 62.3158 90.2892 62.3158 89.6316C62.3158 88.974 62.577 88.3433 63.042 87.8783C63.507 87.4133 64.1377 87.152 64.7953 87.152H72.2339C72.8915 87.152 73.5222 87.4133 73.9872 87.8783C74.4522 88.3433 74.7135 88.974 74.7135 89.6316C74.7135 90.2892 74.4522 90.9199 73.9872 91.3849C73.5222 91.8499 72.8915 92.1111 72.2339 92.1111ZM82.1521 82.193H79.6725C79.0149 82.193 78.3842 81.9318 77.9192 81.4667C77.4542 81.0017 77.193 80.3711 77.193 79.7135C77.193 79.0558 77.4542 78.4252 77.9192 77.9602C78.3842 77.4952 79.0149 77.2339 79.6725 77.2339H82.1521C82.8097 77.2339 83.4403 77.4952 83.9053 77.9602C84.3703 78.4252 84.6316 79.0558 84.6316 79.7135C84.6316 80.3711 84.3703 81.0017 83.9053 81.4667C83.4403 81.9318 82.8097 82.193 82.1521 82.193ZM92.0702 69.7953C92.0702 70.4529 91.8089 71.0836 91.3439 71.5486C90.8789 72.0136 90.2483 72.2749 89.5906 72.2749H52.3977C51.74 72.2749 51.1094 72.0136 50.6444 71.5486C50.1794 71.0836 49.9181 70.4529 49.9181 69.7953C49.9181 69.1377 50.1794 68.507 50.6444 68.042C51.1094 67.577 51.74 67.3158 52.3977 67.3158H89.5906C90.2483 67.3158 90.8789 67.577 91.3439 68.042C91.8089 68.507 92.0702 69.1377 92.0702 69.7953Z" fill="#212121"/>
</g>
<defs>
<linearGradient id="paint0_linear_181_230" x1="115.446" y1="-61.6913" x2="93.6181" y2="167.093" gradientUnits="userSpaceOnUse">
<stop stop-color="#5CFBD8"/>
<stop offset="0.49" stop-color="#2ED8EB"/>
<stop offset="1" stop-color="#00B6FF"/>
</linearGradient>
<clipPath id="clip0_181_230">
<rect width="149.555" height="149.555" rx="74.7773" fill="white"/>
</clipPath>
</defs>
</svg>
