<svg width="128" height="128" viewBox="0 0 128 128" fill="none" xmlns="http://www.w3.org/2000/svg">
<mask id="mask0_514_66" style="mask-type:luminance" maskUnits="userSpaceOnUse" x="0" y="0" width="128" height="128">
<path d="M63.7352 0H63.7348C28.5351 0 0 28.5351 0 63.7348V63.7352C0 98.935 28.5351 127.47 63.7348 127.47H63.7352C98.935 127.47 127.47 98.935 127.47 63.7352V63.7348C127.47 28.5351 98.935 0 63.7352 0Z" fill="white"/>
</mask>
<g mask="url(#mask0_514_66)">
<path d="M63.7352 0H63.7348C28.5351 0 0 28.5351 0 63.7348V63.7352C0 98.935 28.5351 127.47 63.7348 127.47H63.7352C98.935 127.47 127.47 98.935 127.47 63.7352V63.7348C127.47 28.5351 98.935 0 63.7352 0Z" fill="#212121"/>
<path d="M63.7352 0H63.7348C28.5351 0 0 28.5351 0 63.7348V63.7352C0 98.935 28.5351 127.47 63.7348 127.47H63.7352C98.935 127.47 127.47 98.935 127.47 63.7352V63.7348C127.47 28.5351 98.935 0 63.7352 0Z" fill="url(#paint0_linear_514_66)"/>
<path d="M127.47 63.7341C127.47 98.9338 98.9349 127.469 63.7348 127.469C28.535 127.469 0 98.9338 0 63.7341C22.1998 18.618 53.7091 92.3785 83.7862 90.9475C118.946 89.2735 127.47 28.5343 127.47 63.7341Z" fill="white" fill-opacity="0.46"/>
</g>
<path d="M76.1158 42.8316H78.0737V44.7895H76.1158V42.8316ZM51.6421 44.7895H53.6V42.8316H51.6421V44.7895ZM64.3684 42.8316C63.7811 42.8316 63.3895 43.2232 63.3895 43.8105C63.3895 44.3979 63.7811 44.7895 64.3684 44.7895C64.9558 44.7895 65.3474 44.3979 65.3474 43.8105C65.3474 43.2232 64.9558 42.8316 64.3684 42.8316ZM52.6211 55.5579H51.6421V57.5158H53.6V55.5579H52.6211ZM77.0947 55.5579H75.1368V57.5158H77.0947V55.5579ZM67.3053 66.3263H61.4316C60.8442 66.3263 60.4526 66.7179 60.4526 67.3053C60.4526 67.8926 60.8442 68.2842 61.4316 68.2842H67.3053C67.8926 68.2842 68.2842 67.8926 68.2842 67.3053C68.2842 66.7179 67.8926 66.3263 67.3053 66.3263ZM65.3474 56.7326C66.5221 57.1242 67.3053 58.2011 67.3053 59.4737C67.3053 61.1379 66.0326 62.4105 64.3684 62.4105C62.7042 62.4105 61.4316 61.1379 61.4316 59.4737C61.4316 58.2011 62.2147 57.1242 63.3895 56.7326V51.9358L58.5926 56.2432L60.8442 64.4663H67.7947L70.0463 56.2432L65.3474 51.8379V56.7326ZM64.3684 60.4526C64.9558 60.4526 65.3474 60.0611 65.3474 59.4737C65.3474 58.8863 64.9558 58.4947 64.3684 58.4947C63.7811 58.4947 63.3895 58.8863 63.3895 59.4737C63.3895 60.0611 63.7811 60.4526 64.3684 60.4526ZM93.7368 37.9368V73.1789H35V37.9368C35 36.2726 36.2726 35 37.9368 35H90.8C92.4642 35 93.7368 36.2726 93.7368 37.9368ZM71.9063 55.1663L65.0537 48.9989C64.6621 48.7053 64.0747 48.7053 63.7811 48.9989L56.9284 55.1663C56.6347 55.46 56.5368 55.7537 56.6347 56.1453L59.18 65.4453C58.7884 65.9347 58.4947 66.62 58.4947 67.3053C58.4947 68.9695 59.7674 70.2421 61.4316 70.2421H67.3053C68.9695 70.2421 70.2421 68.9695 70.2421 67.3053C70.2421 66.62 69.9484 65.9347 69.5568 65.4453L72.1021 56.1453C72.2979 55.7537 72.2 55.3621 71.9063 55.1663ZM80.0316 41.8526C80.0316 41.2653 79.64 40.8737 79.0526 40.8737H75.1368C74.5495 40.8737 74.1579 41.2653 74.1579 41.8526V42.8316H67.3053C67.2074 42.8316 67.2074 42.8316 67.1095 42.8316C66.7179 41.6568 65.6411 40.8737 64.3684 40.8737C63.0958 40.8737 62.0189 41.6568 61.6274 42.8316H55.5579V41.8526C55.5579 41.2653 55.1663 40.8737 54.5789 40.8737H50.6632C50.0758 40.8737 49.6842 41.2653 49.6842 41.8526V45.7684C49.6842 46.3558 50.0758 46.7474 50.6632 46.7474H54.5789C55.1663 46.7474 55.5579 46.3558 55.5579 45.7684V44.7895H61.6274C61.8232 45.1811 62.0189 45.5726 62.3126 45.9642C57.7116 46.6495 53.8937 49.5863 51.9358 53.6H50.6632C50.0758 53.6 49.6842 53.9916 49.6842 54.5789V58.4947C49.6842 59.0821 50.0758 59.4737 50.6632 59.4737H54.5789C55.1663 59.4737 55.5579 59.0821 55.5579 58.4947V54.5789C55.5579 53.9916 55.1663 53.6 54.5789 53.6H54.1874C56.2432 50.0758 60.0611 47.7263 64.3684 47.7263C68.6758 47.7263 72.4937 50.0758 74.5495 53.6H74.1579C73.5705 53.6 73.1789 53.9916 73.1789 54.5789V58.4947C73.1789 59.0821 73.5705 59.4737 74.1579 59.4737H78.0737C78.6611 59.4737 79.0526 59.0821 79.0526 58.4947V54.5789C79.0526 53.9916 78.6611 53.6 78.0737 53.6H76.8011C74.8432 49.5863 71.0253 46.6495 66.4242 45.9642C66.7179 45.6705 67.0116 45.2789 67.1095 44.7895C67.2074 44.7895 67.2074 44.7895 67.3053 44.7895H74.1579V45.7684C74.1579 46.3558 74.5495 46.7474 75.1368 46.7474H79.0526C79.64 46.7474 80.0316 46.3558 80.0316 45.7684V41.8526ZM35 80.0316C35 81.6958 36.2726 82.9684 37.9368 82.9684H60.1589L58.7884 87.8632H54.5789C52.9147 87.8632 51.6421 89.1358 51.6421 90.8V92.7579C51.6421 93.3453 52.0337 93.7368 52.6211 93.7368H77.0947C77.6821 93.7368 78.0737 93.3453 78.0737 92.7579V90.8C78.0737 89.1358 76.8011 87.8632 75.1368 87.8632H71.0253L69.6547 82.9684H90.8C92.4642 82.9684 93.7368 81.6958 93.7368 80.0316V75.1368H35V80.0316Z" fill="black"/>
<defs>
<linearGradient id="paint0_linear_514_66" x1="98.3979" y1="-52.5813" x2="79.7934" y2="142.418" gradientUnits="userSpaceOnUse">
<stop stop-color="#5CFBD8"/>
<stop offset="0.49" stop-color="#2ED8EB"/>
<stop offset="1" stop-color="#00B6FF"/>
</linearGradient>
</defs>
</svg>
