<svg width="124" height="124" viewBox="0 0 124 124" fill="none" xmlns="http://www.w3.org/2000/svg">
<g clip-path="url(#clip0_414_563)">
<rect width="124" height="124" rx="62" fill="#212121"/>
<path opacity="0.06" d="M124 61.9999C124 96.2415 96.2417 124 62 124C27.7583 124 0 96.2415 0 61.9999C21.5955 18.1119 52.2472 89.8647 81.5056 88.4722C115.709 86.8444 124 27.7582 124 61.9999Z" fill="white"/>
<path d="M73.7476 40.4634H75.7055V42.4213H73.7476V40.4634ZM49.2739 42.4213H51.2318V40.4634H49.2739V42.4213ZM62.0003 40.4634C61.4129 40.4634 61.0213 40.855 61.0213 41.4424C61.0213 42.0297 61.4129 42.4213 62.0003 42.4213C62.5876 42.4213 62.9792 42.0297 62.9792 41.4424C62.9792 40.855 62.5876 40.4634 62.0003 40.4634ZM50.2529 53.1897H49.2739V55.1476H51.2318V53.1897H50.2529ZM74.7266 53.1897H72.7687V55.1476H74.7266V53.1897ZM64.9371 63.9582H59.0634C58.476 63.9582 58.0845 64.3497 58.0845 64.9371C58.0845 65.5245 58.476 65.916 59.0634 65.916H64.9371C65.5245 65.916 65.916 65.5245 65.916 64.9371C65.916 64.3497 65.5245 63.9582 64.9371 63.9582ZM62.9792 54.3645C64.1539 54.756 64.9371 55.8329 64.9371 57.1055C64.9371 58.7697 63.6645 60.0424 62.0003 60.0424C60.336 60.0424 59.0634 58.7697 59.0634 57.1055C59.0634 55.8329 59.8466 54.756 61.0213 54.3645V49.5676L56.2245 53.875L58.476 62.0982H65.4266L67.6782 53.875L62.9792 49.4697V54.3645ZM62.0003 58.0845C62.5876 58.0845 62.9792 57.6929 62.9792 57.1055C62.9792 56.5182 62.5876 56.1266 62.0003 56.1266C61.4129 56.1266 61.0213 56.5182 61.0213 57.1055C61.0213 57.6929 61.4129 58.0845 62.0003 58.0845ZM91.3687 35.5687V70.8108H32.6318V35.5687C32.6318 33.9045 33.9045 32.6318 35.5687 32.6318H88.4318C90.0961 32.6318 91.3687 33.9045 91.3687 35.5687ZM69.5382 52.7982L62.6855 46.6308C62.2939 46.3371 61.7066 46.3371 61.4129 46.6308L54.5603 52.7982C54.2666 53.0918 54.1687 53.3855 54.2666 53.7771L56.8118 63.0771C56.4203 63.5666 56.1266 64.2518 56.1266 64.9371C56.1266 66.6013 57.3992 67.8739 59.0634 67.8739H64.9371C66.6013 67.8739 67.8739 66.6013 67.8739 64.9371C67.8739 64.2518 67.5803 63.5666 67.1887 63.0771L69.7339 53.7771C69.9297 53.3855 69.8318 52.9939 69.5382 52.7982ZM77.6634 39.4845C77.6634 38.8971 77.2718 38.5055 76.6845 38.5055H72.7687C72.1813 38.5055 71.7897 38.8971 71.7897 39.4845V40.4634H64.9371C64.8392 40.4634 64.8392 40.4634 64.7413 40.4634C64.3497 39.2887 63.2729 38.5055 62.0003 38.5055C60.7276 38.5055 59.6508 39.2887 59.2592 40.4634H53.1897V39.4845C53.1897 38.8971 52.7982 38.5055 52.2108 38.5055H48.295C47.7076 38.5055 47.316 38.8971 47.316 39.4845V43.4003C47.316 43.9876 47.7076 44.3792 48.295 44.3792H52.2108C52.7982 44.3792 53.1897 43.9876 53.1897 43.4003V42.4213H59.2592C59.455 42.8129 59.6508 43.2045 59.9445 43.596C55.3434 44.2813 51.5255 47.2182 49.5676 51.2318H48.295C47.7076 51.2318 47.316 51.6234 47.316 52.2108V56.1266C47.316 56.7139 47.7076 57.1055 48.295 57.1055H52.2108C52.7982 57.1055 53.1897 56.7139 53.1897 56.1266V52.2108C53.1897 51.6234 52.7982 51.2318 52.2108 51.2318H51.8192C53.875 47.7076 57.6929 45.3582 62.0003 45.3582C66.3076 45.3582 70.1255 47.7076 72.1813 51.2318H71.7897C71.2024 51.2318 70.8108 51.6234 70.8108 52.2108V56.1266C70.8108 56.7139 71.2024 57.1055 71.7897 57.1055H75.7055C76.2929 57.1055 76.6845 56.7139 76.6845 56.1266V52.2108C76.6845 51.6234 76.2929 51.2318 75.7055 51.2318H74.4329C72.475 47.2182 68.6571 44.2813 64.056 43.596C64.3497 43.3024 64.6434 42.9108 64.7413 42.4213C64.8392 42.4213 64.8392 42.4213 64.9371 42.4213H71.7897V43.4003C71.7897 43.9876 72.1813 44.3792 72.7687 44.3792H76.6845C77.2718 44.3792 77.6634 43.9876 77.6634 43.4003V39.4845ZM32.6318 77.6634C32.6318 79.3276 33.9045 80.6003 35.5687 80.6003H57.7908L56.4203 85.495H52.2108C50.5466 85.495 49.2739 86.7676 49.2739 88.4318V90.3897C49.2739 90.9771 49.6655 91.3687 50.2529 91.3687H74.7266C75.3139 91.3687 75.7055 90.9771 75.7055 90.3897V88.4318C75.7055 86.7676 74.4329 85.495 72.7687 85.495H68.6571L67.2866 80.6003H88.4318C90.0961 80.6003 91.3687 79.3276 91.3687 77.6634V72.7687H32.6318V77.6634Z" fill="url(#paint0_linear_414_563)"/>
</g>
<defs>
<linearGradient id="paint0_linear_414_563" x1="92.0228" y1="30.5468" x2="34.8992" y2="113.483" gradientUnits="userSpaceOnUse">
<stop offset="0.1" stop-color="#5CFBD8"/>
<stop offset="0.49" stop-color="#2ED8EB"/>
<stop offset="0.93" stop-color="#00B6FF"/>
</linearGradient>
<clipPath id="clip0_414_563">
<rect width="124" height="124" rx="62" fill="white"/>
</clipPath>
</defs>
</svg>
