<svg width="124" height="124" viewBox="0 0 124 124" fill="none" xmlns="http://www.w3.org/2000/svg">
<g clip-path="url(#clip0_414_576)">
<rect width="123.732" height="123.732" rx="61.8659" fill="#212121"/>
<path opacity="0.06" d="M123.732 61.8656C123.732 96.0331 96.0334 123.731 61.8659 123.731C27.6983 123.731 0 96.0331 0 61.8656C21.5488 18.0725 52.1341 89.6701 81.3293 88.2806C115.458 86.6563 123.732 27.698 123.732 61.8656Z" fill="white"/>
<path d="M93.9545 32.0205H63.6316C61.9574 32.0205 60.5938 33.3842 60.5938 35.0583V46.8549C60.5938 48.529 61.9574 49.8927 63.6316 49.8927H64.6072V51.7443C64.6072 52.2542 64.8733 52.7199 65.3168 52.986C65.8046 53.2521 66.3701 53.2188 66.7803 52.986L71.9579 49.8927H93.9545C95.6396 49.8927 97.0034 48.529 97.0034 46.8549V35.0583C97.0034 33.3842 95.6396 32.0205 93.9545 32.0205ZM69.9512 42.8414C68.9201 42.8414 68.0775 41.9988 68.0775 40.9566C68.0775 39.9255 68.9201 39.0829 69.9512 39.0829C70.9933 39.0829 71.836 39.9255 71.836 40.9566C71.836 41.9988 70.9933 42.8414 69.9512 42.8414ZM78.9316 42.8414C77.8894 42.8414 77.0468 41.9988 77.0468 40.9566C77.0468 39.9255 77.8894 39.0829 78.9316 39.0829C79.9627 39.0829 80.8053 39.9255 80.8053 40.9566C80.8053 41.9988 79.9627 42.8414 78.9316 42.8414ZM87.901 42.8414C86.8699 42.8414 86.0273 41.9988 86.0273 40.9566C86.0273 39.9255 86.8699 39.0829 87.901 39.0829C88.9431 39.0829 89.7858 39.9255 89.7858 40.9566C89.7858 41.9988 88.9431 42.8414 87.901 42.8414Z" fill="url(#paint0_linear_414_576)"/>
<path d="M94.3277 73.7393H66.4883C65.0137 73.7393 63.8164 74.9367 63.8164 76.4113V87.4649C63.8164 88.9395 65.0138 90.1369 66.4883 90.1369H86.5668L91.689 93.1858C91.8553 93.2856 92.0549 93.341 92.2544 93.341C92.443 93.341 92.6314 93.2967 92.7977 93.1969C93.1525 92.9973 93.3631 92.6315 93.3631 92.2323V90.1369H94.3277C95.8023 90.1369 97.0108 88.9395 97.0108 87.4649V76.4113C97.0108 74.9367 95.8023 73.7393 94.3277 73.7393ZM89.2166 85.5801H71.5994C70.9896 85.5801 70.4907 85.0812 70.4907 84.4714C70.4907 83.8506 70.9896 83.3627 71.5994 83.3627H89.2166C89.8375 83.3627 90.3253 83.8506 90.3253 84.4714C90.3253 85.0812 89.8375 85.5801 89.2166 85.5801ZM89.2166 80.6575H71.5994C70.9896 80.6575 70.4907 80.1697 70.4907 79.5488C70.4907 78.939 70.9896 78.4401 71.5994 78.4401H89.2166C89.8375 78.4401 90.3253 78.939 90.3253 79.5488C90.3253 80.1697 89.8375 80.6575 89.2166 80.6575Z" fill="url(#paint1_linear_414_576)"/>
<path d="M37.2566 40.7079C36.8464 40.9185 36.5359 41.2068 36.2809 41.6059C36.0371 41.9939 35.915 42.4707 35.915 43.0251C35.915 43.6348 36.0703 44.0672 36.3807 44.3555C36.7022 44.6548 37.1235 44.799 37.6557 44.799C38.9861 44.799 39.729 44.0783 39.995 42.515L40.2612 40.985C39.8066 40.597 39.2522 40.3975 38.5759 40.3975C38.1103 40.3975 37.6668 40.4972 37.2566 40.7079Z" fill="url(#paint2_linear_414_576)"/>
<path d="M38.2555 30.3906C31.5258 30.3906 26.0488 35.8676 26.0488 42.5974C26.0488 49.3271 31.5258 54.8041 38.2555 54.8041C38.5992 54.8041 38.954 54.793 39.2645 54.7598C40.3177 54.671 41.3709 54.4494 42.391 54.0835C44.1538 53.4515 45.7836 52.3871 47.0697 51.0345C47.0697 51.0234 47.0808 51.0124 47.0808 51.0124C47.103 50.9902 47.1141 50.9791 47.1362 50.968C49.276 48.6952 50.4512 45.7238 50.4512 42.5974C50.4512 35.8676 44.9742 30.3906 38.2555 30.3906ZM45.9713 44.233C45.7052 44.998 45.2728 45.63 44.7073 46.1289C44.1087 46.65 43.3437 46.916 42.4456 46.916C41.725 46.916 41.1485 46.7387 40.7272 46.4061C40.5165 46.2398 40.3391 46.0513 40.206 45.8517C39.8845 46.14 39.5186 46.3728 39.1195 46.5502C38.532 46.8052 37.9 46.9271 37.2458 46.9271C34.9456 46.9271 33.6426 45.326 33.6426 43.213C33.6426 38.8905 38.1554 37.1644 40.6717 38.878C40.7272 38.7561 40.8159 38.6452 40.9267 38.5565C41.3702 38.1796 42.0354 38.2017 42.4345 38.6008C42.6452 38.8115 42.7561 39.0887 42.7561 39.3991L42.7339 39.643L42.1019 43.2463C42.0243 43.6787 41.98 44.0668 41.98 44.3883C41.98 44.6654 42.0354 44.8761 42.1462 45.0313C42.2017 45.1089 42.2904 45.1976 42.501 45.1976C43.1441 45.1976 43.5986 44.9426 43.9424 44.3772C44.3193 43.7785 44.5078 42.9248 44.5078 41.8604C44.5078 40.7961 44.2417 39.8758 43.7096 39.1219C43.1663 38.3569 42.4456 37.7693 41.5698 37.3702C37.0175 35.3269 32.2124 38.829 32.2124 43.3572C32.2124 45.9144 34.0699 48.446 37.4122 48.446C38.1439 48.446 38.7758 48.3795 39.308 48.2465C39.8513 48.1024 40.4832 47.8917 41.1817 47.6145C41.6474 47.4594 41.9356 47.5591 42.1795 47.792C42.3459 47.9693 42.4345 48.18 42.4345 48.4128C42.4345 48.5791 42.3902 48.7343 42.2904 48.8785C42.2017 49.0337 42.0908 49.1445 41.9467 49.2111C40.5608 49.9095 39.0419 50.2532 37.4122 50.2532C33.1566 50.2532 30.4052 46.995 30.4052 43.3572C30.4052 38.797 34.2808 34.9421 38.7869 34.9421C40.1395 34.9421 41.4034 35.2415 42.5565 35.8291C43.7095 36.4167 44.6408 37.2371 45.3172 38.2793C46.0046 39.3215 46.3593 40.53 46.3593 41.8604C46.3593 42.6919 46.2263 43.4902 45.9713 44.233Z" fill="url(#paint3_linear_414_576)"/>
<path d="M71.3692 65.7816L77.1122 71.5246H84.2743V52.8874L71.3692 65.7816ZM72.5665 52.1113L67.9211 54.8942C66.7126 55.5705 65.3156 55.5372 64.2402 54.9275C63.1204 54.2622 62.4663 53.1757 62.3998 51.9672C61.8787 51.8452 61.3798 51.6346 60.9252 51.3574H49.7052C48.5854 52.832 47.1774 54.0848 45.5587 55.0161L62.2778 71.7464L69.0187 64.9944L81.9018 52.1113H72.5665ZM43.4411 56.0473C43.3413 56.0916 43.2304 56.1359 43.1306 56.1692C42.1882 56.5129 41.2347 56.7457 40.2812 56.8788V78.6868L53.1754 65.7816L43.4411 56.0473ZM69.8059 67.3448L65.5374 71.6133C65.8478 71.5579 66.1583 71.5246 66.4798 71.5246H73.9746L69.8059 67.3448ZM61.4906 74.0968L54.7497 67.3448L41.8889 80.2057H61.5904V76.414C61.5904 75.6933 61.7456 75.0059 62.0339 74.3851C61.8343 74.3407 61.6459 74.252 61.4906 74.0968Z" fill="url(#paint4_linear_414_576)"/>
</g>
<defs>
<linearGradient id="paint0_linear_414_576" x1="97.4088" y1="31.2696" x2="82.2196" y2="69.2284" gradientUnits="userSpaceOnUse">
<stop offset="0.1" stop-color="#5CFBD8"/>
<stop offset="0.49" stop-color="#2ED8EB"/>
<stop offset="0.93" stop-color="#00B6FF"/>
</linearGradient>
<linearGradient id="paint1_linear_414_576" x1="97.3805" y1="73.0435" x2="83.1388" y2="108.059" gradientUnits="userSpaceOnUse">
<stop offset="0.1" stop-color="#5CFBD8"/>
<stop offset="0.49" stop-color="#2ED8EB"/>
<stop offset="0.93" stop-color="#00B6FF"/>
</linearGradient>
<linearGradient id="paint2_linear_414_576" x1="40.3096" y1="40.2412" x2="36.0099" y2="46.4052" gradientUnits="userSpaceOnUse">
<stop offset="0.1" stop-color="#5CFBD8"/>
<stop offset="0.49" stop-color="#2ED8EB"/>
<stop offset="0.93" stop-color="#00B6FF"/>
</linearGradient>
<linearGradient id="paint3_linear_414_576" x1="50.7229" y1="29.524" x2="26.9762" y2="63.9855" gradientUnits="userSpaceOnUse">
<stop offset="0.1" stop-color="#5CFBD8"/>
<stop offset="0.49" stop-color="#2ED8EB"/>
<stop offset="0.93" stop-color="#00B6FF"/>
</linearGradient>
<linearGradient id="paint4_linear_414_576" x1="84.7642" y1="50.3334" x2="62.2347" y2="100.215" gradientUnits="userSpaceOnUse">
<stop offset="0.1" stop-color="#5CFBD8"/>
<stop offset="0.49" stop-color="#2ED8EB"/>
<stop offset="0.93" stop-color="#00B6FF"/>
</linearGradient>
<clipPath id="clip0_414_576">
<rect width="123.732" height="123.732" rx="61.8659" fill="white"/>
</clipPath>
</defs>
</svg>
