<svg width="128" height="128" viewBox="0 0 128 128" fill="none" xmlns="http://www.w3.org/2000/svg">
<mask id="mask0_514_69" style="mask-type:luminance" maskUnits="userSpaceOnUse" x="0" y="0" width="128" height="128">
<path d="M63.7352 0H63.7348C28.5351 0 0 28.5351 0 63.7348V63.7352C0 98.935 28.5351 127.47 63.7348 127.47H63.7352C98.935 127.47 127.47 98.935 127.47 63.7352V63.7348C127.47 28.5351 98.935 0 63.7352 0Z" fill="white"/>
</mask>
<g mask="url(#mask0_514_69)">
<path d="M63.7352 0H63.7348C28.5351 0 0 28.5351 0 63.7348V63.7352C0 98.935 28.5351 127.47 63.7348 127.47H63.7352C98.935 127.47 127.47 98.935 127.47 63.7352V63.7348C127.47 28.5351 98.935 0 63.7352 0Z" fill="#212121"/>
<path d="M63.7352 0H63.7348C28.5351 0 0 28.5351 0 63.7348V63.7352C0 98.935 28.5351 127.47 63.7348 127.47H63.7352C98.935 127.47 127.47 98.935 127.47 63.7352V63.7348C127.47 28.5351 98.935 0 63.7352 0Z" fill="url(#paint0_linear_514_69)"/>
<path d="M127.47 63.7341C127.47 98.9338 98.9349 127.469 63.7348 127.469C28.535 127.469 0 98.9338 0 63.7341C22.1998 18.618 53.7091 92.3785 83.7862 90.9475C118.946 89.2735 127.47 28.5343 127.47 63.7341Z" fill="white" fill-opacity="0.46"/>
</g>
<path d="M96.9056 39.6299H66.5827C64.9086 39.6299 63.5449 40.9936 63.5449 42.6677V54.4642C63.5449 56.1384 64.9086 57.5021 66.5827 57.5021H67.5584V59.3536C67.5584 59.8636 67.8245 60.3293 68.268 60.5954C68.7558 60.8614 69.3212 60.8282 69.7315 60.5954L74.9091 57.5021H96.9056C98.5908 57.5021 99.9545 56.1384 99.9545 54.4642V42.6677C99.9546 40.9936 98.5908 39.6299 96.9056 39.6299ZM72.9023 50.4508C71.8713 50.4508 71.0286 49.6082 71.0286 48.566C71.0286 47.5349 71.8713 46.6923 72.9023 46.6923C73.9445 46.6923 74.7871 47.5349 74.7871 48.566C74.7871 49.6082 73.9445 50.4508 72.9023 50.4508ZM81.8827 50.4508C80.8406 50.4508 79.998 49.6082 79.998 48.566C79.998 47.5349 80.8406 46.6923 81.8827 46.6923C82.9139 46.6923 83.7564 47.5349 83.7564 48.566C83.7564 49.6082 82.9139 50.4508 81.8827 50.4508ZM90.8521 50.4508C89.8211 50.4508 88.9784 49.6082 88.9784 48.566C88.9784 47.5349 89.8211 46.6923 90.8521 46.6923C91.8943 46.6923 92.7369 47.5349 92.7369 48.566C92.7369 49.6082 91.8943 50.4508 90.8521 50.4508Z" fill="black"/>
<path d="M97.2789 81.3486H69.4395C67.9649 81.3486 66.7676 82.546 66.7676 84.0206V95.0743C66.7676 96.5489 67.9649 97.7463 69.4395 97.7463H89.518L94.6402 100.795C94.8065 100.895 95.0061 100.95 95.2056 100.95C95.3941 100.95 95.5826 100.906 95.7489 100.806C96.1037 100.607 96.3143 100.241 96.3143 99.8417V97.7463H97.2789C98.7535 97.7463 99.962 96.5489 99.962 95.0743V84.0206C99.962 82.546 98.7534 81.3486 97.2789 81.3486ZM92.1678 93.1895H74.5506C73.9408 93.1895 73.4419 92.6906 73.4419 92.0808C73.4419 91.4599 73.9408 90.9721 74.5506 90.9721H92.1678C92.7887 90.9721 93.2765 91.4599 93.2765 92.0808C93.2765 92.6906 92.7887 93.1895 92.1678 93.1895ZM92.1678 88.2669H74.5506C73.9408 88.2669 73.4419 87.7791 73.4419 87.1582C73.4419 86.5484 73.9408 86.0495 74.5506 86.0495H92.1678C92.7887 86.0495 93.2765 86.5484 93.2765 87.1582C93.2765 87.7791 92.7887 88.2669 92.1678 88.2669Z" fill="black"/>
<path d="M40.2078 48.3172C39.7975 48.5279 39.4871 48.8162 39.2321 49.2153C38.9882 49.6033 38.8662 50.0801 38.8662 50.6344C38.8662 51.2442 39.0214 51.6766 39.3319 51.9648C39.6534 52.2642 40.0747 52.4083 40.6069 52.4083C41.9373 52.4083 42.6801 51.6877 42.9462 50.1244L43.2123 48.5944C42.7577 48.2064 42.2034 48.0068 41.5271 48.0068C41.0615 48.0068 40.618 48.1066 40.2078 48.3172Z" fill="black"/>
<path d="M41.2067 38C34.477 38 29 43.477 29 50.2068C29 56.9365 34.477 62.4135 41.2067 62.4135C41.5504 62.4135 41.9052 62.4024 42.2156 62.3691C43.2689 62.2804 44.3221 62.0587 45.3422 61.6928C47.105 61.0609 48.7348 59.9965 50.0208 58.6439C50.0208 58.6328 50.0319 58.6217 50.0319 58.6217C50.0541 58.5995 50.0652 58.5885 50.0874 58.5774C52.2271 56.3046 53.4024 53.3332 53.4024 50.2068C53.4024 43.477 47.9254 38 41.2067 38ZM48.9224 51.8424C48.6564 52.6074 48.224 53.2394 47.6585 53.7383C47.0598 54.2593 46.2948 54.5254 45.3968 54.5254C44.6762 54.5254 44.0996 54.3481 43.6783 54.0155C43.4677 53.8491 43.2903 53.6607 43.1572 53.4611C42.8357 53.7494 42.4698 53.9822 42.0707 54.1596C41.4831 54.4146 40.8512 54.5365 40.197 54.5365C37.8968 54.5365 36.5937 52.9353 36.5937 50.8224C36.5937 46.4999 41.1066 44.7738 43.6229 46.4874C43.6783 46.3654 43.767 46.2546 43.8779 46.1659C44.3214 45.7889 44.9866 45.8111 45.3857 46.2102C45.5964 46.4209 45.7073 46.698 45.7073 47.0085L45.6851 47.2524L45.0531 50.8556C44.9755 51.288 44.9312 51.6761 44.9312 51.9976C44.9312 52.2748 44.9866 52.4855 45.0974 52.6407C45.1529 52.7183 45.2416 52.807 45.4522 52.807C46.0953 52.807 46.5498 52.552 46.8936 51.9865C47.2705 51.3879 47.459 50.5341 47.459 49.4698C47.459 48.4055 47.1929 47.4852 46.6607 46.7313C46.1175 45.9663 45.3968 45.3787 44.521 44.9796C39.9687 42.9363 35.1636 46.4384 35.1636 50.9665C35.1636 53.5238 37.021 56.0554 40.3633 56.0554C41.095 56.0554 41.727 55.9889 42.2592 55.8559C42.8025 55.7117 43.4344 55.5011 44.1329 55.2239C44.5986 55.0687 44.8868 55.1685 45.1307 55.4013C45.297 55.5787 45.3857 55.7893 45.3857 56.0222C45.3857 56.1885 45.3414 56.3437 45.2416 56.4878C45.1529 56.6431 45.042 56.7539 44.8979 56.8204C43.512 57.5189 41.9931 57.8626 40.3633 57.8626C36.1078 57.8626 33.3564 54.6043 33.3564 50.9665C33.3564 46.4064 37.232 42.5515 41.7381 42.5515C43.0907 42.5515 44.3546 42.8509 45.5077 43.4384C46.6607 44.0261 47.592 44.8465 48.2683 45.8887C48.9557 46.9309 49.3105 48.1394 49.3105 49.4698C49.3105 50.3013 49.1775 51.0996 48.9224 51.8424Z" fill="black"/>
<path d="M74.3203 73.3909L80.0634 79.134H87.2255V60.4968L74.3203 73.3909ZM75.5177 59.7207L70.8722 62.5035C69.6638 63.1798 68.2668 63.1466 67.1913 62.5368C66.0716 61.8716 65.4175 60.7851 65.3509 59.5766C64.8298 59.4546 64.331 59.244 63.8764 58.9668H52.6563C51.5365 60.4414 50.1285 61.6942 48.5098 62.6255L65.229 79.3557L71.9698 72.6038L84.8529 59.7207H75.5177ZM46.3923 63.6566C46.2924 63.701 46.1816 63.7453 46.0818 63.7786C45.1394 64.1223 44.1859 64.3551 43.2324 64.4881V86.2962L56.1266 73.391L46.3923 63.6566ZM72.757 74.9542L68.4886 79.2227C68.799 79.1673 69.1094 79.134 69.4309 79.134H76.9257L72.757 74.9542ZM64.4418 81.7062L57.7009 74.9542L44.8401 87.8151H64.5416V84.0234C64.5416 83.3027 64.6968 82.6153 64.9851 81.9944C64.7855 81.9501 64.597 81.8614 64.4418 81.7062Z" fill="black"/>
<defs>
<linearGradient id="paint0_linear_514_69" x1="98.3979" y1="-52.5813" x2="79.7934" y2="142.418" gradientUnits="userSpaceOnUse">
<stop stop-color="#5CFBD8"/>
<stop offset="0.49" stop-color="#2ED8EB"/>
<stop offset="1" stop-color="#00B6FF"/>
</linearGradient>
</defs>
</svg>
