<svg width="150" height="150" viewBox="0 0 150 150" fill="none" xmlns="http://www.w3.org/2000/svg">
<g clip-path="url(#clip0_176_208)">
<rect width="149.555" height="149.555" rx="74.7773" fill="#212121"/>
<rect width="149.555" height="149.555" rx="74.7773" fill="url(#paint0_linear_176_208)"/>
<path d="M149.555 74.7767C149.555 116.075 116.076 149.554 74.7773 149.554C33.4789 149.554 0 116.075 0 74.7767C26.046 21.844 63.0146 108.384 98.3027 106.705C139.554 104.741 149.555 33.4783 149.555 74.7767Z" fill="white" fill-opacity="0.46"/>
</g>
<path fill-rule="evenodd" clip-rule="evenodd" d="M91 65H79V57C79 55.9391 79.4214 54.9217 80.1716 54.1716C80.9217 53.4214 81.9391 53 83 53H87V43H79C75.8174 43 72.7652 44.2643 70.5147 46.5147C68.2643 48.7652 67 51.8174 67 55V65H59V75H67V107H79V75H87L91 65Z" fill="#212121"/>
<defs>
<linearGradient id="paint0_linear_176_208" x1="115.446" y1="-61.6913" x2="93.6181" y2="167.093" gradientUnits="userSpaceOnUse">
<stop stop-color="#5CFBD8"/>
<stop offset="0.49" stop-color="#2ED8EB"/>
<stop offset="1" stop-color="#00B6FF"/>
</linearGradient>
<clipPath id="clip0_176_208">
<rect width="149.555" height="149.555" rx="74.7773" fill="white"/>
</clipPath>
</defs>
</svg>
