<svg width="128" height="127" viewBox="0 0 128 127" fill="none" xmlns="http://www.w3.org/2000/svg">
<g clip-path="url(#clip0_414_537)">
<rect x="0.647461" width="126.512" height="126.512" rx="63.2561" fill="#212121"/>
<path opacity="0.45" d="M127.16 63.256C127.16 98.1914 98.8389 126.512 63.9036 126.512C28.9682 126.512 0.647461 98.1914 0.647461 63.256C22.6805 18.4788 53.9532 91.6853 83.8044 90.2646C118.7 88.6039 127.16 28.3206 127.16 63.256Z" fill="white" fill-opacity="0.06"/>
<path fill-rule="evenodd" clip-rule="evenodd" d="M98.2101 82.8177C98.4686 83.9096 98.4902 85.026 98.2101 86.1656C96.5354 92.2062 92.5625 94.8845 86.2915 94.2006C91.5906 92.5376 94.1573 88.9218 93.9918 83.3533C93.9157 82.5265 93.7372 81.723 93.4561 80.9428C84.8886 65.7717 76.184 50.6837 67.3423 35.6789C65.9082 34.104 64.1897 32.988 62.1865 32.331C66.1506 31.725 69.3868 32.9749 71.8955 36.0807C80.3661 50.6558 88.8029 65.2527 97.2058 79.8715C97.639 80.8368 97.9738 81.8189 98.2101 82.8177Z" fill="url(#paint0_linear_414_537)" fill-opacity="0.8"/>
<path opacity="0.999" fill-rule="evenodd" clip-rule="evenodd" d="M62.1827 32.3311C64.1858 32.988 65.9044 34.104 67.3385 35.679C76.1802 50.6837 84.8848 65.7717 93.4523 80.9428C93.7334 81.723 93.9119 82.5265 93.9879 83.3533C94.1535 88.9219 91.5868 92.5376 86.2877 94.2006C83.9185 93.6838 81.9767 92.4786 80.4623 90.5848C74.9459 81.0683 69.433 71.5602 63.9236 62.0606C63.3265 60.7774 62.6569 59.5275 61.9149 58.3109C59.401 54.032 56.9681 49.7019 54.6164 45.321C53.9393 42.8842 54.0063 40.4738 54.8173 38.0895C55.1511 37.2217 55.6421 36.4629 56.2904 35.8129C56.7814 35.4111 57.2278 34.9648 57.6295 34.4737C58.9015 33.2741 60.4193 32.5599 62.1827 32.3311Z" fill="url(#paint1_linear_414_537)"/>
<path opacity="0.997" fill-rule="evenodd" clip-rule="evenodd" d="M54.8222 38.0898C54.0112 40.4741 53.9442 42.8846 54.6213 45.3213C56.973 49.7023 59.4059 54.0324 61.9197 58.3113C57.4102 65.8113 53.0356 73.3999 48.7959 81.0771C48.7513 81.0771 48.7066 81.0771 48.662 81.0771C47.2555 77.4635 44.6217 75.3432 40.7609 74.7161C36.8478 74.3296 33.7231 75.6911 31.3867 78.8005C39.1313 65.1855 46.9432 51.6153 54.8222 38.0898Z" fill="url(#paint2_linear_414_537)"/>
<path fill-rule="evenodd" clip-rule="evenodd" d="M61.915 58.3115C62.657 59.5282 63.3266 60.778 63.9237 62.0612C58.8883 70.8451 53.7995 79.5944 48.6572 88.3089C49.4931 85.9122 49.5377 83.5017 48.7911 81.0774C53.0308 73.4002 57.4055 65.8115 61.915 58.3115Z" fill="url(#paint3_linear_414_537)" fill-opacity="0.8"/>
<path fill-rule="evenodd" clip-rule="evenodd" d="M48.6565 81.0755C47.1627 83.7055 45.6674 86.3393 44.1703 88.9766C42.678 91.6307 40.4684 93.3716 37.5415 94.1994C33.281 93.1084 30.6473 90.43 29.6404 86.1644C29.4545 85.0248 29.4545 83.9084 29.6404 82.8164C29.9279 81.3488 30.5082 80.0097 31.3813 78.7989C33.7177 75.6895 36.8424 74.328 40.7555 74.7145C44.6163 75.3416 47.25 77.4619 48.6565 81.0755Z" fill="url(#paint4_linear_414_537)"/>
<path fill-rule="evenodd" clip-rule="evenodd" d="M48.6571 81.0771C48.7017 81.0771 48.7464 81.0771 48.791 81.0771C49.5376 83.5014 49.493 85.9119 48.6571 88.3087C46.3751 92.9096 42.6702 94.8737 37.542 94.201C40.4689 93.3733 42.6786 91.6323 44.1709 88.9782C45.6679 86.3409 47.1632 83.7071 48.6571 81.0771Z" fill="url(#paint5_linear_414_537)" fill-opacity="0.8"/>
</g>
<defs>
<linearGradient id="paint0_linear_414_537" x1="98.8156" y1="29.9774" x2="35.0371" y2="83.9744" gradientUnits="userSpaceOnUse">
<stop offset="0.1" stop-color="#5CFBD8"/>
<stop offset="0.49" stop-color="#2ED8EB"/>
<stop offset="0.93" stop-color="#00B6FF"/>
</linearGradient>
<linearGradient id="paint1_linear_414_537" x1="94.4391" y1="30.1349" x2="30.1833" y2="90.2099" gradientUnits="userSpaceOnUse">
<stop offset="0.1" stop-color="#5CFBD8"/>
<stop offset="0.49" stop-color="#2ED8EB"/>
<stop offset="0.93" stop-color="#00B6FF"/>
</linearGradient>
<linearGradient id="paint2_linear_414_537" x1="62.2598" y1="36.5639" x2="17.5346" y2="82.686" gradientUnits="userSpaceOnUse">
<stop offset="0.1" stop-color="#5CFBD8"/>
<stop offset="0.49" stop-color="#2ED8EB"/>
<stop offset="0.93" stop-color="#00B6FF"/>
</linearGradient>
<linearGradient id="paint3_linear_414_537" x1="64.0938" y1="57.2467" x2="34.2458" y2="79.3012" gradientUnits="userSpaceOnUse">
<stop offset="0.1" stop-color="#5CFBD8"/>
<stop offset="0.49" stop-color="#2ED8EB"/>
<stop offset="0.93" stop-color="#00B6FF"/>
</linearGradient>
<linearGradient id="paint4_linear_414_537" x1="48.8699" y1="73.9565" x2="29.723" y2="101.196" gradientUnits="userSpaceOnUse">
<stop offset="0.1" stop-color="#5CFBD8"/>
<stop offset="0.49" stop-color="#2ED8EB"/>
<stop offset="0.93" stop-color="#00B6FF"/>
</linearGradient>
<linearGradient id="paint5_linear_414_537" x1="49.4505" y1="80.6067" x2="36.0918" y2="97.8429" gradientUnits="userSpaceOnUse">
<stop offset="0.1" stop-color="#5CFBD8"/>
<stop offset="0.49" stop-color="#2ED8EB"/>
<stop offset="0.93" stop-color="#00B6FF"/>
</linearGradient>
<clipPath id="clip0_414_537">
<rect x="0.647461" width="126.512" height="126.512" rx="63.2561" fill="white"/>
</clipPath>
</defs>
</svg>
