<svg width="150" height="150" viewBox="0 0 150 150" fill="none" xmlns="http://www.w3.org/2000/svg">
<mask id="mask0_500_43" style="mask-type:luminance" maskUnits="userSpaceOnUse" x="0" y="0" width="150" height="150">
<path d="M74.7777 0H74.7773C33.4789 0 0 33.4789 0 74.7773V74.7777C0 116.076 33.4789 149.555 74.7773 149.555H74.7777C116.076 149.555 149.555 116.076 149.555 74.7777V74.7773C149.555 33.4789 116.076 0 74.7777 0Z" fill="white"/>
</mask>
<g mask="url(#mask0_500_43)">
<path d="M74.7777 0H74.7773C33.4789 0 0 33.4789 0 74.7773V74.7777C0 116.076 33.4789 149.555 74.7773 149.555H74.7777C116.076 149.555 149.555 116.076 149.555 74.7777V74.7773C149.555 33.4789 116.076 0 74.7777 0Z" fill="#212121"/>
<path d="M74.7777 0H74.7773C33.4789 0 0 33.4789 0 74.7773V74.7777C0 116.076 33.4789 149.555 74.7773 149.555H74.7777C116.076 149.555 149.555 116.076 149.555 74.7777V74.7773C149.555 33.4789 116.076 0 74.7777 0Z" fill="url(#paint0_linear_500_43)"/>
<path d="M149.555 74.7767C149.555 116.075 116.076 149.554 74.7773 149.554C33.4789 149.554 0 116.075 0 74.7767C26.046 21.844 63.0146 108.384 98.3027 106.705C139.554 104.741 149.555 33.4783 149.555 74.7767Z" fill="white" fill-opacity="0.46"/>
</g>
<defs>
<linearGradient id="paint0_linear_500_43" x1="115.446" y1="-61.6913" x2="93.6181" y2="167.093" gradientUnits="userSpaceOnUse">
<stop stop-color="#5CFBD8"/>
<stop offset="0.49" stop-color="#2ED8EB"/>
<stop offset="1" stop-color="#00B6FF"/>
</linearGradient>
</defs>
</svg>
