<svg width="128" height="128" viewBox="0 0 128 128" fill="none" xmlns="http://www.w3.org/2000/svg">
<mask id="mask0_514_68" style="mask-type:luminance" maskUnits="userSpaceOnUse" x="0" y="0" width="128" height="128">
<path d="M63.7352 0H63.7348C28.5351 0 0 28.5351 0 63.7348V63.7352C0 98.935 28.5351 127.47 63.7348 127.47H63.7352C98.935 127.47 127.47 98.935 127.47 63.7352V63.7348C127.47 28.5351 98.935 0 63.7352 0Z" fill="white"/>
</mask>
<g mask="url(#mask0_514_68)">
<path d="M63.7352 0H63.7348C28.5351 0 0 28.5351 0 63.7348V63.7352C0 98.935 28.5351 127.47 63.7348 127.47H63.7352C98.935 127.47 127.47 98.935 127.47 63.7352V63.7348C127.47 28.5351 98.935 0 63.7352 0Z" fill="#212121"/>
<path d="M63.7352 0H63.7348C28.5351 0 0 28.5351 0 63.7348V63.7352C0 98.935 28.5351 127.47 63.7348 127.47H63.7352C98.935 127.47 127.47 98.935 127.47 63.7352V63.7348C127.47 28.5351 98.935 0 63.7352 0Z" fill="url(#paint0_linear_514_68)"/>
<path d="M127.47 63.7341C127.47 98.9338 98.9349 127.469 63.7348 127.469C28.535 127.469 0 98.9338 0 63.7341C22.1998 18.618 53.7091 92.3785 83.7862 90.9475C118.946 89.2735 127.47 28.5343 127.47 63.7341Z" fill="white" fill-opacity="0.46"/>
</g>
<path fill-rule="evenodd" clip-rule="evenodd" d="M98.7092 82.635C98.9676 83.727 98.9892 84.8434 98.7092 85.983C97.0344 92.0235 93.0615 94.7019 86.7906 94.018C92.0897 92.355 94.6563 88.7392 94.4908 83.1707C94.4147 82.3439 94.2362 81.5404 93.9551 80.7602C85.3877 65.589 76.6831 50.501 67.8413 35.4963C66.4072 33.9214 64.6887 32.8054 62.6855 32.1484C66.6496 31.5424 69.8858 32.7923 72.3945 35.8981C80.8651 50.4732 89.3019 65.0701 97.7048 79.6889C98.138 80.6541 98.4728 81.6363 98.7092 82.635Z" fill="black"/>
<path opacity="0.999" fill-rule="evenodd" clip-rule="evenodd" d="M62.6817 32.1484C64.6849 32.8054 66.4034 33.9214 67.8375 35.4964C76.6792 50.5011 85.3838 65.5891 93.9513 80.7602C94.2324 81.5404 94.4109 82.3439 94.487 83.1707C94.6525 88.7393 92.0858 92.355 86.7867 94.018C84.4175 93.5012 82.4757 92.2959 80.9614 90.4022C75.4449 80.8857 69.932 71.3776 64.4226 61.878C63.8255 60.5948 63.1559 59.3449 62.4139 58.1283C59.9 53.8494 57.4671 49.5193 55.1154 45.1384C54.4384 42.7016 54.5053 40.2911 55.3163 37.9069C55.6502 37.0391 56.1411 36.2803 56.7894 35.6303C57.2805 35.2285 57.7268 34.7821 58.1286 34.2911C59.4005 33.0915 60.9183 32.3773 62.6817 32.1484Z" fill="black"/>
<path opacity="0.997" fill-rule="evenodd" clip-rule="evenodd" d="M55.3212 37.9072C54.5102 40.2915 54.4432 42.702 55.1203 45.1387C57.472 49.5197 59.9049 53.8497 62.4188 58.1287C57.9093 65.6287 53.5346 73.2173 49.2949 80.8945C49.2503 80.8945 49.2056 80.8945 49.161 80.8945C47.7545 77.2809 45.1207 75.1606 41.2599 74.5335C37.3468 74.147 34.2221 75.5085 31.8857 78.6179C39.6303 65.0029 47.4422 51.4327 55.3212 37.9072Z" fill="black"/>
<path fill-rule="evenodd" clip-rule="evenodd" d="M62.414 58.1289C63.156 59.3455 63.8256 60.5954 64.4228 61.8786C59.3874 70.6624 54.2985 79.4118 49.1562 88.1263C49.9922 85.7296 50.0368 83.3191 49.2902 80.8948C53.5298 73.2176 57.9045 65.6289 62.414 58.1289Z" fill="black"/>
<path fill-rule="evenodd" clip-rule="evenodd" d="M49.1556 80.8929C47.6617 83.5229 46.1664 86.1566 44.6694 88.794C43.177 91.4481 40.9674 93.189 38.0405 94.0168C33.78 92.9257 31.1463 90.2474 30.1394 85.9817C29.9535 84.8422 29.9535 83.7258 30.1394 82.6338C30.4269 81.1662 31.0072 79.8271 31.8803 78.6163C34.2167 75.5069 37.3414 74.1454 41.2545 74.5319C45.1153 75.159 47.749 77.2793 49.1556 80.8929Z" fill="black"/>
<path fill-rule="evenodd" clip-rule="evenodd" d="M49.1561 80.8945C49.2007 80.8945 49.2454 80.8945 49.29 80.8945C50.0366 83.3188 49.992 85.7293 49.1561 88.126C46.8742 92.727 43.1692 94.691 38.041 94.0184C40.968 93.1906 43.1776 91.4497 44.6699 88.7956C46.167 86.1583 47.6623 83.5245 49.1561 80.8945Z" fill="black"/>
<defs>
<linearGradient id="paint0_linear_514_68" x1="98.3979" y1="-52.5813" x2="79.7934" y2="142.418" gradientUnits="userSpaceOnUse">
<stop stop-color="#5CFBD8"/>
<stop offset="0.49" stop-color="#2ED8EB"/>
<stop offset="1" stop-color="#00B6FF"/>
</linearGradient>
</defs>
</svg>
