<svg width="150" height="150" viewBox="0 0 150 150" fill="none" xmlns="http://www.w3.org/2000/svg">
<g clip-path="url(#clip0_500_36)">
<mask id="mask0_500_36" style="mask-type:luminance" maskUnits="userSpaceOnUse" x="0" y="0" width="150" height="150">
<path d="M74.7777 0H74.7773C33.4789 0 0 33.4789 0 74.7773V74.7777C0 116.076 33.4789 149.555 74.7773 149.555H74.7777C116.076 149.555 149.555 116.076 149.555 74.7777V74.7773C149.555 33.4789 116.076 0 74.7777 0Z" fill="white"/>
</mask>
<g mask="url(#mask0_500_36)">
<path d="M74.7777 0H74.7773C33.4789 0 0 33.4789 0 74.7773V74.7777C0 116.076 33.4789 149.555 74.7773 149.555H74.7777C116.076 149.555 149.555 116.076 149.555 74.7777V74.7773C149.555 33.4789 116.076 0 74.7777 0Z" fill="#212121"/>
<path d="M74.7777 0H74.7773C33.4789 0 0 33.4789 0 74.7773V74.7777C0 116.076 33.4789 149.555 74.7773 149.555H74.7777C116.076 149.555 149.555 116.076 149.555 74.7777V74.7773C149.555 33.4789 116.076 0 74.7777 0Z" fill="url(#paint0_linear_500_36)"/>
<path d="M149.555 74.7767C149.555 116.075 116.076 149.554 74.7773 149.554C33.4789 149.554 0 116.075 0 74.7767C26.046 21.844 63.0146 108.384 98.3027 106.705C139.554 104.741 149.555 33.4783 149.555 74.7767Z" fill="white" fill-opacity="0.46"/>
</g>
<path fill-rule="evenodd" clip-rule="evenodd" d="M75 50.6251C70.4208 50.6262 65.9344 51.9171 62.055 54.35C58.1755 56.783 55.0599 60.2595 53.065 64.3814C51.0701 68.5033 50.2766 73.1037 50.7755 77.6557C51.2744 82.2077 53.0455 86.5271 55.8858 90.119C58.7261 93.7109 62.5208 96.4301 66.8351 97.965C71.1494 99.5 75.8089 99.7885 80.2796 98.7977C84.7504 97.8068 88.8516 95.5766 92.1134 92.3626C95.3753 89.1486 97.6658 85.0808 98.7225 80.6251H78.75C77.2582 80.6251 75.8274 80.0325 74.7725 78.9776C73.7176 77.9227 73.125 76.492 73.125 75.0001C73.125 73.5083 73.7176 72.0776 74.7725 71.0227C75.8274 69.9678 77.2582 69.3751 78.75 69.3751H105C106.492 69.3751 107.923 69.9678 108.977 71.0227C110.032 72.0776 110.625 73.5083 110.625 75.0001C110.625 83.238 107.77 91.2212 102.546 97.5909C97.3224 103.961 90.0525 108.323 81.9741 109.936C73.8957 111.548 65.508 110.312 58.2389 106.436C50.9698 102.56 45.2685 96.2848 42.1056 88.6784C38.9426 81.072 38.5135 72.6045 40.8913 64.7173C43.269 56.8301 48.3067 50.0107 55.1467 45.4199C61.9868 40.829 70.2064 38.7506 78.4065 39.5383C86.6066 40.326 94.2802 43.9312 100.121 49.7401C100.645 50.2612 101.061 50.8802 101.345 51.562C101.63 52.2438 101.777 52.9749 101.779 53.7137C101.781 54.4524 101.638 55.1843 101.357 55.8676C101.076 56.5508 100.663 57.172 100.142 57.6958C99.6209 58.2195 99.0018 58.6355 98.32 58.9199C97.6382 59.2044 96.9071 59.3518 96.1683 59.3537C94.6764 59.3576 93.244 58.7686 92.1863 57.7164C89.9278 55.4634 87.2476 53.6775 84.2987 52.4607C81.3498 51.244 78.1901 50.6202 75 50.6251Z" fill="#212121"/>
</g>
<defs>
<linearGradient id="paint0_linear_500_36" x1="115.446" y1="-61.6913" x2="93.6181" y2="167.093" gradientUnits="userSpaceOnUse">
<stop stop-color="#5CFBD8"/>
<stop offset="0.49" stop-color="#2ED8EB"/>
<stop offset="1" stop-color="#00B6FF"/>
</linearGradient>
<clipPath id="clip0_500_36">
<rect width="150" height="150" fill="white"/>
</clipPath>
</defs>
</svg>
