<svg width="150" height="150" viewBox="0 0 150 150" fill="none" xmlns="http://www.w3.org/2000/svg">
<g clip-path="url(#clip0_173_245)">
<rect width="149.555" height="149.555" rx="74.7773" fill="#212121"/>
<rect width="149.555" height="149.555" rx="74.7773" fill="url(#paint0_linear_173_245)"/>
<path d="M149.555 74.7767C149.555 116.075 116.076 149.554 74.7773 149.554C33.4789 149.554 0 116.075 0 74.7767C26.046 21.844 63.0146 108.384 98.3027 106.705C139.554 104.741 149.555 33.4783 149.555 74.7767Z" fill="white" fill-opacity="0.46"/>
<path d="M87.3846 43H63.1748C57.8241 43 52.6926 45.1256 48.9091 48.9091C45.1256 52.6926 43 57.8241 43 63.1748L43 87.3846C43 92.7353 45.1256 97.8669 48.9091 101.65C52.6926 105.434 57.8241 107.559 63.1748 107.559H87.3846C92.7353 107.559 97.8669 105.434 101.65 101.65C105.434 97.8669 107.559 92.7353 107.559 87.3846V63.1748C107.559 57.8241 105.434 52.6926 101.65 48.9091C97.8669 45.1256 92.7353 43 87.3846 43ZM101.507 87.3846C101.507 95.1721 95.1721 101.507 87.3846 101.507H63.1748C55.3873 101.507 49.0524 95.1721 49.0524 87.3846V63.1748C49.0524 55.3873 55.3873 49.0524 63.1748 49.0524H87.3846C95.1721 49.0524 101.507 55.3873 101.507 63.1748V87.3846Z" fill="#212121"/>
<path d="M75.2805 59.1406C70.9999 59.1406 66.8947 60.8411 63.8679 63.8679C60.8411 66.8947 59.1406 70.9999 59.1406 75.2805C59.1406 79.561 60.8411 83.6663 63.8679 86.6931C66.8947 89.7199 70.9999 91.4204 75.2805 91.4204C79.561 91.4204 83.6663 89.7199 86.6931 86.6931C89.7199 83.6663 91.4204 79.561 91.4204 75.2805C91.4204 70.9999 89.7199 66.8947 86.6931 63.8679C83.6663 60.8411 79.561 59.1406 75.2805 59.1406ZM75.2805 85.3679C72.6061 85.3647 70.0422 84.3009 68.1511 82.4098C66.2601 80.5188 65.1963 77.9549 65.1931 75.2805C65.1931 69.7163 69.7203 65.1931 75.2805 65.1931C80.8407 65.1931 85.3679 69.7163 85.3679 75.2805C85.3679 80.8407 80.8407 85.3679 75.2805 85.3679Z" fill="#212121"/>
<path d="M92.6272 60.0806C93.815 60.0806 94.7778 59.1177 94.7778 57.9299C94.7778 56.7422 93.815 55.7793 92.6272 55.7793C91.4394 55.7793 90.4766 56.7422 90.4766 57.9299C90.4766 59.1177 91.4394 60.0806 92.6272 60.0806Z" fill="#212121"/>
</g>
<defs>
<linearGradient id="paint0_linear_173_245" x1="115.446" y1="-61.6913" x2="93.6181" y2="167.093" gradientUnits="userSpaceOnUse">
<stop stop-color="#5CFBD8"/>
<stop offset="0.49" stop-color="#2ED8EB"/>
<stop offset="1" stop-color="#00B6FF"/>
</linearGradient>
<clipPath id="clip0_173_245">
<rect width="149.555" height="149.555" rx="74.7773" fill="white"/>
</clipPath>
</defs>
</svg>
