<svg width="150" height="150" viewBox="0 0 150 150" fill="none" xmlns="http://www.w3.org/2000/svg">
<g clip-path="url(#clip0_414_649)">
<rect x="0.0292969" width="149.555" height="149.555" rx="74.7773" fill="#212121"/>
<path opacity="0.45" d="M149.584 74.7767C149.584 116.075 116.105 149.554 74.8066 149.554C33.5082 149.554 0.0292969 116.075 0.0292969 74.7767C26.0753 21.844 63.0439 108.384 98.332 106.705C139.584 104.741 149.584 33.4783 149.584 74.7767Z" fill="white" fill-opacity="0.06"/>
<path d="M87.3006 42.0146H63.0908C57.7401 42.0146 52.6086 44.1402 48.8251 47.9237C45.0416 51.7072 42.916 56.8388 42.916 62.1895L42.916 86.3993C42.916 91.75 45.0416 96.8815 48.8251 100.665C52.6086 104.449 57.7401 106.574 63.0908 106.574H87.3006C92.6513 106.574 97.7829 104.449 101.566 100.665C105.35 96.8815 107.475 91.75 107.475 86.3993V62.1895C107.475 56.8388 105.35 51.7072 101.566 47.9237C97.7829 44.1402 92.6513 42.0146 87.3006 42.0146ZM101.423 86.3993C101.423 94.1868 95.0881 100.522 87.3006 100.522H63.0908C55.3034 100.522 48.9685 94.1868 48.9685 86.3993V62.1895C48.9685 54.402 55.3034 48.0671 63.0908 48.0671H87.3006C95.0881 48.0671 101.423 54.402 101.423 62.1895V86.3993Z" fill="black"/>
<path d="M87.3006 42.0146H63.0908C57.7401 42.0146 52.6086 44.1402 48.8251 47.9237C45.0416 51.7072 42.916 56.8388 42.916 62.1895L42.916 86.3993C42.916 91.75 45.0416 96.8815 48.8251 100.665C52.6086 104.449 57.7401 106.574 63.0908 106.574H87.3006C92.6513 106.574 97.7829 104.449 101.566 100.665C105.35 96.8815 107.475 91.75 107.475 86.3993V62.1895C107.475 56.8388 105.35 51.7072 101.566 47.9237C97.7829 44.1402 92.6513 42.0146 87.3006 42.0146ZM101.423 86.3993C101.423 94.1868 95.0881 100.522 87.3006 100.522H63.0908C55.3034 100.522 48.9685 94.1868 48.9685 86.3993V62.1895C48.9685 54.402 55.3034 48.0671 63.0908 48.0671H87.3006C95.0881 48.0671 101.423 54.402 101.423 62.1895V86.3993Z" fill="url(#paint0_linear_414_649)"/>
<path d="M75.1955 58.1543C70.915 58.1543 66.8097 59.8547 63.7829 62.8816C60.7561 65.9084 59.0557 70.0136 59.0557 74.2942C59.0557 78.5747 60.7561 82.68 63.7829 85.7068C66.8097 88.7336 70.915 90.434 75.1955 90.434C79.4761 90.434 83.5813 88.7336 86.6081 85.7068C89.6349 82.68 91.3354 78.5747 91.3354 74.2942C91.3354 70.0136 89.6349 65.9084 86.6081 62.8816C83.5813 59.8547 79.4761 58.1543 75.1955 58.1543ZM75.1955 84.3816C72.5212 84.3784 69.9572 83.3146 68.0662 81.4235C66.1751 79.5324 65.1113 76.9685 65.1081 74.2942C65.1081 68.7299 69.6353 64.2067 75.1955 64.2067C80.7557 64.2067 85.2829 68.7299 85.2829 74.2942C85.2829 79.8543 80.7557 84.3816 75.1955 84.3816Z" fill="black"/>
<path d="M75.1955 58.1543C70.915 58.1543 66.8097 59.8547 63.7829 62.8816C60.7561 65.9084 59.0557 70.0136 59.0557 74.2942C59.0557 78.5747 60.7561 82.68 63.7829 85.7068C66.8097 88.7336 70.915 90.434 75.1955 90.434C79.4761 90.434 83.5813 88.7336 86.6081 85.7068C89.6349 82.68 91.3354 78.5747 91.3354 74.2942C91.3354 70.0136 89.6349 65.9084 86.6081 62.8816C83.5813 59.8547 79.4761 58.1543 75.1955 58.1543ZM75.1955 84.3816C72.5212 84.3784 69.9572 83.3146 68.0662 81.4235C66.1751 79.5324 65.1113 76.9685 65.1081 74.2942C65.1081 68.7299 69.6353 64.2067 75.1955 64.2067C80.7557 64.2067 85.2829 68.7299 85.2829 74.2942C85.2829 79.8543 80.7557 84.3816 75.1955 84.3816Z" fill="url(#paint1_linear_414_649)"/>
<path d="M92.5442 59.0952C93.732 59.0952 94.6948 58.1323 94.6948 56.9446C94.6948 55.7568 93.732 54.7939 92.5442 54.7939C91.3564 54.7939 90.3936 55.7568 90.3936 56.9446C90.3936 58.1323 91.3564 59.0952 92.5442 59.0952Z" fill="black"/>
<path d="M92.5442 59.0952C93.732 59.0952 94.6948 58.1323 94.6948 56.9446C94.6948 55.7568 93.732 54.7939 92.5442 54.7939C91.3564 54.7939 90.3936 55.7568 90.3936 56.9446C90.3936 58.1323 91.3564 59.0952 92.5442 59.0952Z" fill="url(#paint2_linear_414_649)"/>
</g>
<defs>
<linearGradient id="paint0_linear_414_649" x1="92.7514" y1="15.3839" x2="83.3289" y2="114.145" gradientUnits="userSpaceOnUse">
<stop stop-color="#5CFBD8"/>
<stop offset="0.49" stop-color="#2ED8EB"/>
<stop offset="1" stop-color="#00B6FF"/>
</linearGradient>
<linearGradient id="paint1_linear_414_649" x1="83.9733" y1="44.8389" x2="79.2621" y2="94.2194" gradientUnits="userSpaceOnUse">
<stop stop-color="#5CFBD8"/>
<stop offset="0.49" stop-color="#2ED8EB"/>
<stop offset="1" stop-color="#00B6FF"/>
</linearGradient>
<linearGradient id="paint2_linear_414_649" x1="93.7138" y1="53.0197" x2="93.0861" y2="59.5996" gradientUnits="userSpaceOnUse">
<stop stop-color="#5CFBD8"/>
<stop offset="0.49" stop-color="#2ED8EB"/>
<stop offset="1" stop-color="#00B6FF"/>
</linearGradient>
<clipPath id="clip0_414_649">
<rect x="0.0292969" width="149.555" height="149.555" rx="74.7773" fill="white"/>
</clipPath>
</defs>
</svg>
