<?xml version="1.0" encoding="UTF-8"?>
<svg id="Layer_2" data-name="Layer 2" xmlns="http://www.w3.org/2000/svg" xmlns:xlink="http://www.w3.org/1999/xlink" viewBox="0 0 648.1 242.25">
  <defs>
    <style>
      .cls-1 {
        fill: url(#linear-gradient-2);
      }

      .cls-2 {
        fill: #7dfce0;
      }

      .cls-3 {
        fill: url(#linear-gradient);
      }
    </style>
    <linearGradient id="linear-gradient" x1="241.7" y1="-52.37" x2="-5.99" y2="247.02" gradientUnits="userSpaceOnUse">
      <stop offset=".1" stop-color="#5cfbd8"/>
      <stop offset=".49" stop-color="#2ed8eb"/>
      <stop offset=".93" stop-color="#00b6ff"/>
    </linearGradient>
    <linearGradient id="linear-gradient-2" x1="479.5" y1="-114.58" x2="371.21" y2="328.67" gradientUnits="userSpaceOnUse">
      <stop offset=".1" stop-color="#5cfbd8"/>
      <stop offset=".53" stop-color="#30daea"/>
      <stop offset=".98" stop-color="#00b6ff"/>
    </linearGradient>
  </defs>
  <g id="Layer_1-2" data-name="Layer 1">
    <g>
      <g>
        <path class="cls-2" d="M107.04,174.44c-.1,.33-.22,.65-.33,.97-.11,.32-.23,.64-.36,.97-.12,.32-.25,.63-.39,.95-.16,.39-.34,.78-.52,1.18-.56,1.15-1.17,2.27-1.84,3.35-1.84,2.95-4.21,5.71-7.01,7.78-.09,.07-.18,.13-.27,.2-.36,.27-.73,.53-1.12,.78-9.09,6.09-22.75,7.92-31.9,7.19-.47,.03-1.53-.2-2.07-.2h-.11c3.55-.8,7.8-1.68,10.4-3.63,0,0,13.26-8.91,1.7-25.64-2.42-3.5-5.66-6.36-9.42-8.36-11.98-6.38-28.36-5.02-39.6,1.98-5.42,3.36-10.01,7.94-13.54,13.24-5.12,7.68-8.44,16.89-8.14,26.19,.05,1.78,.24,3.53,.58,5.28,.27,1.42,1.7,5.15,2.38,7.12,.1,.28,.18,.52,.24,.72-.06-.12-.13-.24-.19-.36-.01-.01-.02-.03-.03-.05-.06-.13-.15-.3-.25-.51-.71-1.48-2.15-4.64-3.19-8.25-.09-.32-.18-.65-.27-.99-.11-.46-.22-.92-.31-1.38-.09-.37-.17-.75-.24-1.13-.17-.83-.32-1.67-.45-2.5-.06-.35-.11-.69-.16-1.04-.07-.5-.13-.99-.19-1.48-.05-.43-.1-.87-.13-1.3-.05-.41-.08-.82-.11-1.23-.09-1.06-.15-2.12-.17-3.18-.02-.54-.03-1.09-.03-1.63,0-2.02,.09-4.04,.29-6.05,.19-1.99,.47-3.96,.86-5.92,.13-.66,.27-1.31,.41-1.97,.15-.64,.31-1.28,.48-1.91,.1-.38,.2-.75,.31-1.12,.11-.38,.21-.75,.33-1.12,.12-.37,.23-.74,.36-1.11,1.57-4.8,3.78-9.4,6.51-13.64,2.98-4.64,6.47-8.73,10.37-12.27,.37-.33,.75-.66,1.13-.98,10.85-9.34,25.02-14.61,39.33-14.7,17.59-.11,40.3,7.6,46.63,25.48,.53,1.51,.95,3.08,1.24,4.73,.88,5.05,.43,10.48-1.21,15.54Z"/>
        <path class="cls-3" d="M162.25,115.15c-1.57-.61-3.76-.84-3.88-3.04-.14-2.26,2.03-2.59,3.57-3.29,26.53-11.95,41.99-36.23,41.27-65.37-.4-16.59-8.23-28.68-23.22-35.92-9.43-4.55-19.57-6.24-29.92-6.88C133.37-.38,116.65,.16,101.92,.01,87.37,.01,74.8,0,62.24,.02c-7.29,0-8.64,1.04-10.78,7.9-8.52,27.28-17.05,54.56-25.56,81.85-1.51,4.82-7.52,23.63-10.02,31.53-.29,.92,.66,1.73,1.52,1.31,8.41-4.09,17.24-7.36,26.39-9.36,13.88-3.03,28.63-3.05,42.03,2.1,14.7,5.63,28.13,16.32,29.95,32.81,.77,7-.4,14.14-3.07,20.64-2.97,7.27-8.13,13.98-14.09,19.13-.44,.41-.89,.8-1.35,1.17-.22,.19-.44,.37-.67,.54-.09,.07-.18,.13-.27,.2-.36,.27-.73,.53-1.12,.78-9.09,6.09-22.75,7.92-31.9,7.19-.47,.03-1.53-.2-2.07-.2h-.11c3.55-.8,7.8-1.68,10.4-3.63,0,0,13.26-8.91,1.7-25.64-2.42-3.5-5.66-6.36-9.42-8.36-11.98-6.38-28.36-5.02-39.6,1.98-5.42,3.36-10.01,7.94-13.54,13.24-5.12,7.68-8.44,16.89-8.14,26.19,.05,1.78,.24,3.53,.58,5.28,.27,1.42,1.7,5.15,2.38,7.12,.1,.28,.18,.52,.24,.72,4.96,9.31,15.53,16.85,24.58,20.22,15.2,5.68,31.81,7.52,47.94,7.52,36.41,0,68.18-11.69,85.14-29.05,.01-.01,.02-.03,.04-.03,12.64-11.75,22.16-26.8,26.03-42.87,2.48-10.26,3.79-20.6-.39-30.75-5.07-12.31-14.75-19.68-26.81-24.4Zm-12.82-56.46c-2.34,15.1-13.21,25.88-29.49,29.43-6.22,1.36-12.48,1.65-18.75,1.65-5.39,0-10.79-.22-16.19-.16-3.44,.03-3.31-2.31-2.55-4.79,3.42-11.17,6.84-22.34,10.25-33.51,1.26-4.08,2.62-8.13,3.76-12.25,.73-2.59,2.3-3.75,4.9-3.74,4.52,.01,9.05,0,13.57,0,6.89,.32,13.84-.09,20.59,1.81,10.74,3.03,15.61,10.57,13.91,21.56Z"/>
      </g>
      <path class="cls-1" d="M206.24,208.44c1.14-.85,2.81-1.11,3.7-.17,3.39,3.49,8.69,5.71,14,5.71,6.84,0,9.71-2.21,10.51-5.03,.83-2.98-1.18-3.92-6.99-6.22l-8.21-3.32c-6.2-2.39-12.95-7.41-10.2-16.78,2.98-10.31,16.08-17.81,30.17-17.81,8.47,0,15.73,2.9,20.06,7.67,.71,.77,.31,2.13-.61,2.9l-7.83,6.31c-1.14,.85-2.8,1.02-3.71,.25-3.18-2.81-6.65-4.26-11.65-4.26-5.62,0-8.44,1.96-9.2,4.43-.77,2.56,1.91,3.83,7.34,5.88l8.13,3.15c7.44,2.98,12.78,7.84,10.16,17.04-2.99,10.39-15.9,18.66-31.93,18.66-9.7,0-18.14-3.15-23.38-8.77-.8-.85-.31-2.13,.71-2.9l8.91-6.73Zm111.75-43.62c-18.89,0-35.37,11.93-40.78,30.75-5.41,18.91,3.88,31.27,22.87,31.27s35.74-12.35,41.15-31.27c5.4-18.83-4.25-30.75-23.25-30.75Zm5.89,30.75c-3.42,12.01-11.57,18.4-20.05,18.4s-12.78-6.39-9.36-18.4c3.41-11.93,11.19-17.89,19.77-17.89s13.05,5.96,9.64,17.89Zm80.44-30.75c8.88,0,15.21,3.66,18.62,7.75,.7,.85,.21,2.13-.82,2.9l-8.42,6.13c-1.14,.85-2.8,1.02-3.69,.09-2.3-2.56-5.05-4.01-9.34-4.01-9.19,0-18.03,6.22-21.43,18.06-3.44,12.1,1.22,18.23,10.61,18.23,5.11,0,9.12-1.7,13.45-4.85,.91-.68,2.73-1.28,3.78,0l4.97,6.05c.7,.85,.12,2.04-.8,2.81-7.43,5.62-16.26,8.86-25.34,8.86-18.48,0-29.54-11.42-23.95-30.84,5.56-19.25,23.68-31.18,42.36-31.18Zm46.08,3.15c.38-1.28,2.04-2.13,3.16-2.13h11.84c1.53,0,2.18,1.19,1.95,2.13l-16,55.72c-.38,1.28-2.04,2.13-3.16,2.13h-11.84c-1.53,0-2.18-1.19-1.95-2.13l16-55.72Zm85,55.03l-5.75-55.72c-.1-.77-.82-1.45-1.94-1.45h-13.89c-1.02,0-2.22,.51-2.86,1.45l-37.85,55.72c-2.07,3.07,1.65,2.81,1.65,2.81h12.05c1.12,0,2.33-.6,2.87-1.53l8.64-13.55h18.58l.75,13.55c.08,.85,.91,1.53,2.03,1.53h12.46c3.88,0,3.25-2.81,3.25-2.81Zm-29.47-24.28l9.66-15.68,.66,15.68h-10.31Zm66.98-30.75c.38-1.28,2.04-2.13,3.16-2.13h11.84c1.53,0,2.18,1.19,1.95,2.13l-13,45.24h25.22c1.53,0,2.18,1.19,1.95,2.13l-2.4,8.35c-.38,1.28-2.04,2.13-3.16,2.13h-39.62c-1.53,0-2.18-1.19-1.95-2.13l16-55.72ZM237.26,44.43c.66-2.21,3.5-3.68,5.43-3.68h69.16c2.63,0,3.75,2.06,3.35,3.68l-4.12,14.44c-.66,2.21-3.5,3.68-5.43,3.68h-44.41l-4.87,17.24h36.86c2.63,0,3.75,2.06,3.35,3.68l-4.12,14.44c-.66,2.21-3.5,3.68-5.43,3.68h-36.86l-6.1,21.07h46.17c2.63,0,3.75,2.06,3.35,3.68l-4.12,14.44c-.66,2.21-3.5,3.68-5.43,3.68h-70.92c-2.63,0-3.75-2.06-3.35-3.68l27.5-96.36Zm173.13,95.18l-9.89-96.36c-.17-1.33-1.4-2.51-3.34-2.51h-23.87c-1.75,0-3.81,.88-4.91,2.51l-65.07,96.36c-3.55,5.3,2.83,4.86,2.83,4.86h20.71c1.93,0,4.01-1.03,4.93-2.65l14.86-23.43h31.95l1.29,23.43c.14,1.47,1.56,2.65,3.49,2.65h21.42c6.67,0,5.59-4.86,5.59-4.86Zm-50.66-41.99l16.6-27.11,1.13,27.11h-17.73Zm138.45-58.64c15.27,0,26.15,6.34,32.01,13.41,1.2,1.47,.36,3.68-1.4,5.01l-14.47,10.61c-1.96,1.47-4.81,1.77-6.34,.15-3.95-4.42-8.69-6.93-16.06-6.93-15.8,0-30.99,10.75-36.84,31.24-5.91,20.92,2.09,31.53,18.24,31.53,8.78,0,15.68-2.95,23.11-8.4,1.57-1.18,4.7-2.21,6.5,0l8.54,10.46c1.2,1.47,.21,3.54-1.38,4.86-12.77,9.72-27.94,15.32-43.57,15.32-31.77,0-50.78-19.74-41.17-53.33,9.57-33.3,40.71-53.92,72.83-53.92Zm53.83,5.45c.66-2.21,3.5-3.68,5.43-3.68h20.36c2.63,0,3.75,2.06,3.35,3.68l-9.99,35.07h37.74l9.99-35.07c.66-2.21,3.5-3.68,5.43-3.68h20.36c2.63,0,3.75,2.06,3.35,3.68l-27.5,96.36c-.66,2.21-3.5,3.68-5.43,3.68h-20.36c-2.63,0-3.75-2.06-3.35-3.68l11.25-39.04h-37.74l-11.25,39.04c-.66,2.21-3.5,3.68-5.43,3.68h-20.36c-2.63,0-3.75-2.06-3.35-3.68l27.5-96.36Z"/>
    </g>
  </g>
</svg>