<svg width="150" height="150" viewBox="0 0 150 150" fill="none" xmlns="http://www.w3.org/2000/svg">
<g clip-path="url(#clip0_173_255)">
<rect width="149.555" height="149.555" rx="74.7773" fill="#212121"/>
<rect width="149.555" height="149.555" rx="74.7773" fill="url(#paint0_linear_173_255)"/>
<path d="M149.555 75.1654C149.555 116.464 116.076 149.943 74.7773 149.943C33.4789 149.943 0 116.464 0 75.1654C26.046 22.2327 63.0146 108.773 98.3027 107.093C139.554 105.13 149.555 33.867 149.555 75.1654Z" fill="white" fill-opacity="0.46"/>
<path opacity="0.884" fill-rule="evenodd" clip-rule="evenodd" d="M73.9684 42.0113C75.5076 41.9042 75.9591 42.5591 75.3233 43.9758C74.2818 44.4649 73.6044 44.1713 73.291 43.0952C73.3849 42.6331 73.6108 42.2718 73.9684 42.0113Z" fill="#212121"/>
<path opacity="0.862" fill-rule="evenodd" clip-rule="evenodd" d="M78.4484 42.1479C79.3442 42.1181 79.8411 42.5472 79.9387 43.435C79.7252 44.3974 79.138 44.7135 78.1774 44.3834C77.5272 43.9674 77.3693 43.4028 77.7032 42.6899C77.9065 42.4231 78.1548 42.2425 78.4484 42.1479Z" fill="#212121"/>
<path opacity="0.87" fill-rule="evenodd" clip-rule="evenodd" d="M69.6321 42.2842C70.9405 42.0798 71.5049 42.6217 71.3256 43.91C70.6909 44.7494 70.0135 44.7945 69.2934 44.0455C68.9976 43.3775 69.1105 42.7904 69.6321 42.2842Z" fill="#212121"/>
<path opacity="0.858" fill-rule="evenodd" clip-rule="evenodd" d="M82.5014 42.9589C83.4647 42.8613 84.0066 43.2903 84.1272 44.246C83.9889 44.9937 83.5373 45.3776 82.7724 45.3976C81.7557 45.1237 81.417 44.4914 81.7562 43.5008C81.9595 43.2341 82.2078 43.0534 82.5014 42.9589Z" fill="#212121"/>
<path opacity="0.878" fill-rule="evenodd" clip-rule="evenodd" d="M65.4357 43.0964C67.1561 43.0278 67.6077 43.7278 66.7905 45.1964C66.1486 45.5169 65.5616 45.4492 65.0292 44.9932C64.6119 44.2338 64.7474 43.6016 65.4357 43.0964Z" fill="#212121"/>
<path opacity="0.859" fill-rule="evenodd" clip-rule="evenodd" d="M86.7111 44.4512C87.8199 44.4561 88.249 44.9981 87.9982 46.077C87.6683 46.717 87.1488 46.9202 86.4401 46.6867C85.8967 46.3681 85.6934 45.8939 85.8304 45.2641C86.025 44.8655 86.3186 44.5945 86.7111 44.4512Z" fill="#212121"/>
<path opacity="0.865" fill-rule="evenodd" clip-rule="evenodd" d="M61.5051 44.5854C63.1266 44.4694 63.5782 45.1242 62.86 46.5499C62.1563 47.009 61.5466 46.8961 61.0309 46.2112C60.8609 45.566 61.019 45.024 61.5051 44.5854Z" fill="#212121"/>
<path opacity="0.958" fill-rule="evenodd" clip-rule="evenodd" d="M51.6159 45.262C55.9882 44.9192 58.8561 46.8159 60.2192 50.9524C60.732 53.2428 60.3482 55.3654 59.0675 57.3202C60.6011 58.9215 62.1592 60.5022 63.7418 62.0622C63.8322 62.1977 63.8322 62.3332 63.7418 62.4687C63.245 62.9655 62.7483 63.4622 62.2515 63.959C60.6237 62.3087 58.9753 60.6828 57.3062 59.0815C54.4596 60.809 51.5692 60.8767 48.6352 59.2848C45.4097 56.796 44.4839 53.6121 45.8577 49.733C47.0928 47.3447 49.0122 45.8544 51.6159 45.262ZM50.6675 49.5976C51.8487 49.5573 53.023 49.625 54.1901 49.8008C56.0248 50.7251 56.4539 52.1025 55.4772 53.9331C54.761 54.6861 53.8804 55.0473 52.8352 55.017C52.9028 55.676 52.7673 56.2857 52.4288 56.846C51.5525 57.2769 50.988 57.0285 50.7352 56.1009C50.6449 55.017 50.6449 53.9331 50.7352 52.8492C51.0278 51.8884 51.6149 51.6626 52.4965 52.1718C52.6332 52.3784 52.7009 52.6042 52.6997 52.8492C53.0638 52.8714 53.4251 52.8489 53.7836 52.7815C53.9642 52.4653 53.9642 52.1492 53.7836 51.8331C52.7449 51.7879 51.7062 51.7427 50.6675 51.6976C49.7067 51.405 49.4808 50.8179 49.99 49.9363C50.2359 49.8337 50.4617 49.7208 50.6675 49.5976Z" fill="#212121"/>
<path opacity="0.962" fill-rule="evenodd" clip-rule="evenodd" d="M95.1079 45.2639C99.9358 45.1481 102.804 47.4514 103.711 52.1737C103.839 56.547 101.784 59.2792 97.5467 60.3705C95.4286 60.7103 93.4866 60.2813 91.7208 59.0834C90.1195 60.617 88.5388 62.1751 86.9788 63.7577C86.8433 63.848 86.7079 63.848 86.5724 63.7577C86.0755 63.2608 85.5789 62.7642 85.082 62.2673C86.7324 60.6396 88.3582 58.9912 89.9595 57.3221C88.3899 54.769 88.1867 52.1046 89.3498 49.3285C90.6228 47.0551 92.5421 45.7003 95.1079 45.2639ZM96.3273 48.6511C96.9249 48.5862 97.4895 48.6765 98.0209 48.922C98.304 49.4126 98.2814 49.8868 97.9531 50.3446C97.4262 50.538 96.9069 50.7412 96.3951 50.9543C96.2422 51.2043 96.1745 51.4753 96.1918 51.7672C96.8124 51.7148 97.3995 51.8278 97.9531 52.1059C98.4623 52.9876 98.2366 53.5747 97.2757 53.8672C96.9172 53.9346 96.5559 53.9572 96.1918 53.935C96.242 54.8055 96.1742 55.6635 95.9886 56.5092C95.5847 57.0777 95.0654 57.1906 94.4305 56.8479C94.3457 56.7463 94.278 56.6333 94.2273 56.5092C94.0779 55.6616 94.0101 54.8036 94.0241 53.935C93.9821 52.7873 94.0951 51.6583 94.3628 50.5479C94.8041 49.6856 95.459 49.0533 96.3273 48.6511Z" fill="#212121"/>
<path opacity="0.959" fill-rule="evenodd" clip-rule="evenodd" d="M73.5651 48.5147C75.5793 48.1775 76.9568 48.9453 77.6974 50.8179C78.1014 52.8334 77.3562 54.2109 75.4618 54.9502C73.4464 55.3542 72.0689 54.6091 71.3295 52.7147C70.9429 50.6869 71.688 49.2868 73.5651 48.5147Z" fill="#212121"/>
<path opacity="0.98" fill-rule="evenodd" clip-rule="evenodd" d="M73.425 57.0508C74.1475 57.0508 74.8702 57.0508 75.5927 57.0508C75.5927 58.1798 75.5927 59.3089 75.5927 60.4379C81.8782 61.146 86.0556 64.4878 88.1251 70.4638C88.4323 71.435 88.5904 72.4285 88.5993 73.4445C89.7283 73.4445 90.8575 73.4445 91.9865 73.4445C91.9865 74.167 91.9865 74.8897 91.9865 75.6123C90.8575 75.6123 89.7283 75.6123 88.5993 75.6123C87.8913 81.8977 84.5494 86.0751 78.5734 88.1447C77.6023 88.4518 76.6087 88.6099 75.5927 88.6189C75.5927 89.7479 75.5927 90.877 75.5927 92.006C74.8702 92.006 74.1475 92.006 73.425 92.006C73.425 90.877 73.425 89.7479 73.425 88.6189C67.1395 87.9108 62.9621 84.5689 60.8926 78.5929C60.5854 77.6218 60.4273 76.6283 60.4184 75.6123C59.2894 75.6123 58.1602 75.6123 57.0312 75.6123C57.0312 74.8897 57.0312 74.167 57.0312 73.4445C58.1602 73.4445 59.2894 73.4445 60.4184 73.4445C61.1264 67.1591 64.4683 62.9817 70.4443 60.9121C71.4155 60.605 72.409 60.4469 73.425 60.4379C73.425 59.3089 73.425 58.1798 73.425 57.0508ZM79.1154 67.0767C80.1694 66.9344 80.7791 67.386 80.9444 68.4315C81.0737 72.0048 81.0285 75.5727 80.8089 79.1349C80.329 79.7978 79.7194 80.001 78.9799 79.7446C77.1942 77.1816 74.7554 76.1881 71.6637 76.7639C72.286 78.1342 72.8279 79.5342 73.2895 80.9639C73.0928 81.9896 72.5282 82.238 71.5959 81.7091C70.8734 79.9929 70.1507 78.2769 69.4282 76.5607C67.4063 75.7688 66.6838 74.3235 67.2604 72.2251C67.7094 71.3243 68.4094 70.7146 69.3604 70.3961C71.1614 70.2315 72.9678 70.1412 74.7798 70.1251C75.6594 69.911 76.4723 69.5498 77.2186 69.0412C77.8858 68.397 78.5181 67.7421 79.1154 67.0767Z" fill="#212121"/>
<path opacity="0.862" fill-rule="evenodd" clip-rule="evenodd" d="M45.2465 60.9787C46.5518 60.9059 47.026 61.493 46.6691 62.74C45.9375 63.4786 45.2601 63.4335 44.6368 62.6045C44.4301 61.8917 44.6333 61.3498 45.2465 60.9787Z" fill="#212121"/>
<path opacity="0.863" fill-rule="evenodd" clip-rule="evenodd" d="M102.831 60.9793C103.833 60.7566 104.421 61.1405 104.592 62.1309C104.471 62.8166 104.065 63.2004 103.373 63.2826C102.412 63.0781 102.073 62.4909 102.357 61.5212C102.543 61.358 102.701 61.1774 102.831 60.9793Z" fill="#212121"/>
<path opacity="0.867" fill-rule="evenodd" clip-rule="evenodd" d="M43.6169 64.9071C44.63 64.6887 45.2171 65.0725 45.3782 66.0587C45.2168 67.0667 44.6297 67.428 43.6169 67.1426C42.998 66.7983 42.7947 66.2788 43.0073 65.5845C43.1461 65.2882 43.3494 65.0623 43.6169 64.9071Z" fill="#212121"/>
<path opacity="0.872" fill-rule="evenodd" clip-rule="evenodd" d="M104.456 64.9062C105.972 64.9806 106.379 65.6805 105.676 67.0063C104.351 67.532 103.696 67.1029 103.711 65.7192C103.895 65.3773 104.144 65.1064 104.456 64.9062Z" fill="#212121"/>
<path opacity="0.87" fill-rule="evenodd" clip-rule="evenodd" d="M42.9461 69.1061C44.2124 69.0833 44.6866 69.6704 44.3687 70.8674C43.6913 71.59 43.0138 71.59 42.3364 70.8674C42.0409 70.1056 42.2441 69.5185 42.9461 69.1061Z" fill="#212121"/>
<path opacity="0.874" fill-rule="evenodd" clip-rule="evenodd" d="M105.266 69.1078C106.509 69.0637 106.983 69.6509 106.689 70.8691C106.288 71.3808 105.769 71.5388 105.131 71.3433C104.512 70.999 104.308 70.4796 104.521 69.7852C104.704 69.4805 104.952 69.2546 105.266 69.1078Z" fill="#212121"/>
<path opacity="0.959" fill-rule="evenodd" clip-rule="evenodd" d="M50.7994 71.2744C52.8137 70.9373 54.1911 71.705 54.9317 73.5777C55.3357 75.5931 54.5905 76.9706 52.6962 77.71C50.6807 78.114 49.3033 77.3688 48.5639 75.4745C48.1773 73.4466 48.9225 72.0465 50.7994 71.2744Z" fill="#212121"/>
<path opacity="0.959" fill-rule="evenodd" clip-rule="evenodd" d="M96.3209 71.2744C98.3352 70.9373 99.7127 71.705 100.453 73.5777C100.857 75.5931 100.112 76.9706 98.2177 77.71C96.2022 78.114 94.8247 77.3688 94.0854 75.4745C93.6987 73.4466 94.4439 72.0465 96.3209 71.2744Z" fill="#212121"/>
<path opacity="0.884" fill-rule="evenodd" clip-rule="evenodd" d="M105.813 73.3105C106.872 73.4398 107.256 74.0269 106.964 75.0719C106.897 75.3202 106.739 75.4783 106.49 75.5461C104.949 75.7195 104.498 75.0872 105.135 73.6493C105.381 73.5467 105.607 73.4338 105.813 73.3105Z" fill="#212121"/>
<path opacity="0.884" fill-rule="evenodd" clip-rule="evenodd" d="M42.5364 73.4429C44.0755 73.3359 44.5271 73.9907 43.8913 75.4075C43.3119 75.8529 42.7474 75.8304 42.1977 75.3397C41.8488 74.5992 41.9617 73.9668 42.5364 73.4429Z" fill="#212121"/>
<path opacity="0.866" fill-rule="evenodd" clip-rule="evenodd" d="M42.8059 77.6417C44.209 77.4724 44.7284 78.0596 44.364 79.403C43.6916 80.1092 43.0142 80.1092 42.3317 79.403C41.9724 78.6631 42.1304 78.0761 42.8059 77.6417Z" fill="#212121"/>
<path opacity="0.869" fill-rule="evenodd" clip-rule="evenodd" d="M105.134 77.6429C106.442 77.5286 106.961 78.1157 106.692 79.4042C106.063 80.0731 105.385 80.1183 104.659 79.5397C104.289 78.7568 104.447 78.1246 105.134 77.6429Z" fill="#212121"/>
<path opacity="0.881" fill-rule="evenodd" clip-rule="evenodd" d="M43.4863 81.8443C43.9401 81.8219 44.3918 81.8445 44.8411 81.912C45.5037 82.5233 45.5489 83.1781 44.9766 83.8766C44.3379 84.2558 43.7282 84.2107 43.1476 83.7411C42.7977 83.0122 42.9107 82.3798 43.4863 81.8443Z" fill="#212121"/>
<path opacity="0.873" fill-rule="evenodd" clip-rule="evenodd" d="M104.184 81.8417C105.231 81.5593 105.818 81.9433 105.946 82.9933C105.916 83.7684 105.509 84.1523 104.726 84.1449C103.778 84.0104 103.394 83.4685 103.575 82.5191C103.714 82.2228 103.917 81.997 104.184 81.8417Z" fill="#212121"/>
<path opacity="0.96" fill-rule="evenodd" clip-rule="evenodd" d="M86.7091 85.0957C88.3774 86.7187 90.0483 88.3445 91.7221 89.9732C94.2753 88.407 96.9399 88.2037 99.7157 89.3635C103.427 91.6428 104.623 94.8718 103.306 99.0507C101.638 102.561 98.8604 104.119 94.9737 103.725C90.9667 102.812 88.8441 100.305 88.6059 96.2055C88.5509 94.5042 89.0477 92.9912 90.0963 91.6667C88.4517 90.1578 86.8485 88.5998 85.2865 86.9925C85.1962 86.857 85.1962 86.7215 85.2865 86.586C85.7884 86.107 86.2626 85.6103 86.7091 85.0957ZM94.7028 92.0055C95.4921 91.8685 95.9663 92.1846 96.1254 92.9539C96.1927 93.3123 96.2153 93.6737 96.1931 94.0377C96.8136 93.9853 97.4008 94.0983 97.9544 94.3764C98.4636 95.2581 98.2378 95.8452 97.277 96.1378C96.9185 96.2051 96.5571 96.2277 96.1931 96.2055C96.1931 96.928 96.1931 97.6507 96.1931 98.3733C96.8521 98.3057 97.4618 98.4411 98.0221 98.7797C98.453 99.656 98.2046 100.22 97.277 100.473C95.5323 100.766 94.4711 100.066 94.0931 98.3733C94.0255 97.6068 94.0028 96.839 94.0253 96.07C93.0925 95.871 92.844 95.329 93.2802 94.4442C93.4948 94.2598 93.7433 94.1694 94.0253 94.1732C93.8812 93.3081 94.107 92.5856 94.7028 92.0055Z" fill="#212121"/>
<path opacity="0.949" fill-rule="evenodd" clip-rule="evenodd" d="M62.0496 85.2298C62.1921 85.2096 62.3276 85.2321 62.456 85.2976C62.9529 85.7944 63.4496 86.2911 63.9464 86.7879C62.296 88.4156 60.6702 90.0641 59.0689 91.7331C60.5208 94.0251 60.8144 96.4639 59.9496 99.0493C58.2529 102.597 55.4303 104.155 51.4817 103.724C48.1623 102.933 46.1075 100.878 45.3171 97.559C44.9141 92.8742 46.969 89.916 51.4817 88.6847C53.5998 88.3449 55.5418 88.774 57.3076 89.9718C58.9363 88.4335 60.517 86.8528 62.0496 85.2298ZM51.7527 91.8686C52.7978 91.8408 53.8366 91.9086 54.8689 92.0718C56.5987 92.8879 57.3665 94.2652 57.1721 96.2041C57.2172 99.1397 55.7721 100.585 52.8366 100.54C49.8559 100.63 48.4107 99.1848 48.5011 96.2041C48.3295 93.7624 49.4133 92.3173 51.7527 91.8686ZM52.4301 95.2557C53.6969 95.2374 54.0583 95.802 53.514 96.9493C52.3564 97.3994 51.8371 97.0155 51.9559 95.7977C52.0494 95.547 52.2074 95.3663 52.4301 95.2557Z" fill="#212121"/>
<path opacity="0.859" fill-rule="evenodd" clip-rule="evenodd" d="M45.3803 85.7734C46.5308 85.8127 46.9598 86.3999 46.6674 87.5347C46.2671 88.0465 45.7477 88.2045 45.1093 88.0089C44.4588 87.5872 44.3008 87.0226 44.6351 86.3154C44.8383 86.0486 45.0867 85.868 45.3803 85.7734Z" fill="#212121"/>
<path opacity="0.861" fill-rule="evenodd" clip-rule="evenodd" d="M103.099 85.7735C104.111 85.7693 104.585 86.2661 104.521 87.2638C104.248 87.9987 103.729 88.2472 102.963 88.009C102.323 87.6791 102.12 87.1596 102.353 86.4509C102.503 86.0969 102.752 85.871 103.099 85.7735Z" fill="#212121"/>
<path opacity="0.927" fill-rule="evenodd" clip-rule="evenodd" d="M51.2107 94.0377C52.2955 94.0152 53.3794 94.0377 54.4624 94.1055C54.5865 94.1561 54.6995 94.2239 54.8011 94.3087C54.9513 94.926 55.0191 95.5581 55.0043 96.2055C55.4108 98.0572 54.6882 98.7797 52.8366 98.3733C52.2946 98.3506 51.7527 98.3281 51.2107 98.3055C51.0866 98.2548 50.9737 98.1871 50.872 98.1023C50.6543 96.942 50.6092 95.7679 50.7365 94.5797C50.83 94.329 50.988 94.1483 51.2107 94.0377ZM52.4301 95.2571C52.2074 95.3677 52.0493 95.5484 51.9559 95.799C51.8371 97.0169 52.3564 97.4007 53.514 96.9507C54.0582 95.8034 53.6969 95.2388 52.4301 95.2571Z" fill="#212121"/>
<path opacity="0.959" fill-rule="evenodd" clip-rule="evenodd" d="M73.5651 94.0381C75.5793 93.701 76.9568 94.4686 77.6974 96.3413C78.1014 98.3568 77.3562 99.7343 75.4618 100.474C73.4464 100.878 72.0689 100.132 71.3295 98.2381C70.9429 96.2103 71.688 94.8102 73.5651 94.0381Z" fill="#212121"/>
<path opacity="0.863" fill-rule="evenodd" clip-rule="evenodd" d="M61.5051 102.302C62.9082 102.133 63.4277 102.72 63.0632 104.063C62.3328 104.818 61.6554 104.773 61.0309 103.928C60.8609 103.283 61.019 102.741 61.5051 102.302Z" fill="#212121"/>
<path opacity="0.859" fill-rule="evenodd" clip-rule="evenodd" d="M86.4319 102.3C87.9059 102.244 88.3576 102.899 87.7868 104.265C86.5378 104.859 85.883 104.475 85.8223 103.113C85.9034 102.74 86.1066 102.469 86.4319 102.3Z" fill="#212121"/>
<path opacity="0.879" fill-rule="evenodd" clip-rule="evenodd" d="M82.6405 103.656C84.1716 103.895 84.4877 104.64 83.5889 105.892C82.5605 106.264 81.883 105.925 81.5566 104.876C81.6436 104.203 82.0048 103.796 82.6405 103.656Z" fill="#212121"/>
<path opacity="0.869" fill-rule="evenodd" clip-rule="evenodd" d="M65.4359 103.794C66.4788 103.501 67.1109 103.862 67.3327 104.877C67.1131 105.732 66.5712 106.071 65.7069 105.894C64.7443 105.304 64.6539 104.604 65.4359 103.794Z" fill="#212121"/>
<path opacity="0.869" fill-rule="evenodd" clip-rule="evenodd" d="M78.5767 104.471C79.5885 104.556 80.0176 105.098 79.8638 106.097C79.4713 106.727 78.9069 106.93 78.1703 106.706C77.6051 106.184 77.4923 105.574 77.8315 104.877C78.0857 104.727 78.3341 104.591 78.5767 104.471Z" fill="#212121"/>
<path opacity="0.879" fill-rule="evenodd" clip-rule="evenodd" d="M69.6331 104.607C70.8668 104.373 71.4314 104.87 71.3267 106.097C71.2203 106.339 71.0623 106.542 70.8525 106.707C69.6182 107.007 69.0536 106.533 69.1589 105.284C69.294 105.037 69.4521 104.811 69.6331 104.607Z" fill="#212121"/>
<path opacity="0.894" fill-rule="evenodd" clip-rule="evenodd" d="M73.9768 104.877C75.5159 104.769 75.9675 105.424 75.3317 106.841C73.9042 107.383 73.2945 106.908 73.5026 105.418C73.5961 105.168 73.7541 104.987 73.9768 104.877Z" fill="#212121"/>
</g>
<defs>
<linearGradient id="paint0_linear_173_255" x1="115.446" y1="-61.6913" x2="93.6181" y2="167.093" gradientUnits="userSpaceOnUse">
<stop stop-color="#5CFBD8"/>
<stop offset="0.49" stop-color="#2ED8EB"/>
<stop offset="1" stop-color="#00B6FF"/>
</linearGradient>
<clipPath id="clip0_173_255">
<rect width="149.555" height="149.555" rx="74.7773" fill="white"/>
</clipPath>
</defs>
</svg>
