<svg width="129" height="128" viewBox="0 0 129 128" fill="none" xmlns="http://www.w3.org/2000/svg">
<g clip-path="url(#clip0_414_957)">
<rect x="0.772461" y="0.308594" width="127.473" height="127.473" rx="63.7364" fill="#212121"/>
<path opacity="0.45" d="M128.245 64.0449C128.245 99.2456 99.7094 127.781 64.5088 127.781C29.3082 127.781 0.772461 99.2456 0.772461 64.0449C22.9728 18.9278 54.4829 92.6901 84.5607 91.2586C119.722 89.5853 128.245 28.8443 128.245 64.0449Z" fill="white" fill-opacity="0.06"/>
<path opacity="0.884" fill-rule="evenodd" clip-rule="evenodd" d="M64.0515 31.6294C65.5906 31.5224 66.0421 32.1773 65.4063 33.594C64.3648 34.083 63.6874 33.7895 63.374 32.7133C63.4679 32.2513 63.6938 31.89 64.0515 31.6294Z" fill="url(#paint0_linear_414_957)"/>
<path opacity="0.862" fill-rule="evenodd" clip-rule="evenodd" d="M68.5304 31.7661C69.4263 31.7363 69.9231 32.1653 70.0208 33.0532C69.8073 34.0156 69.2201 34.3317 68.2595 34.0016C67.6093 33.5855 67.4513 33.021 67.7853 32.308C67.9885 32.0413 68.2368 31.8607 68.5304 31.7661Z" fill="url(#paint1_linear_414_957)"/>
<path opacity="0.87" fill-rule="evenodd" clip-rule="evenodd" d="M59.7151 31.9013C61.0235 31.697 61.5879 32.2389 61.4087 33.5272C60.7739 34.3665 60.0965 34.4117 59.3764 33.6627C59.0806 32.9947 59.1935 32.4076 59.7151 31.9013Z" fill="url(#paint2_linear_414_957)"/>
<path opacity="0.858" fill-rule="evenodd" clip-rule="evenodd" d="M72.5844 32.577C73.5477 32.4795 74.0896 32.9085 74.2102 33.8642C74.0719 34.6119 73.6203 34.9958 72.8554 35.0158C71.8387 34.7419 71.5 34.1096 71.8392 33.119C72.0425 32.8523 72.2908 32.6716 72.5844 32.577Z" fill="url(#paint3_linear_414_957)"/>
<path opacity="0.878" fill-rule="evenodd" clip-rule="evenodd" d="M55.5167 32.7145C57.2371 32.646 57.6887 33.346 56.8716 34.8146C56.2297 35.1351 55.6426 35.0673 55.1103 34.6113C54.693 33.852 54.8285 33.2197 55.5167 32.7145Z" fill="url(#paint4_linear_414_957)"/>
<path opacity="0.859" fill-rule="evenodd" clip-rule="evenodd" d="M76.7921 34.0684C77.9009 34.0733 78.33 34.6153 78.0792 35.6942C77.7493 36.3342 77.2299 36.5374 76.5212 36.3039C75.9777 35.9853 75.7745 35.5111 75.9115 34.8813C76.106 34.4827 76.3996 34.2117 76.7921 34.0684Z" fill="url(#paint5_linear_414_957)"/>
<path opacity="0.865" fill-rule="evenodd" clip-rule="evenodd" d="M51.5881 34.2035C53.2096 34.0875 53.6612 34.7424 52.943 36.1681C52.2393 36.6272 51.6296 36.5143 51.1139 35.8293C50.9439 35.1841 51.102 34.6422 51.5881 34.2035Z" fill="url(#paint6_linear_414_957)"/>
<path opacity="0.958" fill-rule="evenodd" clip-rule="evenodd" d="M41.6969 34.8792C46.0693 34.5363 48.9371 36.4331 50.3002 40.5696C50.813 42.86 50.4292 44.9826 49.1486 46.9374C50.6822 48.5387 52.2402 50.1194 53.8228 51.6794C53.9132 51.8149 53.9132 51.9504 53.8228 52.0858C53.326 52.5827 52.8293 53.0794 52.3325 53.5762C50.7048 51.9258 49.0563 50.3 47.3873 48.6987C44.5406 50.4262 41.6503 50.4939 38.7162 48.9019C35.4908 46.4132 34.565 43.2293 35.9388 39.3502C37.1739 36.9619 39.0932 35.4715 41.6969 34.8792ZM40.7485 39.2147C41.9298 39.1744 43.104 39.2422 44.2711 39.418C46.1059 40.3423 46.535 41.7197 45.5582 43.5503C44.8421 44.3033 43.9614 44.6645 42.9163 44.6342C42.9839 45.2932 42.8484 45.9028 42.5098 46.4632C41.6335 46.8941 41.069 46.6457 40.8163 45.718C40.7259 44.6342 40.7259 43.5503 40.8163 42.4664C41.1088 41.5056 41.6959 41.2798 42.5776 41.789C42.7142 41.9956 42.782 42.2214 42.7808 42.4664C43.1449 42.4886 43.5062 42.466 43.8647 42.3986C44.0453 42.0825 44.0453 41.7664 43.8647 41.4503C42.8259 41.4051 41.7872 41.3599 40.7485 41.3148C39.7877 41.0222 39.5619 40.4351 40.0711 39.5535C40.3169 39.4509 40.5427 39.338 40.7485 39.2147Z" fill="url(#paint7_linear_414_957)"/>
<path opacity="0.962" fill-rule="evenodd" clip-rule="evenodd" d="M85.189 34.8821C90.0169 34.7663 92.8847 37.0695 93.7923 41.7918C93.9202 46.1652 91.8653 48.8974 87.6277 49.9887C85.5097 50.3285 83.5676 49.8994 81.8019 48.7016C80.2006 50.2352 78.6199 51.7932 77.0599 53.3758C76.9244 53.4662 76.7889 53.4662 76.6534 53.3758C76.1566 52.879 75.6599 52.3823 75.1631 51.8855C76.8134 50.2578 78.4393 48.6093 80.0406 46.9403C78.471 44.3872 78.2677 41.7227 79.4309 38.9466C80.7039 36.6733 82.6232 35.3184 85.189 34.8821ZM86.4084 38.2692C87.006 38.2043 87.5706 38.2946 88.1019 38.5402C88.3851 39.0307 88.3625 39.5049 88.0342 39.9628C87.5073 40.1562 86.988 40.3594 86.4761 40.5725C86.3233 40.8225 86.2555 41.0935 86.2729 41.3854C86.8934 41.333 87.4806 41.4459 88.0342 41.7241C88.5433 42.6058 88.3176 43.1929 87.3568 43.4854C86.9983 43.5527 86.6369 43.5754 86.2729 43.5531C86.323 44.4236 86.2553 45.2817 86.0697 46.1274C85.6658 46.6959 85.1465 46.8087 84.5116 46.4661C84.4268 46.3645 84.359 46.2515 84.3083 46.1274C84.1589 45.2798 84.0912 44.4217 84.1051 43.5531C84.0631 42.4055 84.1761 41.2764 84.4438 40.166C84.8851 39.3037 85.54 38.6715 86.4084 38.2692Z" fill="url(#paint8_linear_414_957)"/>
<path opacity="0.959" fill-rule="evenodd" clip-rule="evenodd" d="M63.6461 38.1328C65.6604 37.7957 67.0378 38.5634 67.7784 40.4361C68.1824 42.4516 67.4373 43.829 65.5429 44.5684C63.5274 44.9724 62.1499 44.2272 61.4106 42.3329C61.0239 40.305 61.7691 38.905 63.6461 38.1328Z" fill="url(#paint9_linear_414_957)"/>
<path opacity="0.98" fill-rule="evenodd" clip-rule="evenodd" d="M63.506 46.668C64.2286 46.668 64.9513 46.668 65.6738 46.668C65.6738 47.797 65.6738 48.9261 65.6738 50.0551C71.9592 50.7631 76.1367 54.105 78.2062 60.081C78.5133 61.0522 78.6714 62.0457 78.6804 63.0617C79.8094 63.0617 80.9385 63.0617 82.0675 63.0617C82.0675 63.7842 82.0675 64.5069 82.0675 65.2295C80.9385 65.2295 79.8094 65.2295 78.6804 65.2295C77.9723 71.5149 74.6305 75.6923 68.6545 77.7619C67.6833 78.069 66.6898 78.2271 65.6738 78.2361C65.6738 79.3651 65.6738 80.4942 65.6738 81.6232C64.9513 81.6232 64.2286 81.6232 63.506 81.6232C63.506 80.4942 63.506 79.3651 63.506 78.2361C57.2206 77.528 53.0432 74.1861 50.9736 68.2101C50.6665 67.239 50.5084 66.2455 50.4994 65.2295C49.3704 65.2295 48.2413 65.2295 47.1123 65.2295C47.1123 64.5069 47.1123 63.7842 47.1123 63.0617C48.2413 63.0617 49.3704 63.0617 50.4994 63.0617C51.2075 56.7763 54.5494 52.5988 60.5254 50.5293C61.4965 50.2222 62.49 50.064 63.506 50.0551C63.506 48.9261 63.506 47.797 63.506 46.668ZM69.1964 56.6939C70.2505 56.5516 70.8602 57.0032 71.0255 58.0487C71.1547 61.622 71.1096 65.1899 70.89 68.7521C70.4101 69.415 69.8004 69.6182 69.0609 69.3618C67.2752 66.7988 64.8365 65.8053 61.7447 66.3811C62.367 67.7514 62.9089 69.1514 63.3705 70.5811C63.1738 71.6068 62.6093 71.8552 61.677 71.3263C60.9544 69.6101 60.2318 67.8941 59.5092 66.1779C57.4874 65.3859 56.7648 63.9407 57.3414 61.8423C57.7904 60.9415 58.4905 60.3318 59.4415 60.0133C61.2425 59.8487 63.0489 59.7584 64.8609 59.7423C65.7405 59.5282 66.5534 59.167 67.2996 58.6584C67.9669 58.0142 68.5992 57.3593 69.1964 56.6939Z" fill="url(#paint10_linear_414_957)"/>
<path opacity="0.862" fill-rule="evenodd" clip-rule="evenodd" d="M35.3295 50.5968C36.6348 50.5241 37.109 51.1111 36.7521 52.3581C36.0205 53.0968 35.3431 53.0517 34.7198 52.2227C34.5131 51.5099 34.7163 50.9679 35.3295 50.5968Z" fill="url(#paint11_linear_414_957)"/>
<path opacity="0.863" fill-rule="evenodd" clip-rule="evenodd" d="M92.9131 50.5984C93.9155 50.3757 94.5026 50.7597 94.6744 51.7501C94.5532 52.4358 94.1468 52.8196 93.455 52.9017C92.4937 52.6972 92.155 52.1101 92.4389 51.1404C92.6253 50.9771 92.7833 50.7965 92.9131 50.5984Z" fill="url(#paint12_linear_414_957)"/>
<path opacity="0.867" fill-rule="evenodd" clip-rule="evenodd" d="M33.699 54.5262C34.7121 54.3078 35.2992 54.6916 35.4603 55.6778C35.2988 56.6858 34.7117 57.0472 33.699 56.7617C33.08 56.4174 32.8768 55.898 33.0893 55.2036C33.2282 54.9073 33.4314 54.6815 33.699 54.5262Z" fill="url(#paint13_linear_414_957)"/>
<path opacity="0.872" fill-rule="evenodd" clip-rule="evenodd" d="M94.5374 54.5254C96.0532 54.5998 96.4597 55.2997 95.7568 56.6254C94.4323 57.1511 93.7775 56.722 93.7922 55.3383C93.9765 54.9965 94.2248 54.7255 94.5374 54.5254Z" fill="url(#paint14_linear_414_957)"/>
<path opacity="0.87" fill-rule="evenodd" clip-rule="evenodd" d="M33.0281 58.7252C34.2944 58.7025 34.7686 59.2895 34.4507 60.4866C33.7733 61.2091 33.0959 61.2091 32.4184 60.4866C32.1229 59.7247 32.3261 59.1377 33.0281 58.7252Z" fill="url(#paint15_linear_414_957)"/>
<path opacity="0.874" fill-rule="evenodd" clip-rule="evenodd" d="M95.3482 58.7259C96.5907 58.6819 97.0649 59.2691 96.7708 60.4872C96.3704 60.999 95.8511 61.1569 95.2127 60.9614C94.5936 60.6172 94.3904 60.0977 94.603 59.4034C94.7862 59.0987 95.0345 58.8728 95.3482 58.7259Z" fill="url(#paint16_linear_414_957)"/>
<path opacity="0.959" fill-rule="evenodd" clip-rule="evenodd" d="M40.8814 60.8926C42.8957 60.5555 44.2732 61.3231 45.0137 63.1958C45.4177 65.2113 44.6726 66.5888 42.7782 67.3281C40.7627 67.7321 39.3853 66.987 38.6459 65.0926C38.2593 63.0648 39.0045 61.6647 40.8814 60.8926Z" fill="url(#paint17_linear_414_957)"/>
<path opacity="0.959" fill-rule="evenodd" clip-rule="evenodd" d="M86.4029 60.8926C88.4172 60.5555 89.7947 61.3231 90.5352 63.1958C90.9393 65.2113 90.1941 66.5888 88.2997 67.3281C86.2843 67.7321 84.9068 66.987 84.1674 65.0926C83.7808 63.0648 84.5259 61.6647 86.4029 60.8926Z" fill="url(#paint18_linear_414_957)"/>
<path opacity="0.884" fill-rule="evenodd" clip-rule="evenodd" d="M95.8938 62.9287C96.953 63.058 97.337 63.645 97.0454 64.69C96.9777 64.9384 96.8196 65.0965 96.5712 65.1642C95.0305 65.3376 94.5789 64.7053 95.2164 63.2674C95.4623 63.1649 95.688 63.052 95.8938 62.9287Z" fill="url(#paint19_linear_414_957)"/>
<path opacity="0.884" fill-rule="evenodd" clip-rule="evenodd" d="M32.6185 63.0621C34.1575 62.955 34.6092 63.6098 33.9733 65.0266C33.394 65.4721 32.8294 65.4496 32.2797 64.9589C31.9308 64.2183 32.0437 63.586 32.6185 63.0621Z" fill="url(#paint20_linear_414_957)"/>
<path opacity="0.866" fill-rule="evenodd" clip-rule="evenodd" d="M32.8879 67.2609C34.2911 67.0915 34.8104 67.6787 34.446 69.0222C33.7736 69.7283 33.0962 69.7283 32.4138 69.0222C32.0544 68.2823 32.2124 67.6952 32.8879 67.2609Z" fill="url(#paint21_linear_414_957)"/>
<path opacity="0.869" fill-rule="evenodd" clip-rule="evenodd" d="M95.2157 67.262C96.5239 67.1478 97.0433 67.7348 96.7738 69.0233C96.1446 69.6922 95.4672 69.7375 94.7415 69.1588C94.3712 68.376 94.5293 67.7438 95.2157 67.262Z" fill="url(#paint22_linear_414_957)"/>
<path opacity="0.881" fill-rule="evenodd" clip-rule="evenodd" d="M33.5673 71.4615C34.0212 71.4391 34.4728 71.4617 34.9222 71.5292C35.5848 72.1405 35.6299 72.7953 35.0577 73.4937C34.4189 73.873 33.8093 73.8278 33.2286 73.3583C32.8788 72.6293 32.9917 71.997 33.5673 71.4615Z" fill="url(#paint23_linear_414_957)"/>
<path opacity="0.873" fill-rule="evenodd" clip-rule="evenodd" d="M94.2654 71.4599C95.3121 71.1775 95.8991 71.5615 96.0267 72.6115C95.9967 73.3866 95.5902 73.7704 94.8074 73.7631C93.8587 73.6286 93.4749 73.0866 93.6558 72.1373C93.7946 71.841 93.9979 71.6151 94.2654 71.4599Z" fill="url(#paint24_linear_414_957)"/>
<path opacity="0.96" fill-rule="evenodd" clip-rule="evenodd" d="M76.7921 74.7139C78.4604 76.3368 80.1313 77.9627 81.8051 79.5913C84.3583 78.0251 87.0229 77.8219 89.7987 78.9817C93.5095 81.2609 94.7063 84.4899 93.3891 88.6689C91.7209 92.1793 88.9434 93.7374 85.0567 93.3431C81.0498 92.4298 78.9271 89.9233 78.6889 85.8237C78.6339 84.1224 79.1307 82.6094 80.1793 81.2849C78.5347 79.776 76.9315 78.2179 75.3695 76.6107C75.2792 76.4752 75.2792 76.3397 75.3695 76.2042C75.8714 75.7251 76.3456 75.2284 76.7921 74.7139ZM84.7858 81.6236C85.5751 81.4866 86.0493 81.8027 86.2084 82.572C86.2757 82.9305 86.2983 83.2918 86.2761 83.6559C86.8966 83.6035 87.4838 83.7165 88.0374 83.9946C88.5466 84.8762 88.3208 85.4634 87.36 85.7559C87.0015 85.8233 86.6402 85.8459 86.2761 85.8237C86.2761 86.5462 86.2761 87.2689 86.2761 87.9914C86.9351 87.9238 87.5448 88.0593 88.1052 88.3979C88.536 89.2742 88.2877 89.8386 87.36 90.0915C85.6153 90.3844 84.5541 89.6843 84.1761 87.9914C84.1085 87.225 84.0858 86.4572 84.1083 85.6882C83.1755 85.4892 82.927 84.9472 83.3632 84.0624C83.5778 83.878 83.8263 83.7876 84.1083 83.7914C83.9642 82.9263 84.19 82.2038 84.7858 81.6236Z" fill="url(#paint25_linear_414_957)"/>
<path opacity="0.949" fill-rule="evenodd" clip-rule="evenodd" d="M52.1316 74.849C52.2741 74.8288 52.4096 74.8513 52.5381 74.9167C53.0349 75.4135 53.5316 75.9102 54.0284 76.407C52.3781 78.0348 50.7522 79.6832 49.1509 81.3523C50.6028 83.6443 50.8964 86.083 50.0316 88.6685C48.3349 92.2161 45.5123 93.7742 41.5638 93.3427C38.2444 92.5524 36.1895 90.4975 35.3992 87.1781C34.9961 82.4933 37.051 79.5351 41.5638 78.3038C43.6818 77.964 45.6238 78.3931 47.3896 79.5909C49.0183 78.0526 50.599 76.4719 52.1316 74.849ZM41.8347 81.4877C42.8799 81.46 43.9186 81.5277 44.9509 81.691C46.6808 82.507 47.4486 83.8843 47.2541 85.8233C47.2993 88.7588 45.8542 90.2039 42.9186 90.1588C39.9379 90.2492 38.4928 88.8039 38.5831 85.8233C38.4115 83.3815 39.4954 81.9365 41.8347 81.4877ZM42.5122 84.8749C43.7789 84.8566 44.1403 85.4211 43.596 86.5684C42.4385 87.0185 41.9191 86.6347 42.038 85.4168C42.1314 85.1662 42.2895 84.9854 42.5122 84.8749Z" fill="url(#paint26_linear_414_957)"/>
<path opacity="0.859" fill-rule="evenodd" clip-rule="evenodd" d="M35.4614 75.3906C36.6119 75.4299 37.0409 76.0171 36.7485 77.1519C36.3481 77.6637 35.8288 77.8216 35.1904 77.6261C34.5399 77.2044 34.3818 76.6398 34.7162 75.9326C34.9194 75.6658 35.1678 75.4852 35.4614 75.3906Z" fill="url(#paint27_linear_414_957)"/>
<path opacity="0.861" fill-rule="evenodd" clip-rule="evenodd" d="M93.1806 75.3907C94.1929 75.3865 94.6671 75.8833 94.6032 76.881C94.33 77.6159 93.8107 77.8643 93.0452 77.6262C92.4051 77.2963 92.2019 76.7768 92.4355 76.0681C92.5855 75.7141 92.8338 75.4882 93.1806 75.3907Z" fill="url(#paint28_linear_414_957)"/>
<path opacity="0.927" fill-rule="evenodd" clip-rule="evenodd" d="M41.2928 83.6559C42.3776 83.6334 43.4615 83.6559 44.5444 83.7236C44.6685 83.7743 44.7815 83.842 44.8831 83.9269C45.0334 84.5441 45.1011 85.1763 45.0863 85.8237C45.4928 87.6753 44.7703 88.3979 42.9186 87.9914C42.3766 87.9688 41.8347 87.9463 41.2928 87.9237C41.1686 87.873 41.0557 87.8053 40.954 87.7204C40.7364 86.5602 40.6912 85.386 40.8186 84.1978C40.912 83.9472 41.0701 83.7664 41.2928 83.6559ZM42.5121 84.8753C42.2894 84.9858 42.1314 85.1666 42.0379 85.4172C41.9191 86.6351 42.4385 87.0189 43.596 86.5688C44.1403 85.4215 43.7789 84.857 42.5121 84.8753Z" fill="url(#paint29_linear_414_957)"/>
<path opacity="0.959" fill-rule="evenodd" clip-rule="evenodd" d="M63.6461 83.6572C65.6604 83.3201 67.0378 84.0878 67.7784 85.9605C68.1824 87.9759 67.4373 89.3534 65.5429 90.0928C63.5274 90.4968 62.1499 89.7516 61.4106 87.8573C61.0239 85.8295 61.7691 84.4293 63.6461 83.6572Z" fill="url(#paint30_linear_414_957)"/>
<path opacity="0.863" fill-rule="evenodd" clip-rule="evenodd" d="M51.5881 91.92C52.9912 91.7507 53.5107 92.3379 53.1462 93.6813C52.4158 94.4359 51.7384 94.3907 51.1139 93.5459C50.9439 92.9007 51.102 92.3587 51.5881 91.92Z" fill="url(#paint31_linear_414_957)"/>
<path opacity="0.859" fill-rule="evenodd" clip-rule="evenodd" d="M76.515 91.9193C77.9889 91.8634 78.4406 92.5182 77.8698 93.8839C76.6208 94.478 75.966 94.0941 75.9053 92.7322C75.9864 92.3591 76.1897 92.0881 76.515 91.9193Z" fill="url(#paint32_linear_414_957)"/>
<path opacity="0.879" fill-rule="evenodd" clip-rule="evenodd" d="M72.7216 93.2744C74.2527 93.5134 74.5688 94.2586 73.67 95.5099C72.6415 95.8818 71.9641 95.5431 71.6377 94.4938C71.7247 93.8208 72.0859 93.4144 72.7216 93.2744Z" fill="url(#paint33_linear_414_957)"/>
<path opacity="0.869" fill-rule="evenodd" clip-rule="evenodd" d="M55.517 93.4107C56.5598 93.1181 57.192 93.4794 57.4138 94.4946C57.1942 95.3496 56.6522 95.6884 55.788 95.5107C54.8253 94.9207 54.735 94.2208 55.517 93.4107Z" fill="url(#paint34_linear_414_957)"/>
<path opacity="0.869" fill-rule="evenodd" clip-rule="evenodd" d="M68.6597 94.0889C69.6715 94.1745 70.1006 94.7164 69.9468 95.7147C69.5543 96.3454 68.9899 96.5486 68.2533 96.3244C67.6882 95.8022 67.5753 95.1925 67.9146 94.4953C68.1687 94.3451 68.4171 94.2096 68.6597 94.0889Z" fill="url(#paint35_linear_414_957)"/>
<path opacity="0.879" fill-rule="evenodd" clip-rule="evenodd" d="M59.7151 94.2238C60.9489 93.9907 61.5134 94.4875 61.4087 95.7142C61.3023 95.9561 61.1444 96.1594 60.9345 96.3239C59.7002 96.6241 59.1357 96.1499 59.2409 94.9013C59.376 94.6543 59.5341 94.4284 59.7151 94.2238Z" fill="url(#paint36_linear_414_957)"/>
<path opacity="0.894" fill-rule="evenodd" clip-rule="evenodd" d="M64.0579 94.4957C65.597 94.3886 66.0485 95.0434 65.4127 96.4602C63.9852 97.0017 63.3756 96.5275 63.5837 95.0376C63.6771 94.7869 63.8351 94.6062 64.0579 94.4957Z" fill="url(#paint37_linear_414_957)"/>
</g>
<defs>
<linearGradient id="paint0_linear_414_957" x1="65.7109" y1="31.5399" x2="63.604" y2="34.7459" gradientUnits="userSpaceOnUse">
<stop offset="0.1" stop-color="#5CFBD8"/>
<stop offset="0.49" stop-color="#2ED8EB"/>
<stop offset="0.93" stop-color="#00B6FF"/>
</linearGradient>
<linearGradient id="paint1_linear_414_957" x1="70.0476" y1="31.6808" x2="67.7638" y2="35.0556" gradientUnits="userSpaceOnUse">
<stop offset="0.1" stop-color="#5CFBD8"/>
<stop offset="0.49" stop-color="#2ED8EB"/>
<stop offset="0.93" stop-color="#00B6FF"/>
</linearGradient>
<linearGradient id="paint2_linear_414_957" x1="61.4658" y1="31.7766" x2="59.1605" y2="34.9689" gradientUnits="userSpaceOnUse">
<stop offset="0.1" stop-color="#5CFBD8"/>
<stop offset="0.49" stop-color="#2ED8EB"/>
<stop offset="0.93" stop-color="#00B6FF"/>
</linearGradient>
<linearGradient id="paint3_linear_414_957" x1="74.2381" y1="32.4764" x2="71.8692" y2="35.9802" gradientUnits="userSpaceOnUse">
<stop offset="0.1" stop-color="#5CFBD8"/>
<stop offset="0.49" stop-color="#2ED8EB"/>
<stop offset="0.93" stop-color="#00B6FF"/>
</linearGradient>
<linearGradient id="paint4_linear_414_957" x1="57.2929" y1="32.6282" x2="55.0847" y2="35.9585" gradientUnits="userSpaceOnUse">
<stop offset="0.1" stop-color="#5CFBD8"/>
<stop offset="0.49" stop-color="#2ED8EB"/>
<stop offset="0.93" stop-color="#00B6FF"/>
</linearGradient>
<linearGradient id="paint5_linear_414_957" x1="78.174" y1="33.9857" x2="75.8915" y2="37.2275" gradientUnits="userSpaceOnUse">
<stop offset="0.1" stop-color="#5CFBD8"/>
<stop offset="0.49" stop-color="#2ED8EB"/>
<stop offset="0.93" stop-color="#00B6FF"/>
</linearGradient>
<linearGradient id="paint6_linear_414_957" x1="53.2985" y1="34.1104" x2="51.0967" y2="37.2672" gradientUnits="userSpaceOnUse">
<stop offset="0.1" stop-color="#5CFBD8"/>
<stop offset="0.49" stop-color="#2ED8EB"/>
<stop offset="0.93" stop-color="#00B6FF"/>
</linearGradient>
<linearGradient id="paint7_linear_414_957" x1="54.0974" y1="34.1748" x2="35.8174" y2="60.4756" gradientUnits="userSpaceOnUse">
<stop offset="0.1" stop-color="#5CFBD8"/>
<stop offset="0.49" stop-color="#2ED8EB"/>
<stop offset="0.93" stop-color="#00B6FF"/>
</linearGradient>
<linearGradient id="paint8_linear_414_957" x1="94.0055" y1="34.2189" x2="75.9737" y2="60.4961" gradientUnits="userSpaceOnUse">
<stop offset="0.1" stop-color="#5CFBD8"/>
<stop offset="0.49" stop-color="#2ED8EB"/>
<stop offset="0.93" stop-color="#00B6FF"/>
</linearGradient>
<linearGradient id="paint9_linear_414_957" x1="67.9581" y1="37.8207" x2="61.5049" y2="47.1251" gradientUnits="userSpaceOnUse">
<stop offset="0.1" stop-color="#5CFBD8"/>
<stop offset="0.49" stop-color="#2ED8EB"/>
<stop offset="0.93" stop-color="#00B6FF"/>
</linearGradient>
<linearGradient id="paint10_linear_414_957" x1="82.4568" y1="45.4272" x2="48.4616" y2="94.7836" gradientUnits="userSpaceOnUse">
<stop offset="0.1" stop-color="#5CFBD8"/>
<stop offset="0.49" stop-color="#2ED8EB"/>
<stop offset="0.93" stop-color="#00B6FF"/>
</linearGradient>
<linearGradient id="paint11_linear_414_957" x1="36.8918" y1="50.5096" x2="34.6435" y2="53.6827" gradientUnits="userSpaceOnUse">
<stop offset="0.1" stop-color="#5CFBD8"/>
<stop offset="0.49" stop-color="#2ED8EB"/>
<stop offset="0.93" stop-color="#00B6FF"/>
</linearGradient>
<linearGradient id="paint12_linear_414_957" x1="94.7003" y1="50.4532" x2="92.3897" y2="53.7625" gradientUnits="userSpaceOnUse">
<stop offset="0.1" stop-color="#5CFBD8"/>
<stop offset="0.49" stop-color="#2ED8EB"/>
<stop offset="0.93" stop-color="#00B6FF"/>
</linearGradient>
<linearGradient id="paint13_linear_414_957" x1="35.4876" y1="54.382" x2="33.186" y2="57.8118" gradientUnits="userSpaceOnUse">
<stop offset="0.1" stop-color="#5CFBD8"/>
<stop offset="0.49" stop-color="#2ED8EB"/>
<stop offset="0.93" stop-color="#00B6FF"/>
</linearGradient>
<linearGradient id="paint14_linear_414_957" x1="96.1164" y1="54.4431" x2="93.8566" y2="57.6981" gradientUnits="userSpaceOnUse">
<stop offset="0.1" stop-color="#5CFBD8"/>
<stop offset="0.49" stop-color="#2ED8EB"/>
<stop offset="0.93" stop-color="#00B6FF"/>
</linearGradient>
<linearGradient id="paint15_linear_414_957" x1="34.5716" y1="58.6428" x2="32.3157" y2="61.8547" gradientUnits="userSpaceOnUse">
<stop offset="0.1" stop-color="#5CFBD8"/>
<stop offset="0.49" stop-color="#2ED8EB"/>
<stop offset="0.93" stop-color="#00B6FF"/>
</linearGradient>
<linearGradient id="paint16_linear_414_957" x1="96.8812" y1="58.6413" x2="94.6311" y2="61.929" gradientUnits="userSpaceOnUse">
<stop offset="0.1" stop-color="#5CFBD8"/>
<stop offset="0.49" stop-color="#2ED8EB"/>
<stop offset="0.93" stop-color="#00B6FF"/>
</linearGradient>
<linearGradient id="paint17_linear_414_957" x1="45.1935" y1="60.5805" x2="38.7402" y2="69.8849" gradientUnits="userSpaceOnUse">
<stop offset="0.1" stop-color="#5CFBD8"/>
<stop offset="0.49" stop-color="#2ED8EB"/>
<stop offset="0.93" stop-color="#00B6FF"/>
</linearGradient>
<linearGradient id="paint18_linear_414_957" x1="90.715" y1="60.5805" x2="84.2617" y2="69.8849" gradientUnits="userSpaceOnUse">
<stop offset="0.1" stop-color="#5CFBD8"/>
<stop offset="0.49" stop-color="#2ED8EB"/>
<stop offset="0.93" stop-color="#00B6FF"/>
</linearGradient>
<linearGradient id="paint19_linear_414_957" x1="97.1643" y1="62.8484" x2="94.9425" y2="65.9884" gradientUnits="userSpaceOnUse">
<stop offset="0.1" stop-color="#5CFBD8"/>
<stop offset="0.49" stop-color="#2ED8EB"/>
<stop offset="0.93" stop-color="#00B6FF"/>
</linearGradient>
<linearGradient id="paint20_linear_414_957" x1="34.2763" y1="62.9694" x2="32.004" y2="66.0905" gradientUnits="userSpaceOnUse">
<stop offset="0.1" stop-color="#5CFBD8"/>
<stop offset="0.49" stop-color="#2ED8EB"/>
<stop offset="0.93" stop-color="#00B6FF"/>
</linearGradient>
<linearGradient id="paint21_linear_414_957" x1="34.5847" y1="67.1501" x2="32.3335" y2="70.4366" gradientUnits="userSpaceOnUse">
<stop offset="0.1" stop-color="#5CFBD8"/>
<stop offset="0.49" stop-color="#2ED8EB"/>
<stop offset="0.93" stop-color="#00B6FF"/>
</linearGradient>
<linearGradient id="paint22_linear_414_957" x1="96.8684" y1="67.1659" x2="94.6126" y2="70.4164" gradientUnits="userSpaceOnUse">
<stop offset="0.1" stop-color="#5CFBD8"/>
<stop offset="0.49" stop-color="#2ED8EB"/>
<stop offset="0.93" stop-color="#00B6FF"/>
</linearGradient>
<linearGradient id="paint23_linear_414_957" x1="35.4825" y1="71.3717" x2="33.2971" y2="74.7248" gradientUnits="userSpaceOnUse">
<stop offset="0.1" stop-color="#5CFBD8"/>
<stop offset="0.49" stop-color="#2ED8EB"/>
<stop offset="0.93" stop-color="#00B6FF"/>
</linearGradient>
<linearGradient id="paint24_linear_414_957" x1="96.0536" y1="71.2852" x2="93.7337" y2="74.6834" gradientUnits="userSpaceOnUse">
<stop offset="0.1" stop-color="#5CFBD8"/>
<stop offset="0.49" stop-color="#2ED8EB"/>
<stop offset="0.93" stop-color="#00B6FF"/>
</linearGradient>
<linearGradient id="paint25_linear_414_957" x1="94.1139" y1="74.0505" x2="75.9092" y2="100.362" gradientUnits="userSpaceOnUse">
<stop offset="0.1" stop-color="#5CFBD8"/>
<stop offset="0.49" stop-color="#2ED8EB"/>
<stop offset="0.93" stop-color="#00B6FF"/>
</linearGradient>
<linearGradient id="paint26_linear_414_957" x1="54.2364" y1="74.1826" x2="36.2128" y2="100.502" gradientUnits="userSpaceOnUse">
<stop offset="0.1" stop-color="#5CFBD8"/>
<stop offset="0.49" stop-color="#2ED8EB"/>
<stop offset="0.93" stop-color="#00B6FF"/>
</linearGradient>
<linearGradient id="paint27_linear_414_957" x1="36.8629" y1="75.3084" x2="34.6012" y2="78.5564" gradientUnits="userSpaceOnUse">
<stop offset="0.1" stop-color="#5CFBD8"/>
<stop offset="0.49" stop-color="#2ED8EB"/>
<stop offset="0.93" stop-color="#00B6FF"/>
</linearGradient>
<linearGradient id="paint28_linear_414_957" x1="94.6342" y1="75.3082" x2="92.3559" y2="78.5364" gradientUnits="userSpaceOnUse">
<stop offset="0.1" stop-color="#5CFBD8"/>
<stop offset="0.49" stop-color="#2ED8EB"/>
<stop offset="0.93" stop-color="#00B6FF"/>
</linearGradient>
<linearGradient id="paint29_linear_414_957" x1="45.2456" y1="83.4894" x2="40.9123" y2="89.7728" gradientUnits="userSpaceOnUse">
<stop offset="0.1" stop-color="#5CFBD8"/>
<stop offset="0.49" stop-color="#2ED8EB"/>
<stop offset="0.93" stop-color="#00B6FF"/>
</linearGradient>
<linearGradient id="paint30_linear_414_957" x1="67.9581" y1="83.3451" x2="61.5049" y2="92.6495" gradientUnits="userSpaceOnUse">
<stop offset="0.1" stop-color="#5CFBD8"/>
<stop offset="0.49" stop-color="#2ED8EB"/>
<stop offset="0.93" stop-color="#00B6FF"/>
</linearGradient>
<linearGradient id="paint31_linear_414_957" x1="53.2835" y1="91.8091" x2="50.9858" y2="94.9834" gradientUnits="userSpaceOnUse">
<stop offset="0.1" stop-color="#5CFBD8"/>
<stop offset="0.49" stop-color="#2ED8EB"/>
<stop offset="0.93" stop-color="#00B6FF"/>
</linearGradient>
<linearGradient id="paint32_linear_414_957" x1="78.1333" y1="91.8366" x2="75.9443" y2="94.9651" gradientUnits="userSpaceOnUse">
<stop offset="0.1" stop-color="#5CFBD8"/>
<stop offset="0.49" stop-color="#2ED8EB"/>
<stop offset="0.93" stop-color="#00B6FF"/>
</linearGradient>
<linearGradient id="paint33_linear_414_957" x1="74.1969" y1="93.1899" x2="71.9341" y2="96.6813" gradientUnits="userSpaceOnUse">
<stop offset="0.1" stop-color="#5CFBD8"/>
<stop offset="0.49" stop-color="#2ED8EB"/>
<stop offset="0.93" stop-color="#00B6FF"/>
</linearGradient>
<linearGradient id="paint34_linear_414_957" x1="57.4408" y1="93.2328" x2="55.3224" y2="96.5531" gradientUnits="userSpaceOnUse">
<stop offset="0.1" stop-color="#5CFBD8"/>
<stop offset="0.49" stop-color="#2ED8EB"/>
<stop offset="0.93" stop-color="#00B6FF"/>
</linearGradient>
<linearGradient id="paint35_linear_414_957" x1="70.0024" y1="94.0064" x2="67.7186" y2="97.2221" gradientUnits="userSpaceOnUse">
<stop offset="0.1" stop-color="#5CFBD8"/>
<stop offset="0.49" stop-color="#2ED8EB"/>
<stop offset="0.93" stop-color="#00B6FF"/>
</linearGradient>
<linearGradient id="paint36_linear_414_957" x1="61.4454" y1="94.0883" x2="59.2465" y2="97.2087" gradientUnits="userSpaceOnUse">
<stop offset="0.1" stop-color="#5CFBD8"/>
<stop offset="0.49" stop-color="#2ED8EB"/>
<stop offset="0.93" stop-color="#00B6FF"/>
</linearGradient>
<linearGradient id="paint37_linear_414_957" x1="65.7155" y1="94.4066" x2="63.568" y2="97.4608" gradientUnits="userSpaceOnUse">
<stop offset="0.1" stop-color="#5CFBD8"/>
<stop offset="0.49" stop-color="#2ED8EB"/>
<stop offset="0.93" stop-color="#00B6FF"/>
</linearGradient>
<clipPath id="clip0_414_957">
<rect x="0.772461" y="0.308594" width="127.473" height="127.473" rx="63.7364" fill="white"/>
</clipPath>
</defs>
</svg>
