<svg xmlns="http://www.w3.org/2000/svg" width="522.667" height="172" viewBox="0 0 392 129" preserveAspectRatio="xMidYMid meet" xmlns:v="https://vecta.io/nano"><path d="M0 64.5V129h196 196V64.5 0H196 0v64.5zm368-43.1c0 .8-1.5 4.3-3.4 7.9s-3.2 6.8-2.9 7.1c.4.3-.1.6-1 .6-.8 0-1.9 1-2.2 2.1-.7 2.2 1.1 6.9 2.7 6.9.4 0 .8.4.8 1 0 .5.8 1.9 1.8 2.9 3.1 3.5 4.1 4.8 6.1 8.7 3.8 7 1.9 10.7-2.8 5.8-2.8-3-11.5-10.4-13.5-11.6-1.2-.7-5.9 2.6-4.9 3.6.4.3-.1.6-1 .6s-1.6.5-1.4 1.2c.1.6-.9 1.5-2.3 1.9s-1.8.8-1 .8c1 .1.5 1-1.5 2.8-4.8 4.2-4.4.7 1.1-9.3 4.6-8.5 4.7-8.7 2.8-10.3-1.1-.9-3-3.3-4.3-5.4-1.2-2-2.6-3.7-3.1-3.7s-1.6-1.8-2.6-4-2.1-4-2.5-4c-.5 0-.6-1.9 0-5.3 0-.5 1.1-.7 2.4-.5 1.2.2 2.1.9 1.9 1.6-.1.8.2 1.1.7.7 1.4-.8 5.4 3.3 4.8 4.9-.3.6.3 1.2 1.3 1.3.9.1 3.1 1.5 4.8 3.2s3.5 3.1 4.1 3.1 3.6-3.6 6.7-8c5.2-7.4 8.4-10 8.4-6.6zm-243.3 3.1c5.1 3.4 6.3 7 6.3 19.6 0 10.4-.2 12-2.3 15-5.8 8.8-18.7 8.6-23.3-.3-2.1-4-2.9-17.1-1.5-24 1.3-6.2 5.2-11.3 9.4-12.1 3.5-.8 8.7.1 11.4 1.8zM251.2 23c4.9 1.4 8.8 6.1 8.8 10.6 0 3.2-.2 3.5-2.7 3.2-2.1-.2-2.9-1-3.5-3.4-1.5-6.1-10.4-6.9-13.3-1.3-2.1 3.9-2 20 0 23.9 2.9 5.7 11.1 5 13.1-1.1.9-2.6 1.8-3.5 3.8-3.7 2.4-.3 2.6 0 2.6 3.2 0 4.5-3.9 9.2-9.1 10.7-7.7 2.3-16-2.7-17.5-10.5-.3-1.9-.4-7.9-.2-13.4.3-11.3 1.7-14.3 7.9-17.4 3.9-2.1 5.1-2.2 10.1-.8zM35 24.6c5.6 3.4 7.7 11.2 4.5 17.4-2 3.9-4.8 5.3-11.5 6l-5.5.5-.3 8.3-.3 8.3-2.7-.3-2.7-.3-.3-19.5c-.1-10.7 0-20 .2-20.7.8-2 15.1-1.7 18.6.3zm46.2 2.2c2.9 2.9 3.3 3.9 3.3 8.7s-.4 5.8-3.5 9L77.6 48l3.7 7.5c2 4.2 3.7 8 3.7 8.5 0 .6-1.4 1-3 1-2.9 0-3.4-.6-7.2-8.5-3.4-7.1-4.4-8.5-6.4-8.5-2.3 0-2.4.2-2.4 8.5V65h-3-3V44.7c0-11.2.3-20.7.8-21.1.4-.4 4.4-.6 8.9-.4 7.8.3 8.4.5 11.5 3.6zM170 41v18l-2.9 3.2c-2.6 2.9-3.6 3.3-7.9 3.3-5.8 0-9.4-2.6-11.3-8.2-1.4-4.3-.6-6.3 2.5-6.3 1.9 0 2.5.6 3 3.5 1 5.1 5.8 7.2 9 3.9 1.3-1.3 1.6-4.4 1.6-17.8 0-8.9.3-16.6.7-16.9.3-.4 1.7-.7 3-.7h2.3v18zm44-15v3h-8-8v6 6h7.6 7.5l-.3 2.7c-.3 2.7-.5 2.8-7.5 3.1l-7.3.3V53v6h8 8v3 3h-11-11V44 23h11 11v3zm86.5 0c0 2.3-.4 2.5-4.7 2.8l-4.8.3v18V65h-3-3V47 29h-4.5c-4.7 0-6.3-1.4-5.1-4.5.5-1.3 2.6-1.5 12.8-1.3l12.3.3V26zm-199 74c-.3.5-1.9 1-3.6 1-1.9 0-2.9.5-2.9 1.5s1 1.5 3.1 1.5c1.7 0 2.8.4 2.4 1-.3.5-1.7 1-3.1 1-1.7 0-2.4.5-2.4 2 0 1.6.7 2 3.7 2 2.6 0 3.4.3 2.6 1.1-.6.6-2.6.9-4.4.7l-3.4-.3-.3-6.3-.3-6.2h4.6c2.8 0 4.4.4 4 1zm12.2 3.2l2.2 4.3v-4.3c.1-2.3.6-4.2 1.1-4.2.6 0 1 2.8 1 6.5 0 3.6-.4 6.5-1 6.5-.5 0-2.1-2.1-3.4-4.8l-2.5-4.7-.1 4.8c0 3-.4 4.6-1 4.2-.5-.3-1-3.3-1-6.6 0-7.2 1.7-7.8 4.7-1.7zM135 100c0 .5-.9 1-2 1-1.8 0-2 .7-2 5.5 0 3-.4 5.5-1 5.5-.5 0-1-2.5-1-5.5 0-4.8-.2-5.5-2-5.5-1.1 0-2-.5-2-1 0-.6 2.3-1 5-1 2.8 0 5 .4 5 1zm15.5 0c-.3.5-1.9 1-3.6 1-1.9 0-2.9.5-2.9 1.5s1 1.5 3.1 1.5c1.7 0 2.8.4 2.4 1-.3.5-1.7 1-3.1 1-1.7 0-2.4.5-2.4 2 0 1.6.7 2 3.7 2 2.6 0 3.4.3 2.6 1.1-.6.6-2.6.9-4.4.7l-3.4-.3-.3-6.3-.3-6.2h4.6c2.8 0 4.4.4 4 1zm16 1c.4 1.2.1 2.7-.5 3.5-.8 1-.9 1.9 0 3.5 1.9 3.6.5 4.5-1.9 1.2-2.8-4-4.1-4.1-4.1-.1 0 1.7-.4 2.8-1 2.4-.5-.3-1-3.3-1-6.6V99h3.9c3.1 0 4.1.4 4.6 2zm17.5-1c0 .5-.9 1-2 1-1.7 0-2 .7-2 4.9 0 2.8-.4 5.3-1 5.6-.6.4-1-1.5-1-4.9 0-4.9-.2-5.6-2-5.6-1.1 0-2-.5-2-1 0-.6 2.3-1 5-1 2.8 0 5 .4 5 1zm13.6 2.6c.8 1.9 1.7 4.9 2 6.7.5 3.2.5 3.2-1.2.9-2-2.7-5.1-2.9-5.9-.2-.6 1.8-2.5 2.9-2.5 1.4 0-1.9 4.4-12.4 5.2-12.4.5 0 1.6 1.6 2.4 3.6zm17.9-2.6c-.4.6-1.1.8-1.6.5-.5-.4-.9 1.6-.9 4.4 0 4 .4 5.1 1.6 5.1.8 0 1.2.4.9 1-.8 1.2-7.5 1.3-7.5.1 0-.5.7-1.2 1.6-1.5 1.9-.7 1.6-9.2-.3-8.9-.7.2-1.3-.2-1.3-.7 0-.6 1.8-1 4.1-1 2.5 0 3.8.4 3.4 1zm12.3 2.7l2.2 3.8v-3.8c0-2 .5-3.7 1-3.7.6 0 1 2.8 1 6.5 0 3.6-.2 6.5-.5 6.5s-1.8-2.1-3.5-4.8l-3-4.7v4.8c0 3-.4 4.6-1 4.2-.5-.3-1-3.3-1-6.6 0-7 1.5-7.7 4.8-2.2zm15.2-1l1.3 2.8 1.1-2.8c.5-1.5 1.6-2.7 2.3-2.7 1.6 0 1.9 11.5.3 12.5-.6.4-1-1.1-1.1-3.7 0-3.6-.2-3.9-.9-2.1-1.1 2.7-2.7 3-3.3.5-.3-.9-.5-.3-.6 1.5 0 1.7-.5 3.5-1.1 3.8-.6.4-1-1.8-1-5.9 0-7.1.9-8.2 3-3.9zm22-1.7c0 .5-1.6 1-3.6 1-4.2 0-4.3 2.3-.1 2.8 3.7.5 3.4 2.2-.4 2.2-4.5 0-3.6 3.3 1.1 4.1 2.6.4 3.1.7 1.8 1.3-.9.4-2.9.6-4.5.4-2.7-.3-2.8-.5-3.1-6.6l-.3-6.2h4.6c2.5 0 4.5.4 4.5 1zm11.8 2.7l2.2 3.8v-3.8c0-2 .5-3.7 1-3.7.6 0 1 2.8 1 6.5 0 3.6-.2 6.5-.5 6.5s-1.8-2.1-3.5-4.8l-3-4.7v4.8c0 3-.4 4.6-1 4.2-.5-.3-1-3.3-1-6.6 0-7 1.5-7.7 4.8-2.2zM298 100c0 .5-.9 1-2 1-1.8 0-2 .7-2 5.6 0 3.4-.4 5.3-1 4.9-.5-.3-1-2.8-1-5.6 0-3.6-.4-4.9-1.4-4.9-.8 0-1.8-.5-2.1-1-.4-.6 1.3-1 4.4-1 2.8 0 5.1.4 5.1 1zm76.5 5c-.4.6-11.5 1-30 1s-29.6-.4-30-1c-.4-.7 9.8-1 30-1s30.4.3 30 1zm-316.3.7c-8.3.2-22.1.2-30.5 0-8.3-.1-1.5-.3 15.3-.3s23.6.2 15.2.3zm54.5-75.5c-4.7 4.7-4.5 24.1.3 28 3.1 2.5 6.6 2.3 9.5-.7 2.4-2.3 2.5-3.1 2.5-13.3 0-12.4-1-14.7-6.7-15.8-2.5-.5-3.7-.1-5.6 1.8zM22 35.5V42h4.8c5.5 0 8.2-2 8.2-6.1 0-4.7-2.6-6.9-8.1-6.9H22v6.5zm44 0V42h4.9c4 0 5.3-.4 6.5-2.2 3.9-5.5.4-10.8-6.9-10.8H66v6.5zm94 67c0 1.1.7 1.5 2.3 1.3 1.2-.2 2.2-.8 2.2-1.3 0-.6-1-1.1-2.2-1.3-1.6-.2-2.3.2-2.3 1.3z"/><path d="M194.7 103.5c-.8 2-.4 2.9 1.1 2.4.5-.2.6-1.3.2-2.3-.6-1.9-.7-1.9-1.3-.1z"/></svg>