<?xml version="1.0" standalone="no"?>
<!DOCTYPE svg PUBLIC "-//W3C//DTD SVG 20010904//EN"
 "http://www.w3.org/TR/2001/REC-SVG-20010904/DTD/svg10.dtd">
<svg version="1.0" xmlns="http://www.w3.org/2000/svg"
 width="392.000000pt" height="129.000000pt" viewBox="0 0 392.000000 129.000000"
 preserveAspectRatio="xMidYMid meet">

<g transform="translate(0.000000,129.000000) scale(0.100000,-0.100000)"
fill="#000000" stroke="none">
<path d="M0 645 l0 -645 1960 0 1960 0 0 645 0 645 -1960 0 -1960 0 0 -645z
m3680 431 c0 -8 -15 -43 -34 -79 -19 -36 -32 -68 -29 -71 4 -3 -1 -6 -10 -6
-8 0 -19 -10 -22 -21 -7 -22 11 -69 27 -69 4 0 8 -4 8 -10 0 -5 8 -19 18 -29
31 -35 41 -48 61 -87 38 -70 19 -107 -28 -58 -28 30 -115 104 -135 116 -12 7
-59 -26 -49 -36 4 -3 -1 -6 -10 -6 -9 0 -16 -5 -14 -12 1 -6 -9 -15 -23 -19
-14 -4 -18 -8 -10 -8 10 -1 5 -10 -15 -28 -48 -42 -44 -7 11 93 46 85 47 87
28 103 -11 9 -30 33 -43 54 -12 20 -26 37 -31 37 -5 0 -16 18 -26 40 -10 22
-21 40 -25 40 -5 0 -6 19 0 53 0 5 11 7 24 5 12 -2 21 -9 19 -16 -1 -8 2 -11
7 -7 14 8 54 -33 48 -49 -3 -6 3 -12 13 -13 9 -1 31 -15 48 -32 17 -17 35 -31
41 -31 6 0 36 36 67 80 52 74 84 100 84 66z m-2433 -31 c51 -34 63 -70 63
-196 0 -104 -2 -120 -23 -150 -58 -88 -187 -86 -233 3 -21 40 -29 171 -15 240
13 62 52 113 94 121 35 8 87 -1 114 -18z m1265 15 c49 -14 88 -61 88 -106 0
-32 -2 -35 -27 -32 -21 2 -29 10 -35 34 -15 61 -104 69 -133 13 -21 -39 -20
-200 0 -239 29 -57 111 -50 131 11 9 26 18 35 38 37 24 3 26 0 26 -32 0 -45
-39 -92 -91 -107 -77 -23 -160 27 -175 105 -3 19 -4 79 -2 134 3 113 17 143
79 174 39 21 51 22 101 8z m-2162 -16 c56 -34 77 -112 45 -174 -20 -39 -48
-53 -115 -60 l-55 -5 -3 -83 -3 -83 -27 3 -27 3 -3 195 c-1 107 0 200 2 207 8
20 151 17 186 -3z m462 -22 c29 -29 33 -39 33 -87 0 -48 -4 -58 -35 -90 l-34
-35 37 -75 c20 -42 37 -80 37 -85 0 -6 -14 -10 -30 -10 -29 0 -34 6 -72 85
-34 71 -44 85 -64 85 -23 0 -24 -2 -24 -85 l0 -85 -30 0 -30 0 0 203 c0 112 3
207 8 211 4 4 44 6 89 4 78 -3 84 -5 115 -36z m888 -142 l0 -180 -29 -32 c-26
-29 -36 -33 -79 -33 -58 0 -94 26 -113 82 -14 43 -6 63 25 63 19 0 25 -6 30
-35 10 -51 58 -72 90 -39 13 13 16 44 16 178 0 89 3 166 7 169 3 4 17 7 30 7
l23 0 0 -180z m440 150 l0 -30 -80 0 -80 0 0 -60 0 -60 76 0 75 0 -3 -27 c-3
-27 -5 -28 -75 -31 l-73 -3 0 -59 0 -60 80 0 80 0 0 -30 0 -30 -110 0 -110 0
0 210 0 210 110 0 110 0 0 -30z m865 0 c0 -23 -4 -25 -47 -28 l-48 -3 0 -180
0 -179 -30 0 -30 0 0 180 0 180 -45 0 c-47 0 -63 14 -51 45 5 13 26 15 128 13
l123 -3 0 -25z m-1990 -740 c-3 -5 -19 -10 -36 -10 -19 0 -29 -5 -29 -15 0
-10 10 -15 31 -15 17 0 28 -4 24 -10 -3 -5 -17 -10 -31 -10 -17 0 -24 -5 -24
-20 0 -16 7 -20 37 -20 26 0 34 -3 26 -11 -6 -6 -26 -9 -44 -7 l-34 3 -3 63
-3 62 46 0 c28 0 44 -4 40 -10z m122 -32 l22 -43 0 43 c1 23 6 42 11 42 6 0
10 -28 10 -65 0 -36 -4 -65 -10 -65 -5 0 -21 21 -34 48 l-25 47 -1 -48 c0 -30
-4 -46 -10 -42 -5 3 -10 33 -10 66 0 72 17 78 47 17z m213 32 c0 -5 -9 -10
-20 -10 -18 0 -20 -7 -20 -55 0 -30 -4 -55 -10 -55 -5 0 -10 25 -10 55 0 48
-2 55 -20 55 -11 0 -20 5 -20 10 0 6 23 10 50 10 28 0 50 -4 50 -10z m155 0
c-3 -5 -19 -10 -36 -10 -19 0 -29 -5 -29 -15 0 -10 10 -15 31 -15 17 0 28 -4
24 -10 -3 -5 -17 -10 -31 -10 -17 0 -24 -5 -24 -20 0 -16 7 -20 37 -20 26 0
34 -3 26 -11 -6 -6 -26 -9 -44 -7 l-34 3 -3 63 -3 62 46 0 c28 0 44 -4 40 -10z
m160 -10 c4 -12 1 -27 -5 -35 -8 -10 -9 -19 0 -35 19 -36 5 -45 -19 -12 -28
40 -41 41 -41 1 0 -17 -4 -28 -10 -24 -5 3 -10 33 -10 66 l0 59 39 0 c31 0 41
-4 46 -20z m175 10 c0 -5 -9 -10 -20 -10 -17 0 -20 -7 -20 -49 0 -28 -4 -53
-10 -56 -6 -4 -10 15 -10 49 0 49 -2 56 -20 56 -11 0 -20 5 -20 10 0 6 23 10
50 10 28 0 50 -4 50 -10z m136 -26 c8 -19 17 -49 20 -67 5 -32 5 -32 -12 -9
-20 27 -51 29 -59 2 -6 -18 -25 -29 -25 -14 0 19 44 124 52 124 5 0 16 -16 24
-36z m179 26 c-4 -6 -11 -8 -16 -5 -5 4 -9 -16 -9 -44 0 -40 4 -51 16 -51 8 0
12 -4 9 -10 -8 -12 -75 -13 -75 -1 0 5 7 12 16 15 19 7 16 92 -3 89 -7 -2 -13
2 -13 7 0 6 18 10 41 10 25 0 38 -4 34 -10z m123 -27 l22 -38 0 38 c0 20 5 37
10 37 6 0 10 -28 10 -65 0 -36 -2 -65 -5 -65 -3 0 -18 21 -35 48 l-30 47 0
-48 c0 -30 -4 -46 -10 -42 -5 3 -10 33 -10 66 0 70 15 77 48 22z m152 10 l13
-28 11 28 c5 15 16 27 23 27 16 0 19 -115 3 -125 -6 -4 -10 11 -11 37 0 36 -2
39 -9 21 -11 -27 -27 -30 -33 -5 -3 9 -5 3 -6 -15 0 -17 -5 -35 -11 -38 -6 -4
-10 18 -10 59 0 71 9 82 30 39z m220 17 c0 -5 -16 -10 -36 -10 -42 0 -43 -23
-1 -28 37 -5 34 -22 -4 -22 -45 0 -36 -33 11 -41 26 -4 31 -7 18 -13 -9 -4
-29 -6 -45 -4 -27 3 -28 5 -31 66 l-3 62 46 0 c25 0 45 -4 45 -10z m118 -27
l22 -38 0 38 c0 20 5 37 10 37 6 0 10 -28 10 -65 0 -36 -2 -65 -5 -65 -3 0
-18 21 -35 48 l-30 47 0 -48 c0 -30 -4 -46 -10 -42 -5 3 -10 33 -10 66 0 70
15 77 48 22z m212 27 c0 -5 -9 -10 -20 -10 -18 0 -20 -7 -20 -56 0 -34 -4 -53
-10 -49 -5 3 -10 28 -10 56 0 36 -4 49 -14 49 -8 0 -18 5 -21 10 -4 6 13 10
44 10 28 0 51 -4 51 -10z m765 -50 c-4 -6 -115 -10 -300 -10 -185 0 -296 4
-300 10 -4 7 98 10 300 10 202 0 304 -3 300 -10z m-3163 -7 c-83 -2 -221 -2
-305 0 -83 1 -15 3 153 3 168 0 236 -2 152 -3z"/>
<path d="M1127 988 c-47 -47 -45 -241 3 -280 31 -25 66 -23 95 7 24 23 25 31
25 133 0 124 -10 147 -67 158 -25 5 -37 1 -56 -18z"/>
<path d="M220 935 l0 -65 48 0 c55 0 82 20 82 61 0 47 -26 69 -81 69 l-49 0 0
-65z"/>
<path d="M660 935 l0 -65 49 0 c40 0 53 4 65 22 39 55 4 108 -69 108 l-45 0 0
-65z"/>
<path d="M1600 265 c0 -11 7 -15 23 -13 12 2 22 8 22 13 0 6 -10 11 -22 13
-16 2 -23 -2 -23 -13z"/>
<path d="M1947 255 c-8 -20 -4 -29 11 -24 5 2 6 13 2 23 -6 19 -7 19 -13 1z"/>
</g>
</svg>
