<svg width="150" height="150" viewBox="0 0 150 150" fill="none" xmlns="http://www.w3.org/2000/svg">
<g clip-path="url(#clip0_181_220)">
<rect width="149.555" height="149.555" rx="74.7773" fill="#212121"/>
<rect width="149.555" height="149.555" rx="74.7773" fill="url(#paint0_linear_181_220)"/>
<path d="M149.555 74.7767C149.555 116.075 116.076 149.554 74.7773 149.554C33.4789 149.554 0 116.075 0 74.7767C26.046 21.844 63.0146 108.384 98.3027 106.705C139.554 104.741 149.555 33.4783 149.555 74.7767Z" fill="white" fill-opacity="0.46"/>
<path fill-rule="evenodd" clip-rule="evenodd" d="M90.6936 78.3111H84.7147V84.1642H90.6936V78.3111ZM83.9063 76.7282H91.502C91.7164 76.7282 91.922 76.8116 92.0736 76.96C92.2252 77.1085 92.3104 77.3098 92.3104 77.5197V84.9557C92.3102 85.1655 92.225 85.3667 92.0734 85.5151C91.9219 85.6635 91.7164 85.7469 91.502 85.7471H83.9063C83.692 85.7469 83.4865 85.6635 83.3349 85.5151C83.1834 85.3667 83.0981 85.1655 83.0979 84.9557V77.5197C83.0979 77.3098 83.1831 77.1085 83.3347 76.96C83.4863 76.8116 83.6919 76.7282 83.9063 76.7282ZM59.6948 65.3694H53.7158V71.2225H59.6948V65.3716V65.3694ZM52.9074 63.7865H60.5031C60.7175 63.7867 60.923 63.8702 61.0745 64.0186C61.2261 64.1669 61.3113 64.3681 61.3115 64.578V72.0162C61.3115 72.2261 61.2263 72.4274 61.0747 72.5758C60.9231 72.7242 60.7175 72.8076 60.5031 72.8076H52.9074C52.693 72.8076 52.4874 72.7242 52.3358 72.5758C52.1842 72.4274 52.099 72.2261 52.099 72.0162V64.5802C52.0992 64.3703 52.1845 64.1691 52.336 64.0208C52.4876 63.8724 52.6931 63.7889 52.9074 63.7887V63.7865ZM75.1938 65.3694H69.2156V71.2225H75.1938V65.3716V65.3694ZM68.408 63.7887H76.0022C76.2166 63.7887 76.4222 63.8721 76.5738 64.0205C76.7254 64.169 76.8106 64.3703 76.8106 64.5802V72.0162C76.8107 72.1201 76.7898 72.2231 76.7492 72.3192C76.7087 72.4152 76.6491 72.5025 76.574 72.576C76.499 72.6495 76.4098 72.7078 76.3117 72.7476C76.2136 72.7873 76.1084 72.8077 76.0022 72.8076H68.408C68.3018 72.8077 68.1966 72.7873 68.0985 72.7476C68.0004 72.7078 67.9112 72.6495 67.8362 72.576C67.7611 72.5025 67.7015 72.4152 67.6609 72.3192C67.6204 72.2231 67.5995 72.1201 67.5996 72.0162V64.5802C67.5996 64.3703 67.6848 64.169 67.8364 64.0205C67.988 63.8721 68.1936 63.7887 68.408 63.7887ZM90.6944 65.3716H84.7147V71.2247H90.6936L90.6944 65.3716ZM83.9071 63.7887H91.502C91.7164 63.7889 91.9219 63.8724 92.0734 64.0208C92.225 64.1691 92.3102 64.3703 92.3104 64.5802V72.0162C92.3104 72.2261 92.2252 72.4274 92.0736 72.5758C91.922 72.7242 91.7164 72.8076 91.502 72.8076H83.9063C83.6919 72.8076 83.4863 72.7242 83.3347 72.5758C83.1831 72.4274 83.0979 72.2261 83.0979 72.0162V64.5802C83.0981 64.3703 83.1834 64.1691 83.3349 64.0208C83.4865 63.8724 83.6927 63.7889 83.9071 63.7887ZM57.0391 43.3832C56.8512 43.2002 56.6122 43.0756 56.3521 43.0253C56.0921 42.9749 55.8226 43.001 55.5777 43.1003C55.3327 43.1996 55.1233 43.3675 54.9756 43.5831C54.828 43.7987 54.7488 44.0522 54.748 44.3117V48.6046C54.748 48.9533 54.8894 49.2877 55.1413 49.5342C55.3931 49.7808 55.7346 49.9193 56.0908 49.9193C56.4469 49.9193 56.7884 49.7808 57.0403 49.5342C57.2921 49.2877 57.4336 48.9533 57.4336 48.6046V44.3117C57.4334 44.1391 57.3984 43.9683 57.3308 43.809C57.2631 43.6497 57.164 43.505 57.0391 43.3832ZM73.1527 43.3832C72.9649 43.2 72.7259 43.0754 72.4658 43.025C72.2058 42.9746 71.9363 43.0007 71.6914 43.1C71.4465 43.1993 71.237 43.3673 71.0895 43.583C70.942 43.7986 70.8629 44.0522 70.8623 44.3117V48.6046C70.8623 48.9533 71.0038 49.2877 71.2556 49.5342C71.5074 49.7808 71.849 49.9193 72.2051 49.9193C72.5612 49.9193 72.9028 49.7808 73.1546 49.5342C73.4064 49.2877 73.5479 48.9533 73.5479 48.6046V44.3117C73.5477 44.1391 73.5127 43.9682 73.4449 43.8088C73.3771 43.6495 73.2778 43.5048 73.1527 43.3832ZM89.2663 43.3832C89.0785 43.2 88.8395 43.0754 88.5794 43.025C88.3194 42.9746 88.0499 43.0007 87.805 43.1C87.5601 43.1993 87.3506 43.3673 87.2031 43.583C87.0555 43.7986 86.9765 44.0522 86.9759 44.3117V48.6046C86.9759 48.9533 87.1174 49.2877 87.3692 49.5342C87.621 49.7808 87.9626 49.9193 88.3187 49.9193C88.6748 49.9193 89.0164 49.7808 89.2682 49.5342C89.52 49.2877 89.6615 48.9533 89.6615 48.6046V44.3117C89.6613 44.1391 89.6263 43.9682 89.5585 43.8088C89.4907 43.6495 89.3914 43.5048 89.2663 43.3832ZM96.4556 91.2756C96.361 91.0878 96.3464 90.871 96.4151 90.6727C96.4838 90.4745 96.6302 90.3111 96.8219 90.2185C97.0137 90.1259 97.2352 90.1116 97.4377 90.1789C97.6402 90.2462 97.8071 90.3894 97.9017 90.5772L98.8043 92.3594C98.899 92.5472 98.9137 92.764 98.845 92.9624C98.7764 93.1607 98.6301 93.3242 98.4383 93.4169C98.2466 93.5096 98.025 93.5239 97.8225 93.4567C97.6199 93.3895 97.4529 93.2463 97.3582 93.0585L96.4556 91.2756ZM98.4668 95.2467C98.4164 95.1534 98.3856 95.0511 98.3763 94.9458C98.367 94.8406 98.3794 94.7347 98.4126 94.6342C98.4459 94.5337 98.4994 94.4408 98.5699 94.361C98.6405 94.2811 98.7267 94.2159 98.8234 94.1692C98.9201 94.1225 99.0255 94.0952 99.1331 94.0891C99.2408 94.0829 99.3487 94.098 99.4503 94.1333C99.5519 94.1687 99.6453 94.2236 99.7249 94.2949C99.8045 94.3662 99.8686 94.4524 99.9136 94.5484L100.818 96.3306C100.912 96.5183 100.927 96.7352 100.858 96.9335C100.79 97.1319 100.644 97.2954 100.452 97.3881C100.26 97.4808 100.038 97.4951 99.8359 97.4279C99.6334 97.3607 99.4664 97.2175 99.3717 97.0297L98.4683 95.2467H98.4668ZM59.6948 81.2212V78.3111H53.7158V84.1642H56.8168C57.8605 83.2658 58.8234 82.2812 59.6948 81.2212ZM44.5924 92.9567L41.412 94.1856C41.3327 94.2158 41.2603 94.2611 41.1989 94.3188C41.1375 94.3766 41.0883 94.4456 41.0543 94.522C41.0199 94.5994 41.0015 94.6827 41.0001 94.767C40.9987 94.8514 41.0143 94.9352 41.046 95.0137L43.7743 101.781C43.8375 101.937 43.9613 102.063 44.1186 102.129C44.1977 102.163 44.2828 102.181 44.369 102.182C44.4552 102.183 44.5408 102.168 44.6208 102.137L47.7989 100.909L44.5924 92.9567ZM73.8585 89.0507C74.4195 88.6467 74.8279 88.0721 75.0199 87.4167C75.2119 86.7613 75.1768 86.0621 74.9199 85.4283C74.9057 85.3939 74.8914 85.3587 74.8757 85.3243C74.8609 85.2967 74.8476 85.2683 74.8361 85.2393C74.5541 84.6551 74.0914 84.1727 73.5138 83.8603C72.9361 83.5479 72.2727 83.4215 71.6175 83.4988L73.8563 89.05L73.8585 89.0507ZM71.0142 81.9965C71.7516 81.8473 72.5145 81.8707 73.2408 82.0649C73.9671 82.2591 74.6363 82.6186 75.1938 83.1141V78.3111H69.5262L71.012 81.9965H71.0142ZM49.8947 101.806L51.9823 106.984C52.1151 107.277 52.342 107.519 52.6284 107.673C52.9148 107.827 53.2449 107.886 53.5683 107.839C53.8148 107.824 54.058 107.776 54.2914 107.697C54.4948 107.632 54.6871 107.537 54.8617 107.416C55.0526 107.278 55.1724 107.138 55.1357 107.05L52.6522 100.886C51.739 101.159 50.8199 101.466 49.8947 101.806ZM73.4835 92.4261L76.0793 98.8698C76.2394 99.2652 76.2325 99.7066 76.0602 100.097C75.8879 100.487 75.5643 100.795 75.1605 100.951C74.7568 101.108 74.3059 101.101 73.9072 100.933C73.5085 100.764 73.1945 100.447 73.0344 100.052L63.3459 76.0181C63.204 75.6272 63.2225 75.1976 63.3973 74.8197C63.5722 74.4418 63.8898 74.1449 64.2835 73.9915C64.6772 73.8381 65.1164 73.8401 65.5086 73.997C65.9009 74.154 66.2158 74.4537 66.3871 74.8332L67.634 77.9264C67.6444 77.9588 67.6572 77.9904 67.6722 78.0209L73.4454 92.3345C73.4557 92.3671 73.4685 92.3989 73.4835 92.4298V92.4261ZM99.5453 85.5375C99.5114 85.557 99.4761 85.5741 99.4398 85.5888L96.1771 87.1761L96.7916 88.389C96.8862 88.5767 96.9008 88.7936 96.8321 88.9918C96.7633 89.19 96.617 89.3535 96.4252 89.4461C96.2335 89.5387 96.012 89.5529 95.8095 89.4856C95.607 89.4184 95.4401 89.2751 95.3455 89.0873L94.734 87.8774L84.6503 92.7742C84.6165 92.7939 84.5812 92.8111 84.5448 92.8255L79.449 95.2995L81.1623 98.6815C81.8858 98.5273 82.6411 98.614 83.3084 98.928C83.9758 99.242 84.5169 99.7652 84.8459 100.415C85.1748 101.064 85.2728 101.802 85.1243 102.513C84.9758 103.223 84.5893 103.864 84.0261 104.335L85.7394 107.717L101.024 100.294L100.478 99.2179C100.431 99.125 100.403 99.0239 100.397 98.9204C100.39 98.817 100.404 98.7132 100.438 98.6151C100.472 98.5169 100.525 98.4263 100.595 98.3483C100.665 98.2704 100.749 98.2067 100.844 98.1608C100.939 98.115 101.043 98.0879 101.148 98.0811C101.254 98.0743 101.36 98.0879 101.46 98.1213C101.56 98.1546 101.653 98.2069 101.733 98.2752C101.812 98.3436 101.877 98.4266 101.924 98.5195L102.468 99.5931L108.091 96.8626L106.378 93.4814C105.654 93.6361 104.898 93.5497 104.231 93.2359C103.563 92.9221 103.022 92.3988 102.692 91.7493C102.363 91.0998 102.265 90.3611 102.414 89.6507C102.562 88.9404 102.949 88.2989 103.512 87.8283L101.798 84.4456L99.5453 85.5412V85.5375ZM98.3268 57.8961V84.3709L84.0553 91.3012H74.7635L74.4641 90.5515C75.3268 90.0364 76.0004 89.2668 76.3882 88.3532C76.7759 87.4396 76.8578 86.4292 76.622 85.4672C76.7464 85.3241 76.8144 85.1421 76.8136 84.9542V77.5197C76.8137 77.4157 76.7928 77.3128 76.7522 77.2167C76.7117 77.1206 76.6521 77.0333 76.577 76.9598C76.5019 76.8863 76.4128 76.828 76.3147 76.7883C76.2165 76.7485 76.1114 76.7281 76.0052 76.7282H68.8945L67.9005 74.2608C67.5848 73.4743 66.9629 72.8429 66.1716 72.5054C65.3803 72.1678 64.4845 72.1519 63.6812 72.461C62.878 72.7701 62.233 73.379 61.8883 74.1537C61.5435 74.9284 61.5272 75.8055 61.8429 76.5919L62.0503 77.1049C61.8569 77.6982 61.6097 78.2733 61.3115 78.8234V77.5197C61.3115 77.3098 61.2263 77.1085 61.0747 76.96C60.9231 76.8116 60.7175 76.7282 60.5031 76.7282H52.9074C52.693 76.7282 52.4874 76.8116 52.3358 76.96C52.1842 77.1085 52.099 77.3098 52.099 77.5197V84.9557C52.0992 85.1655 52.1845 85.3667 52.336 85.5151C52.4876 85.6635 52.6931 85.7469 52.9074 85.7471H54.8423C52.1664 87.6974 49.2639 89.3305 46.1957 90.6124L46.1837 90.5874C46.1166 90.4363 46.0824 90.273 46.0834 90.1082V57.8961H98.3268ZM46.0819 56.3132V48.1832C46.0831 47.8672 46.2118 47.5644 46.4401 47.3409C46.6684 47.1174 46.9776 46.9913 47.3005 46.9902H53.1312V48.6024C53.1312 49.3709 53.443 50.1079 53.9981 50.6513C54.5531 51.1947 55.3058 51.5 56.0908 51.5C56.8757 51.5 57.6285 51.1947 58.1835 50.6513C58.7385 50.1079 59.0503 49.3709 59.0503 48.6024V46.9902H69.2456V48.6024C69.2456 49.3709 69.5574 50.1079 70.1124 50.6513C70.6674 51.1947 71.4202 51.5 72.2051 51.5C72.99 51.5 73.7428 51.1947 74.2978 50.6513C74.8528 50.1079 75.1646 49.3709 75.1646 48.6024V46.9902H85.3591V48.6024C85.3591 49.3709 85.6709 50.1079 86.226 50.6513C86.781 51.1947 87.5338 51.5 88.3187 51.5C89.1036 51.5 89.8564 51.1947 90.4114 50.6513C90.9664 50.1079 91.2782 49.3709 91.2782 48.6024V46.9902H97.1082C97.431 46.9915 97.7401 47.1177 97.9684 47.3411C98.1966 47.5645 98.3254 47.8672 98.3268 48.1832V56.3132H46.0819ZM57.691 85.5141C58.9345 84.4616 60.0723 83.2953 61.0892 82.031C61.127 81.9919 61.1606 81.9492 61.1895 81.9035C61.8488 81.0688 62.4238 80.1735 62.9066 79.2301L70.7508 98.6881C67.974 97.7639 65.036 97.3951 62.1109 97.6035C57.7232 97.8638 53.4027 98.7853 49.3019 100.335L46.0909 92.3697L46.2249 92.3154C46.2428 92.3088 46.2615 92.3008 46.2795 92.2927C50.2851 90.6917 54.0184 88.5031 57.3512 85.8021L57.6065 85.5866C57.6369 85.5644 57.6656 85.5402 57.6925 85.5141H57.691Z" fill="#212121"/>
</g>
<defs>
<linearGradient id="paint0_linear_181_220" x1="115.446" y1="-61.6913" x2="93.6181" y2="167.093" gradientUnits="userSpaceOnUse">
<stop stop-color="#5CFBD8"/>
<stop offset="0.49" stop-color="#2ED8EB"/>
<stop offset="1" stop-color="#00B6FF"/>
</linearGradient>
<clipPath id="clip0_181_220">
<rect width="149.555" height="149.555" rx="74.7773" fill="white"/>
</clipPath>
</defs>
</svg>
