<svg width="129" height="128" viewBox="0 0 129 128" fill="none" xmlns="http://www.w3.org/2000/svg">
<g clip-path="url(#clip0_414_1114)">
<rect x="0.772461" y="0.308594" width="127.473" height="127.473" rx="63.7364" fill="#212121"/>
<path opacity="0.06" d="M128.245 64.0449C128.245 99.2456 99.7094 127.781 64.5088 127.781C29.3082 127.781 0.772461 99.2456 0.772461 64.0449C22.9728 18.9278 54.4829 92.6901 84.5607 91.2586C119.722 89.5853 128.245 28.8443 128.245 64.0449Z" fill="white"/>
<path fill-rule="evenodd" clip-rule="evenodd" d="M80.6565 66.9293H74.6776V72.7824H80.6565V66.9293ZM73.8692 65.3464H81.4649C81.6793 65.3464 81.8849 65.4298 82.0365 65.5782C82.1881 65.7266 82.2733 65.9279 82.2733 66.1379V73.5738C82.2731 73.7837 82.1879 73.9849 82.0363 74.1333C81.8847 74.2816 81.6792 74.3651 81.4649 74.3653H73.8692C73.6549 74.3651 73.4494 74.2816 73.2978 74.1333C73.1463 73.9849 73.061 73.7837 73.0608 73.5738V66.1379C73.0608 65.9279 73.146 65.7266 73.2976 65.5782C73.4492 65.4298 73.6548 65.3464 73.8692 65.3464ZM49.6577 53.9876H43.6787V59.8407H49.6577V53.9898V53.9876ZM42.8703 52.4047H50.466C50.6804 52.4049 50.8859 52.4883 51.0374 52.6367C51.189 52.7851 51.2742 52.9863 51.2744 53.1962V60.6343C51.2744 60.8442 51.1892 61.0455 51.0376 61.194C50.886 61.3424 50.6804 61.4258 50.466 61.4258H42.8703C42.6559 61.4258 42.4503 61.3424 42.2987 61.194C42.1471 61.0455 42.0619 60.8442 42.0619 60.6343V53.1983C42.0621 52.9885 42.1474 52.7873 42.2989 52.6389C42.4505 52.4905 42.656 52.4071 42.8703 52.4069V52.4047ZM65.1567 53.9876H59.1785V59.8407H65.1567V53.9898V53.9876ZM58.3709 52.4069H65.9651C66.1795 52.4069 66.3851 52.4903 66.5367 52.6387C66.6883 52.7871 66.7735 52.9884 66.7735 53.1983V60.6343C66.7736 60.7383 66.7527 60.8413 66.7121 60.9373C66.6716 61.0334 66.612 61.1207 66.5369 61.1942C66.4618 61.2677 66.3727 61.326 66.2746 61.3657C66.1764 61.4055 66.0713 61.4259 65.9651 61.4258H58.3709C58.2647 61.4259 58.1595 61.4055 58.0614 61.3657C57.9633 61.326 57.8741 61.2677 57.7991 61.1942C57.724 61.1207 57.6644 61.0334 57.6238 60.9373C57.5832 60.8413 57.5624 60.7383 57.5625 60.6343V53.1983C57.5625 52.9884 57.6477 52.7871 57.7993 52.6387C57.9509 52.4903 58.1565 52.4069 58.3709 52.4069ZM80.6573 53.9898H74.6776V59.8429H80.6565L80.6573 53.9898ZM73.8699 52.4069H81.4649C81.6792 52.4071 81.8847 52.4905 82.0363 52.6389C82.1879 52.7873 82.2731 52.9885 82.2733 53.1983V60.6343C82.2733 60.8442 82.1881 61.0455 82.0365 61.194C81.8849 61.3424 81.6793 61.4258 81.4649 61.4258H73.8692C73.6548 61.4258 73.4492 61.3424 73.2976 61.194C73.146 61.0455 73.0608 60.8442 73.0608 60.6343V53.1983C73.061 52.9885 73.1463 52.7873 73.2978 52.6389C73.4494 52.4905 73.6556 52.4071 73.8699 52.4069ZM47.002 32.0014C46.8141 31.8183 46.575 31.6938 46.315 31.6434C46.0549 31.5931 45.7855 31.6192 45.5406 31.7185C45.2956 31.8177 45.0862 31.9857 44.9385 32.2013C44.7909 32.4168 44.7117 32.6703 44.7109 32.9299V37.2228C44.7109 37.5714 44.8523 37.9058 45.1042 38.1524C45.356 38.3989 45.6975 38.5374 46.0537 38.5374C46.4098 38.5374 46.7513 38.3989 47.0032 38.1524C47.255 37.9058 47.3965 37.5714 47.3965 37.2228V32.9299C47.3963 32.7573 47.3613 32.5865 47.2937 32.4272C47.226 32.2678 47.1269 32.1231 47.002 32.0014ZM63.1156 32.0014C62.9278 31.8182 62.6888 31.6936 62.4287 31.6432C62.1687 31.5928 61.8992 31.6189 61.6543 31.7182C61.4094 31.8175 61.1999 31.9855 61.0524 32.2011C60.9049 32.4168 60.8258 32.6703 60.8252 32.9299V37.2228C60.8252 37.5714 60.9667 37.9058 61.2185 38.1524C61.4703 38.3989 61.8119 38.5374 62.168 38.5374C62.5241 38.5374 62.8657 38.3989 63.1175 38.1524C63.3693 37.9058 63.5108 37.5714 63.5108 37.2228V32.9299C63.5106 32.7572 63.4756 32.5863 63.4078 32.427C63.34 32.2677 63.2407 32.123 63.1156 32.0014ZM79.2292 32.0014C79.0413 31.8182 78.8023 31.6936 78.5423 31.6432C78.2823 31.5928 78.0128 31.6189 77.7679 31.7182C77.5229 31.8175 77.3135 31.9855 77.166 32.2011C77.0184 32.4168 76.9394 32.6703 76.9388 32.9299V37.2228C76.9388 37.5714 77.0802 37.9058 77.3321 38.1524C77.5839 38.3989 77.9254 38.5374 78.2816 38.5374C78.6377 38.5374 78.9792 38.3989 79.2311 38.1524C79.4829 37.9058 79.6244 37.5714 79.6244 37.2228V32.9299C79.6242 32.7572 79.5892 32.5863 79.5214 32.427C79.4536 32.2677 79.3543 32.123 79.2292 32.0014ZM86.4185 79.8937C86.3239 79.706 86.3093 79.4891 86.378 79.2909C86.4467 79.0926 86.5931 78.9292 86.7848 78.8366C86.9766 78.744 87.1981 78.7298 87.4006 78.7971C87.6031 78.8643 87.77 79.0076 87.8645 79.1953L88.7672 80.9776C88.8619 81.1653 88.8766 81.3822 88.8079 81.5805C88.7393 81.7788 88.593 81.9423 88.4012 82.035C88.2094 82.1278 87.9879 82.1421 87.7854 82.0749C87.5828 82.0077 87.4158 81.8644 87.3211 81.6767L86.4185 79.8937ZM88.4297 83.8649C88.3793 83.7715 88.3485 83.6692 88.3392 83.564C88.3299 83.4588 88.3423 83.3528 88.3755 83.2524C88.4088 83.1519 88.4622 83.059 88.5328 82.9791C88.6034 82.8993 88.6896 82.834 88.7863 82.7873C88.883 82.7406 88.9884 82.7134 89.096 82.7073C89.2037 82.7011 89.3116 82.7161 89.4132 82.7515C89.5148 82.7868 89.6082 82.8418 89.6878 82.9131C89.7674 82.9844 89.8315 83.0705 89.8765 83.1665L90.7807 84.9488C90.8754 85.1365 90.89 85.3534 90.8214 85.5517C90.7527 85.75 90.6064 85.9135 90.4147 86.0062C90.2229 86.0989 90.0014 86.1133 89.7988 86.0461C89.5963 85.9789 89.4293 85.8356 89.3346 85.6479L88.4312 83.8649H88.4297ZM49.6577 69.8394V66.9293H43.6787V72.7824H46.7797C47.8234 71.884 48.7863 70.8993 49.6577 69.8394ZM34.5553 81.5748L31.3749 82.8038C31.2956 82.834 31.2232 82.8793 31.1618 82.937C31.1004 82.9947 31.0512 83.0638 31.0172 83.1401C30.9828 83.2175 30.9644 83.3008 30.963 83.3852C30.9616 83.4696 30.9772 83.5534 31.0089 83.6319L33.7372 90.3995C33.8003 90.5556 33.9242 90.6808 34.0815 90.7476C34.1606 90.7811 34.2457 90.799 34.3319 90.8003C34.4181 90.8015 34.5036 90.7861 34.5837 90.7549L37.7618 89.5267L34.5553 81.5748ZM63.8214 77.6689C64.3824 77.2648 64.7908 76.6902 64.9828 76.0348C65.1748 75.3795 65.1397 74.6802 64.8828 74.0465C64.8686 74.0121 64.8543 73.9769 64.8386 73.9424C64.8237 73.9149 64.8105 73.8865 64.7989 73.8574C64.5169 73.2733 64.0543 72.7909 63.4767 72.4785C62.899 72.1661 62.2356 72.0396 61.5804 72.117L63.8192 77.6681L63.8214 77.6689ZM60.9771 70.6147C61.7145 70.4655 62.4774 70.4889 63.2037 70.6831C63.93 70.8773 64.5992 71.2368 65.1567 71.7322V66.9293H59.4891L60.9749 70.6147H60.9771ZM39.8576 90.4244L41.9452 95.6026C42.078 95.895 42.3049 96.1368 42.5913 96.2911C42.8777 96.4454 43.2078 96.5037 43.5312 96.4571C43.7777 96.442 44.0209 96.3945 44.2543 96.3156C44.4577 96.2503 44.65 96.1554 44.8246 96.0342C45.0155 95.8964 45.1353 95.7557 45.0986 95.6678L42.6151 89.504C41.7019 89.7771 40.7828 90.0839 39.8576 90.4244ZM63.4464 81.0443L66.0422 87.488C66.2023 87.8833 66.1954 88.3247 66.0231 88.7151C65.8508 89.1055 65.5272 89.4128 65.1234 89.5696C64.7196 89.7263 64.2688 89.7196 63.8701 89.5509C63.4714 89.3822 63.1574 89.0654 62.9973 88.67L53.3088 64.6363C53.1669 64.2454 53.1854 63.8158 53.3602 63.4379C53.535 63.0599 53.8527 62.7631 54.2464 62.6097C54.6401 62.4563 55.0793 62.4582 55.4715 62.6152C55.8638 62.7721 56.1787 63.0718 56.3499 63.4513L57.5969 66.5446C57.6073 66.5769 57.6201 66.6085 57.6351 66.6391L63.4082 80.9527C63.4186 80.9853 63.4314 81.0171 63.4464 81.0479V81.0443ZM89.5082 74.1557C89.4743 74.1751 89.439 74.1923 89.4027 74.207L86.14 75.7943L86.7545 77.0071C86.8491 77.1949 86.8637 77.4117 86.7949 77.61C86.7262 77.8082 86.5799 77.9716 86.3881 78.0642C86.1964 78.1568 85.9749 78.1711 85.7724 78.1038C85.5699 78.0365 85.403 77.8933 85.3084 77.7055L84.6969 76.4956L74.6132 81.3924C74.5794 81.4121 74.5441 81.4292 74.5077 81.4437L69.4119 83.9177L71.1252 87.2997C71.8487 87.1454 72.604 87.2322 73.2713 87.5462C73.9387 87.8601 74.4798 88.3834 74.8087 89.0328C75.1377 89.6822 75.2357 90.4206 75.0872 91.1307C74.9387 91.8409 74.5522 92.4821 73.989 92.9527L75.7023 96.3347L90.9865 88.9126L90.4409 87.8361C90.394 87.7431 90.3663 87.642 90.3594 87.5386C90.3525 87.4352 90.3664 87.3314 90.4004 87.2332C90.4345 87.1351 90.4879 87.0444 90.5577 86.9665C90.6275 86.8886 90.7123 86.8248 90.8072 86.779C90.9022 86.7331 91.0054 86.706 91.1111 86.6992C91.2167 86.6925 91.3227 86.7061 91.423 86.7394C91.5232 86.7727 91.6158 86.825 91.6954 86.8934C91.775 86.9617 91.8401 87.0447 91.887 87.1377L92.4311 88.2113L98.0538 85.4808L96.3405 82.0995C95.6169 82.2543 94.8613 82.1679 94.1936 81.854C93.5259 81.5402 92.9845 81.017 92.6553 80.3675C92.326 79.7179 92.2279 78.9793 92.3765 78.2689C92.525 77.5585 92.9118 76.9171 93.4753 76.4465L91.7612 73.0638L89.5082 74.1594V74.1557ZM88.2897 46.5142V72.989L74.0182 79.9194H64.7263L64.4269 79.1697C65.2896 78.6546 65.9633 77.8849 66.351 76.9714C66.7388 76.0578 66.8206 75.0473 66.5849 74.0853C66.7093 73.9423 66.7773 73.7603 66.7765 73.5724V66.1379C66.7766 66.0339 66.7557 65.9309 66.7151 65.8349C66.6745 65.7388 66.615 65.6515 66.5399 65.578C66.4648 65.5045 66.3757 65.4462 66.2776 65.4065C66.1794 65.3667 66.0743 65.3463 65.9681 65.3464H58.8574L57.8634 62.879C57.5477 62.0925 56.9258 61.4611 56.1345 61.1235C55.3432 60.786 54.4474 60.77 53.6441 61.0792C52.8409 61.3883 52.1959 61.9972 51.8511 62.7719C51.5064 63.5466 51.4901 64.4236 51.8058 65.2101L52.0132 65.7231C51.8198 66.3163 51.5726 66.8915 51.2744 67.4416V66.1379C51.2744 65.9279 51.1892 65.7266 51.0376 65.5782C50.886 65.4298 50.6804 65.3464 50.466 65.3464H42.8703C42.6559 65.3464 42.4503 65.4298 42.2987 65.5782C42.1471 65.7266 42.0619 65.9279 42.0619 66.1379V73.5738C42.0621 73.7837 42.1474 73.9849 42.2989 74.1333C42.4505 74.2816 42.656 74.3651 42.8703 74.3653H44.8052C42.1293 76.3156 39.2268 77.9487 36.1586 79.2305L36.1466 79.2056C36.0794 79.0544 36.0453 78.8912 36.0463 78.7263V46.5142H88.2897ZM36.0448 44.9313V36.8014C36.046 36.4853 36.1747 36.1825 36.403 35.959C36.6313 35.7356 36.9405 35.6095 37.2633 35.6083H43.0941V37.2206C43.0941 37.989 43.4059 38.7261 43.9609 39.2695C44.516 39.8129 45.2687 40.1181 46.0537 40.1181C46.8386 40.1181 47.5914 39.8129 48.1464 39.2695C48.7014 38.7261 49.0132 37.989 49.0132 37.2206V35.6083H59.2084V37.2206C59.2084 37.989 59.5203 38.7261 60.0753 39.2695C60.6303 39.8129 61.3831 40.1181 62.168 40.1181C62.9529 40.1181 63.7057 39.8129 64.2607 39.2695C64.8157 38.7261 65.1275 37.989 65.1275 37.2206V35.6083H75.322V37.2206C75.322 37.989 75.6338 38.7261 76.1889 39.2695C76.7439 39.8129 77.4967 40.1181 78.2816 40.1181C79.0665 40.1181 79.8193 39.8129 80.3743 39.2695C80.9293 38.7261 81.2411 37.989 81.2411 37.2206V35.6083H87.0711C87.3939 35.6097 87.703 35.7358 87.9313 35.9593C88.1595 36.1827 88.2883 36.4854 88.2897 36.8014V44.9313H36.0448ZM47.6539 74.1322C48.8973 73.0798 50.0352 71.9134 51.0521 70.6491C51.0898 70.61 51.1234 70.5673 51.1524 70.5216C51.8117 69.6869 52.3867 68.7916 52.8694 67.8483L60.7137 87.3063C57.9369 86.3821 54.9989 86.0133 52.0738 86.2217C47.686 86.482 43.3656 87.4035 39.2648 88.9537L36.0538 80.9878L36.1878 80.9336C36.2057 80.927 36.2244 80.919 36.2424 80.9109C40.248 79.3099 43.9813 77.1213 47.3141 74.4202L47.5694 74.2048C47.5997 74.1826 47.6285 74.1584 47.6554 74.1322H47.6539Z" fill="url(#paint0_linear_414_1114)"/>
</g>
<defs>
<linearGradient id="paint0_linear_414_1114" x1="98.8009" y1="29.316" x2="36.5163" y2="122.863" gradientUnits="userSpaceOnUse">
<stop offset="0.1" stop-color="#5CFBD8"/>
<stop offset="0.49" stop-color="#2ED8EB"/>
<stop offset="0.93" stop-color="#00B6FF"/>
</linearGradient>
<clipPath id="clip0_414_1114">
<rect x="0.772461" y="0.308594" width="127.473" height="127.473" rx="63.7364" fill="white"/>
</clipPath>
</defs>
</svg>
