<svg width="24" height="21" viewBox="0 0 24 21" fill="none" xmlns="http://www.w3.org/2000/svg">
<path d="M21.1517 1.85566L8.2205 0.360071C7.92279 0.317941 7.6195 0.335799 7.32849 0.412593C7.03749 0.489387 6.76464 0.623563 6.52604 0.807219C6.28743 0.990874 6.08789 1.22029 5.93916 1.48197C5.79043 1.74364 5.69552 2.03227 5.66003 2.33087C5.62454 2.62946 5.64918 2.93197 5.7325 3.22058C5.81582 3.5092 5.95614 3.77808 6.14518 4.01138C6.33423 4.24469 6.56818 4.43771 6.83326 4.57906C7.09834 4.72042 7.38919 4.80726 7.68867 4.83446L15.3275 5.71198L1.11151 16.949C0.641967 17.3202 0.338694 17.8622 0.268407 18.4557C0.19812 19.0493 0.366577 19.6458 0.736718 20.1141C1.10686 20.5823 1.64837 20.884 2.24211 20.9527C2.83586 21.0213 3.43321 20.8514 3.90275 20.4802L18.0792 9.27443L17.1879 16.8519C17.1336 17.4373 17.3104 18.0201 17.6804 18.476C18.0505 18.9319 18.5845 19.2247 19.1686 19.292C19.7527 19.3593 20.3406 19.1957 20.8068 18.8362C21.273 18.4767 21.5807 17.9497 21.6642 17.3676L23.195 4.44053C23.2306 4.14658 23.2076 3.84862 23.1272 3.56394C23.0467 3.27926 22.9105 3.01353 22.7264 2.78215C22.716 2.76666 22.7044 2.75201 22.6917 2.73834C22.6812 2.72293 22.6697 2.70829 22.6571 2.69453C22.2868 2.2264 21.7454 1.92471 21.1517 1.85566Z" fill="url(#paint0_linear_110_349)"/>
<defs>
<linearGradient id="paint0_linear_110_349" x1="15.2749" y1="-7.14928" x2="21.6682" y2="34.0321" gradientUnits="userSpaceOnUse">
<stop offset="0.1" stop-color="#5CFBD8"/>
<stop offset="0.49" stop-color="#2ED8EB"/>
<stop offset="0.93" stop-color="#00B6FF"/>
</linearGradient>
</defs>
</svg>
