<svg width="1067" height="306" viewBox="0 0 1067 306" fill="none" xmlns="http://www.w3.org/2000/svg">
<rect x="13" y="16" width="256" height="180" fill="#9FCD3B"/>
<rect x="13" y="249" width="256" height="37" fill="#9FCD3B"/>
<path d="M648.134 2.39934C646.268 4.66601 648.401 6.79934 653.201 7.59934C656.401 7.99934 656.401 8.39934 656.134 18.1327C655.868 25.7327 656.268 28.666 657.868 29.866C661.468 32.9327 662.668 30.1327 662.668 18.666V7.46601L667.068 7.06601C670.268 6.79934 671.334 5.99934 671.334 3.99934C671.334 1.59934 670.268 1.33268 660.534 0.932677C652.534 0.66601 649.334 1.06601 648.134 2.39934Z" fill="black"/>
<path d="M684.667 2.26601C684.267 3.33268 684.133 10.1327 684.267 17.466C684.533 28.1327 685.067 30.666 686.667 30.666C688 30.666 688.8 28.9327 689.067 24.9327L689.467 19.3327H696H702.533L702.933 24.9327C703.2 28.9327 704 30.666 705.333 30.666C706.933 30.666 707.333 28.1327 707.333 15.9993C707.333 3.86601 706.933 1.33268 705.333 1.33268C704 1.33268 703.067 3.19935 702.667 7.33268L702 13.3327H696H690L689.333 7.46601C688.667 1.59935 686 -1.33399 684.667 2.26601Z" fill="black"/>
<path d="M722.934 2.26612C720.534 4.66612 720.801 27.8661 723.201 29.8661C724.401 30.7995 728.667 31.3328 734.134 31.0661C741.467 30.7995 743.334 30.2661 743.734 28.3995C744.134 26.5328 742.934 26.1328 736.401 25.7328C729.201 25.3328 728.667 25.0661 728.667 21.9995C728.667 19.0661 729.334 18.5328 735.067 17.9995C738.534 17.5995 741.334 16.6661 741.334 15.9995C741.334 15.1995 738.534 14.3995 735.067 13.9995C729.734 13.4661 728.534 12.7995 728.267 10.2661C727.734 7.19946 728.267 6.93279 736.001 7.19946C741.734 7.46612 744.667 5.59946 743.601 2.79946C742.934 1.06612 740.801 0.666123 733.601 0.666123C728.401 0.666123 723.867 1.33279 722.934 2.26612Z" fill="black"/>
<path d="M333.999 13.1997C331.866 14.7997 331.733 15.333 333.199 17.1997C334.799 19.1997 348.133 19.333 475.999 19.333C603.866 19.333 617.199 19.1997 618.799 17.1997C620.266 15.333 620.133 14.7997 617.999 13.1997C614.266 10.3997 337.733 10.3997 333.999 13.1997Z" fill="black"/>
<path d="M769.601 12.5327C768.534 13.1993 768.001 14.7993 768.267 16.1327C768.667 18.5327 772.801 18.666 911.334 18.666C1049.87 18.666 1054 18.5327 1054.4 16.1327C1054.67 14.7993 1054.13 13.1993 1053.07 12.5327C1050.8 11.066 771.867 11.066 769.601 12.5327Z" fill="black"/>
<path d="M0 153.333V294H141.333H282.667V153.333V12.6667H141.333H0V153.333ZM154.667 57.6C154.667 58.5333 155.733 59.3333 157.067 59.3333C159.067 59.4667 159.2 59.4667 157.2 60.6667C152.267 63.6 147.867 77.0666 150.4 81.2C151.6 83.3333 152 97.0667 150.8 98.5333C149.6 100.133 149.867 111.2 151.333 117.733C152 120.533 151.733 122.667 150.533 124.133C146.8 128.667 145.067 136.4 144.667 150.533C144.4 158.4 143.867 165.867 143.333 166.933C142.933 168.133 143.467 170.4 144.667 172.133C146.267 174.533 146.4 176.533 145.333 182.267C144.667 186.133 143.733 191.6 143.333 194.267C142.933 197.067 142 199.6 141.2 200C140.4 200.533 140.267 198.933 140.8 195.733C141.2 192.8 140.8 188.933 139.867 186.667C138.933 184.4 138 176.933 137.733 170C137.067 153.2 136.667 150 135.467 145.733C134.8 143.333 135.067 140.8 136.533 137.867C137.733 135.467 138.667 132.4 138.667 131.067C138.667 129.6 139.333 127.333 140.133 125.867C141.067 124 141.067 121.867 140 118.8C138.8 115.067 137.333 99.2 136.8 84.5333C136.8 81.8667 135.867 78.8 134.933 77.6C134 76.5333 133.733 75.2 134.4 74.8C136 73.8667 135.2 66.1333 133.333 64C131.467 61.8667 122.667 60.1333 121.2 61.6C120.533 62.2667 119.867 64.5333 119.733 66.6667C119.6 68.9333 118.4 71.4667 116.933 72.4C115.2 73.7333 114.533 76 114.533 81.0667C114.667 84.9333 114.533 90.6667 114.267 94C114 97.8667 114.933 102.4 116.8 106.8C119.067 112 119.333 114.133 118.267 116.133C116.4 119.467 115.867 128.933 117.467 130.933C118.4 131.867 118.133 134.933 116.8 139.6C115.333 144.8 114.8 152 115.067 166.4C115.333 182.4 115.067 185.6 113.733 183.733C112.8 182.533 112 179.6 112 177.467C112 175.2 111.333 171.2 110.533 168.667C109.067 163.733 107.867 156.4 107.867 152C107.867 150.667 107.2 148.667 106.533 147.867C105.6 146.667 105.733 144.8 107.333 141.467C108.667 138.667 109.2 135.6 108.667 134C108.133 132.4 107.6 127.067 107.333 122.133C107.067 117.2 105.733 110.533 104.533 107.2C102.133 100.933 101.867 96.5333 103.333 84.2667C104.133 78.1333 103.867 76.1333 102.133 74.1333C100.933 72.8 100.4 71.3333 100.933 70.9333C102.933 68.8 96.8 64.8 90.2667 63.8667L83.3333 62.9333L88 61.2C90.5333 60.2666 94.5333 59.4667 96.6667 59.3333C98.9333 59.3333 102.133 58.4 104 57.4667C105.867 56.4 108.133 56 109.333 56.5333C113.733 58.8 120.4 59.3333 124.533 57.6C126.8 56.5333 132.267 54.6666 136.667 53.2C144.533 50.6666 144.667 50.6666 149.733 53.2C152.4 54.6666 154.667 56.6667 154.667 57.6ZM180.533 56.8C183.6 57.4667 188.267 65.2 187.2 68C186.667 69.0667 187.067 70 187.867 70C188.8 70 188.933 70.8 188.133 72.2667C187.467 73.6 185.867 77.0667 184.667 80C183.333 82.9333 181.733 86.4 181.2 87.6C179.6 90.6667 179.733 100.267 181.2 101.2C181.867 101.733 181.867 103.867 181.067 106.533C179.867 110.267 180 111.867 181.733 114.533C184.533 118.667 184.667 124.933 182 130C180.533 132.933 180.4 134.667 181.333 137.467C182.133 139.467 182.4 142.133 181.867 143.2C181.333 144.4 180.8 150.133 180.667 156C180.533 162.933 179.733 168.133 178.267 170.933C176.933 173.333 176 176.933 176 178.933C175.867 182.267 175.733 182.4 174.533 180.133C173.733 178.8 173.333 175.6 173.733 172.933C174.267 170.4 174 167.2 173.2 165.733C172.267 163.867 172.267 162.667 173.333 161.333C174.133 160.267 174.667 157.467 174.533 155.067C174.267 152.667 174.533 150 174.933 149.333C177.2 145.733 175.867 111.067 173.333 108C172.533 106.933 172 103.867 172.133 101.067C172.4 98.2667 172 95.2 171.467 94.2667C170.933 93.3333 171.2 91.7333 172 90.6667C174.133 88.1333 174.133 73.2 172.133 70.8C171.333 69.7333 167.333 68.5333 163.2 68C157.333 67.3333 156.133 66.8 157.333 65.3333C158.133 64.4 160.8 63.2 163.333 62.8C165.867 62.2667 168.667 60.9333 169.6 59.6C171.867 56.6667 176.533 54.1333 177.333 55.3333C177.733 55.8667 179.2 56.5333 180.533 56.8ZM105.333 220.667C105.333 222.667 106.267 223.333 108.533 223.333C112.667 223.333 113.067 224.133 112.267 230.4C111.867 234.267 110.8 235.867 107.867 237.467C105.467 238.667 104 240.267 104.267 241.733C104.533 243.067 103.867 244 102.667 244C101.6 244 100.8 243.2 101.067 242.267C101.2 241.333 99.6 239.067 97.4667 237.2C90.4 231.2 90.8 221.6 98 223.067C100.667 223.467 101.333 223.067 101.333 220.8C101.333 219.2 102.133 218 103.333 218C104.4 218 105.333 219.2 105.333 220.667ZM133.733 228.667C133.6 234.533 132.933 238.8 132.133 239.067C131.333 239.333 130.667 238.667 130.667 237.6C130.667 236.4 128.267 233.6 125.333 231.333L120 227.067V234.133C120 243.867 117.067 240.8 116.8 230.8C116.667 221.6 118.4 220.533 125.067 226L130 230.133L130.4 224C131.067 213.6 133.867 217.6 133.733 228.667ZM72.2667 226.667C74 229.2 75.6 231.333 76 231.333C76.4 231.333 78.1333 229.2 80 226.667C85.3333 219.333 87.3333 220.933 87.3333 232.533C87.3333 239.333 86.8 242.667 85.7333 242.933C84.4 243.467 84 241.333 84 235.467C84 230.933 83.6 227.333 83.2 227.333C81.6 227.333 78.8 231.867 78.6667 234.267C78.6667 237.867 75.2 237.2 72.1333 232.933L69.4667 229.333L69.3333 234.267C69.3333 238.667 66.9333 242.933 66.5333 239.467C66 235.333 65.8667 223.867 66.2667 222.933C67.3333 220.933 69.4667 222.133 72.2667 226.667ZM152.533 222.8C156.533 224.267 154.667 226 149.067 226.133L143.333 226.4L148.933 227.2C152.133 227.733 154.933 228.533 155.467 229.067C156.533 230.133 150.533 240.8 147.733 242.533C146.133 243.467 144.533 243.333 142.133 242C137.467 239.6 137.733 237.6 142.4 238.667C145.6 239.333 146.4 238.933 147.733 236C150.133 230.667 149.733 229.6 145.6 230.4C142.8 230.933 141.467 230.533 140.133 228.4C138.267 225.333 139.2 223.867 144 222.933C149.467 222 150.4 222 152.533 222.8ZM177.067 225.067C177.6 227.733 175.867 228 173.733 225.867C170.4 222.533 168 225.6 168 233.467C168 240 167.733 240.8 166 239.333C164.667 238.267 164 235.333 164 231.2C164 224.533 162.267 222.933 158.933 226.267C156.933 228.267 155.2 226.533 157.067 224.4C158 223.333 161.733 222.667 167.6 222.8C174.933 222.8 176.8 223.333 177.067 225.067ZM190.8 223.333C193.867 223.333 194.667 223.867 194.667 226.267C194.667 228.933 194.533 228.933 192 226.667C190.667 225.467 188.533 224.667 187.333 225.067C184.133 226.4 184.933 228.667 188.667 228.667C190.933 228.667 191.733 229.2 191.2 230.533C190.8 231.6 189.467 232.133 187.867 231.733C186 231.2 185.333 231.733 185.333 233.867C185.333 236 186.133 236.667 189.067 236.667C191.067 236.667 193.467 236 194.4 235.067C195.6 233.867 196 234.133 196 236.4C196 239.333 195.467 239.467 188.4 239.067L180.933 238.667L180.8 230.933C180.667 223.467 181.6 221.6 185.067 222.8C186.133 223.067 188.667 223.333 190.8 223.333ZM213.2 223.867C214.4 225.333 214.267 226.133 212.667 227.733C209.867 230.667 210.133 231.6 214.933 236.533C218.4 240 218.8 241.067 217.2 242.133C215.333 243.333 213.2 241.467 207.6 233.467C204.533 229.067 202.667 230.133 202.667 236.4C202.667 240.667 202.4 240.933 200.8 239.333C198.267 236.8 197.6 224.8 199.733 223.467C202.667 221.6 211.6 222 213.2 223.867ZM92.8 253.333C94.4 254.933 94.4 255.333 93.0667 255.467C92.1333 255.6 92.8 256.133 94.6667 256.667C97.8667 257.733 97.7333 257.733 93.7333 257.867C89.8667 258 89.3333 257.6 89.3333 254.667C89.3333 250.8 90.1333 250.533 92.8 253.333ZM112.667 253.467C115.067 255.2 115.333 255.2 116.267 253.067C116.933 251.2 117.2 251.6 117.2 254.533C117.333 258.267 117.333 258.267 114 256.133C110 253.467 109.733 253.467 108.933 256.267C108.533 257.733 108.267 257.2 108.133 254.933C108 250.8 108.8 250.533 112.667 253.467ZM131.467 253.333C133.067 254.933 133.067 255.333 131.733 255.467C130.8 255.6 131.467 256.133 133.333 256.667C136.533 257.733 136.4 257.733 132.4 257.867C128.533 258 128 257.6 128 254.667C128 250.8 128.8 250.533 131.467 253.333ZM149.333 252.667C149.333 253.333 150.533 254 152.133 254C153.6 254 154.4 253.333 154 252.667C153.6 251.867 153.867 251.333 154.533 251.333C155.333 251.333 155.867 252.8 155.733 254.667C155.333 258.4 154.667 258.8 152.133 256.267C150.667 254.933 150.267 254.933 149.733 256.267C148.667 259.2 146.667 258.133 146.667 254.667C146.667 252.8 147.333 251.333 148 251.333C148.8 251.333 149.333 251.867 149.333 252.667ZM168.4 254C167.867 256.267 168.4 256.667 171.467 256.667C174.533 256.667 174.933 256.4 173.333 255.333C171.6 254.267 171.733 254 173.733 254C174.933 254 176 254.933 176 256C176 257.333 174.533 258 171.333 258C167.2 258 166.667 257.6 166.667 254.667C166.667 252.8 167.2 251.333 167.867 251.333C168.533 251.333 168.8 252.533 168.4 254ZM188.667 252.667C189.333 253.733 190.133 253.6 191.467 252.533C192.533 251.733 193.733 251.333 194.267 251.867C194.667 252.267 194.4 252.667 193.467 252.667C192.667 252.667 191.333 254 190.667 255.6C190 257.333 189.467 257.867 189.467 256.8C189.333 255.733 188.267 254.133 187.067 253.2C185.733 252.267 185.333 251.333 186.267 251.333C187.067 251.333 188.267 252 188.667 252.667Z" fill="black"/>
<path d="M97.334 227.867C97.334 230.8 98.8007 234 100.134 234C100.801 234 101.334 232.133 101.334 230C101.334 227.333 100.667 226 99.334 226C98.2673 226 97.334 226.8 97.334 227.867Z" fill="black"/>
<path d="M104 231.466C104 236.266 104.267 236.8 106 235.333C107.067 234.4 108 232 108 229.866C108 227.333 107.333 226 106 226C104.533 226 104 227.466 104 231.466Z" fill="black"/>
<path d="M203.334 226.133C202.801 226.933 202.667 227.733 202.934 227.999C203.867 228.933 209.334 227.066 209.334 225.866C209.334 224.133 204.401 224.399 203.334 226.133Z" fill="black"/>
<path d="M340.4 65.9999C333.333 70.2666 333.067 73.0666 333.6 132L334 185.333L337.733 196C344.8 216.133 357.067 230.667 374.8 240C410.4 258.667 452.267 246.4 473.733 211.067C484.267 193.6 485.6 182.8 485.067 121.333C484.667 69.4666 484.667 69.8666 477.2 65.4666C472.667 62.7999 467.733 62.7999 462.667 65.3332C454.8 69.4666 454.667 70.2666 454.667 126.533C454.667 173.067 454.4 178.533 452.133 185.867C441.333 220.4 397.467 229.867 375.2 202.4C364.267 188.933 364 187.6 364 129.6C364 97.9999 363.467 76.7999 362.533 73.5999C360 64.3999 349.067 60.6666 340.4 65.9999Z" fill="black"/>
<path d="M519.333 64.5333C515.733 66 512.533 69.8666 510.666 74.5333C508.8 79.4666 510.8 85.7333 515.466 90.1333L518.933 93.3333L559.733 94C606.266 94.8 606.266 94.8 617.066 106.4C624.933 115.067 626.933 120.667 626.4 132.133C625.866 143.467 621.333 152 612.266 158.933C602.266 166.533 597.066 167.333 557.066 167.333C518 167.333 515.733 167.733 512 174.8C510.4 177.6 510 184.533 510 207.467V236.533L513.866 240.533C518.533 245.333 525.066 246.933 530.8 244.667C538.133 241.6 539.2 238.133 540 216.8L540.666 197.333L573.333 196.667L606 196L617.733 190.4C654.4 172.8 667.6 130.533 647.466 96.1333C638.8 81.4666 618 67.7333 599.866 64.8C589.866 63.0666 523.2 62.9333 519.333 64.5333Z" fill="black"/>
<path d="M749.734 65.9996C742.667 70.2663 742.401 73.0663 742.934 132L743.334 185.333L747.067 196C754.267 216.133 766.401 230.666 784.134 240C822.001 259.866 867.601 244.4 886.001 205.333C893.734 188.666 894.001 186.4 894.001 128.666C894.001 71.4663 893.867 69.7329 886.801 65.5996C882.001 62.7996 877.067 62.6663 872.001 65.3329C864.134 69.4663 864.001 70.1329 864.001 127.066C864.001 175.466 863.867 179.466 861.334 186.666C855.467 203.6 842.934 214.8 826.401 217.866C806.401 221.466 786.534 210.8 777.601 191.6L774.001 184L773.334 128.666C772.667 69.0663 772.667 69.0663 765.334 65.3329C760.134 62.6663 754.801 62.7996 749.734 65.9996Z" fill="black"/>
<path d="M926.932 65.9999C918.132 71.4666 917.066 82.9332 924.799 90.1332L928.266 93.3332L969.066 93.9999C1015.87 94.7999 1015.73 94.6666 1026.93 107.2C1040.93 122.8 1038.53 146 1021.6 158.933C1011.6 166.533 1006.4 167.333 966.132 167.333C916.532 167.333 918.666 165.6 918.666 206.133C918.666 219.067 919.066 231.467 919.466 233.867C921.199 242.667 931.732 248.133 940.132 244.667C947.466 241.6 948.532 238.133 949.332 216.667L949.999 197.333L982.666 196.667C1012.53 196 1016 195.6 1022.53 192.933C1060.27 177.2 1076.53 137.6 1059.73 102.267C1054.93 91.9999 1042.53 78.3999 1033.47 73.5999C1016.8 64.5332 1015.07 64.2666 971.332 63.7332C932.799 63.1999 931.199 63.3332 926.932 65.9999Z" fill="black"/>
<path d="M688.001 99.0667C685.467 100.533 682.267 103.867 680.801 106.667C678.534 111.067 678.401 112.4 679.867 117.733C681.334 123.333 681.201 124 678.401 126.933C675.867 129.6 675.334 131.733 675.334 138C675.334 146.8 677.734 151.2 685.334 156.267C690.534 159.867 702.001 160.4 708.001 157.333C711.467 155.6 712.267 155.6 715.867 157.6C719.601 159.867 719.867 159.867 722.534 157.467C726.134 154.133 726.001 152.4 722.134 147.733C719.867 145.067 719.201 143.2 720.134 141.867C721.867 139.2 721.601 132.133 719.734 130.267C717.201 127.733 712.534 128.4 710.267 131.6L708.134 134.667L701.334 127.333C691.201 116.4 690.267 114.667 692.001 111.467C692.934 109.6 694.801 108.667 697.467 108.667C700.534 108.667 702.001 109.6 704.134 113.333C707.601 119.067 712.534 119.733 714.934 114.8C718.267 107.467 707.734 96.6667 697.334 96.6667C694.801 96.6667 690.534 97.7334 688.001 99.0667ZM697.067 139.333C703.334 146.533 703.334 148.667 697.201 148.667C690.134 148.667 684.934 141.2 687.467 134.8C688.801 131.333 691.067 132.4 697.067 139.333Z" fill="black"/>
<path d="M573.866 277.066C573.599 278 573.466 284.8 573.599 292.133C573.866 302.8 574.399 305.333 575.999 305.333C577.333 305.333 578.133 303.6 578.399 299.733L578.799 294.133L585.733 293.733C591.066 293.466 592.799 292.8 593.066 290.933C593.466 289.066 592.399 288.666 586.133 288.666C579.066 288.666 578.666 288.533 578.666 285.333C578.666 282.4 579.199 282.133 586.399 281.733C592.933 281.333 593.999 280.933 593.999 278.666C593.999 276.266 592.933 276 584.266 275.6C577.066 275.333 574.399 275.733 573.866 277.066Z" fill="black"/>
<path d="M608.4 276.266C607.2 276.666 606.667 280.933 606.667 290.666C606.667 306.266 606.4 306 618 306C626.267 306 629.333 305.066 629.333 302.666C629.333 300.4 626.267 299.333 619.2 299.333C613.867 299.333 613.333 299.066 613.333 296C613.333 292.933 613.733 292.666 620.133 292.666C625.867 292.666 626.8 292.266 626.4 290.266C626.133 288.533 624.4 287.866 619.6 287.6C613.867 287.2 613.333 286.933 613.333 283.866C613.333 280.666 613.733 280.533 619.733 280.8C626.933 281.2 629.6 280.133 628.4 277.333C627.867 275.866 625.467 275.333 618.8 275.466C614 275.466 609.2 275.866 608.4 276.266Z" fill="black"/>
<path d="M643.333 278.666C641.467 280.4 640 282.8 640 283.733C640 287.066 644.4 291.2 650 293.066C653.733 294.4 655.333 295.733 655.333 297.466C655.333 300.8 651.6 301.333 646.4 298.8C641.867 296.533 639.067 297.6 640.4 301.2C641.467 303.866 650.8 306.533 655.2 305.466C657.067 305.066 659.6 303.066 660.933 301.2C664.267 296 662 291.2 654.933 288.666C647.733 286 645.6 283.866 647.733 281.733C648.933 280.533 650.4 280.533 654 281.866C656.533 282.8 659.2 283.066 660 282.666C662.4 281.2 661.467 278.4 658 276.933C652.4 274.4 646.933 275.066 643.333 278.666Z" fill="black"/>
<path d="M672.534 277.2C671.334 280.266 673.067 282 677.334 282H681.2L681.6 293.6C681.867 302.933 682.4 305.333 684 305.333C685.6 305.333 686.134 302.933 686.4 293.733L686.8 282.133L691.067 281.733C694.267 281.466 695.334 280.666 695.334 278.666C695.334 276.266 694.267 276 684.267 275.6C675.467 275.333 673.2 275.6 672.534 277.2Z" fill="black"/>
<path d="M708.934 276.267C707.467 277.733 707.867 304.4 709.334 305.333C710.134 305.867 711.601 305.467 712.667 304.667C714.134 303.467 714.667 299.867 714.667 291.333C714.667 284.8 714.267 278.667 713.867 277.467C713.067 275.333 710.401 274.667 708.934 276.267Z" fill="black"/>
<path d="M727.2 277.333C726.134 280 735.867 304.667 738.267 305.6C741.334 306.8 743.734 303.333 748.8 290.533C752.667 280.8 753.467 277.6 752.267 276.4C750 274.133 747.6 277.067 744.134 286.533C742.534 290.933 740.8 295.067 740.4 295.733C740 296.4 737.734 292.4 735.467 286.667C731.2 276.133 728.667 273.333 727.2 277.333Z" fill="black"/>
<path d="M770.933 277.599C765.466 288.133 759.733 303.599 761.066 304.933C762.8 306.666 765.2 305.199 766.666 301.199C767.733 298.399 768.8 297.999 774.266 297.999C780 297.999 780.933 298.399 782.933 301.999C785.333 306.266 787.6 307.066 788.8 304.266C789.066 303.333 786.8 296.533 783.6 289.199C779.2 279.333 776.933 275.866 774.933 275.599C773.333 275.333 771.6 276.133 770.933 277.599ZM777.2 288.133C778.933 292.133 778.133 293.999 774.666 293.999C773.333 293.999 771.866 293.466 771.333 292.799C770.533 291.333 773.2 284.666 774.666 284.666C775.2 284.666 776.266 286.266 777.2 288.133Z" fill="black"/>
<path d="M802.001 276.933C801.601 278 801.467 284.8 801.601 292.133L802.001 305.333L810.401 305.733C819.734 306.133 823.867 304.4 821.201 301.2C820.267 300.133 817.067 299.333 813.201 299.333H806.801L806.401 287.733C806.134 280 805.467 276 804.401 275.6C803.467 275.333 802.401 276 802.001 276.933Z" fill="black"/>
<path d="M333.333 287.999C332.533 289.066 332.133 290.533 332.667 291.333C333.2 292.266 367.867 292.666 441.467 292.666C539.2 292.666 549.467 292.399 550.267 290.533C550.667 289.333 550.267 287.866 549.2 287.199C548.133 286.533 500.267 285.999 441.2 285.999C349.867 285.999 334.8 286.266 333.333 287.999Z" fill="black"/>
<path d="M838.267 286.933C836.533 288.533 837.333 292.399 839.467 293.199C842.8 294.399 1051.07 294.133 1053.07 292.799C1054.13 292.133 1054.67 290.533 1054.4 289.199C1054 286.799 1050.53 286.666 946.533 286.266C887.467 286.133 838.667 286.399 838.267 286.933Z" fill="black"/>
<rect x="395" y="63" width="29" height="125" rx="14.5" fill="#29AAE1"/>
<rect x="802" y="63" width="29" height="125" rx="14.5" fill="#29AAE1"/>
<rect x="514" y="143" width="29" height="93" rx="14.5" transform="rotate(-90 514 143)" fill="#29AAE1"/>
<rect x="921" y="143" width="29" height="93" rx="14.5" transform="rotate(-90 921 143)" fill="#29AAE1"/>
</svg>
