<svg xmlns="http://www.w3.org/2000/svg" width="1067" height="306" fill="none" xmlns:v="https://vecta.io/nano"><path d="M13 16h256v180H13zm0 233h256v37H13z" fill="#9fcd3b"/><path d="M648.134 2.399c-1.866 2.267.267 4.4 5.067 5.2 3.2.4 3.2.8 2.933 10.533-.266 7.6.134 10.533 1.734 11.733 3.6 3.067 4.8.267 4.8-11.2v-11.2l4.4-.4c3.2-.267 4.266-1.067 4.266-3.067 0-2.4-1.066-2.667-10.8-3.067-8-.267-11.2.133-12.4 1.467zm36.533-.133c-.4 1.067-.534 7.867-.4 15.2.266 10.667.8 13.2 2.4 13.2 1.333 0 2.133-1.733 2.4-5.733l.4-5.6H696h6.533l.4 5.6c.267 4 1.067 5.733 2.4 5.733 1.6 0 2-2.533 2-14.667s-.4-14.667-2-14.667c-1.333 0-2.266 1.867-2.666 6l-.667 6h-6-6l-.667-5.867c-.666-5.867-3.333-8.8-4.666-5.2zm38.267 0c-2.4 2.4-2.133 25.6.267 27.6 1.2.933 5.466 1.467 10.933 1.2 7.333-.267 9.2-.8 9.6-2.667s-.8-2.267-7.333-2.667c-7.2-.4-7.734-.667-7.734-3.733 0-2.933.667-3.467 6.4-4 3.467-.4 6.267-1.333 6.267-2 0-.8-2.8-1.6-6.267-2-5.333-.533-6.533-1.2-6.8-3.733-.533-3.067 0-3.333 7.734-3.067 5.733.267 8.666-1.6 7.6-4.4-.667-1.733-2.8-2.133-10-2.133-5.2 0-9.734.667-10.667 1.6zM333.999 13.2c-2.133 1.6-2.266 2.133-.8 4 1.6 2 14.934 2.133 142.8 2.133s141.2-.133 142.8-2.133c1.467-1.867 1.334-2.4-.8-4-3.733-2.8-280.266-2.8-284 0zm435.602-.667c-1.067.667-1.6 2.267-1.334 3.6.4 2.4 4.534 2.533 143.067 2.533S1054 18.533 1054.4 16.133c.27-1.333-.27-2.933-1.33-3.6-2.27-1.467-281.203-1.467-283.469 0zM0 153.333V294h141.333 141.334V153.333 12.667H141.333 0v140.666zM154.667 57.6c0 .933 1.066 1.733 2.4 1.733 2 .133 2.133.133.133 1.333-4.933 2.933-9.333 16.4-6.8 20.533 1.2 2.133 1.6 15.867.4 17.333-1.2 1.6-.933 12.667.533 19.2.667 2.8.4 4.934-.8 6.4-3.733 4.534-5.466 12.267-5.866 26.4-.267 7.867-.8 15.334-1.334 16.4-.4 1.2.134 3.467 1.334 5.2 1.6 2.4 1.733 4.4.666 10.134l-2 12c-.4 2.8-1.333 5.333-2.133 5.733-.8.533-.933-1.067-.4-4.267.4-2.933 0-6.8-.933-9.066S138 176.933 137.733 170c-.666-16.8-1.066-20-2.266-24.267-.667-2.4-.4-4.933 1.066-7.866 1.2-2.4 2.134-5.467 2.134-6.8 0-1.467.666-3.734 1.466-5.2.934-1.867.934-4-.133-7.067-1.2-3.733-2.667-19.6-3.2-34.267 0-2.667-.933-5.733-1.867-6.933-.933-1.067-1.2-2.4-.533-2.8 1.6-.933.8-8.667-1.067-10.8s-10.666-3.867-12.133-2.4c-.667.667-1.333 2.933-1.467 5.067-.133 2.267-1.333 4.8-2.8 5.733-1.733 1.333-2.4 3.6-2.4 8.667.134 3.867 0 9.6-.266 12.933-.267 3.867.666 8.4 2.533 12.8 2.267 5.2 2.533 7.333 1.467 9.333-1.867 3.334-2.4 12.8-.8 14.8.933.934.666 4-.667 8.667-1.467 5.2-2 12.4-1.733 26.8.266 16 0 19.2-1.334 17.333-.933-1.2-1.733-4.133-1.733-6.266 0-2.267-.667-6.267-1.467-8.8-1.466-4.934-2.666-12.267-2.666-16.667 0-1.333-.667-3.333-1.334-4.133-.933-1.2-.8-3.067.8-6.4 1.334-2.8 1.867-5.867 1.334-7.467s-1.067-6.933-1.334-11.867-1.6-11.6-2.8-14.933c-2.4-6.267-2.666-10.667-1.2-22.933.8-6.133.534-8.133-1.2-10.133-1.2-1.333-1.733-2.8-1.2-3.2 2-2.133-4.133-6.133-10.666-7.067l-6.933-.933L88 61.2c2.533-.933 6.533-1.733 8.667-1.867 2.267 0 5.466-.933 7.333-1.867 1.867-1.067 4.133-1.467 5.333-.933 4.4 2.267 11.067 2.8 15.2 1.067 2.267-1.067 7.734-2.933 12.134-4.4 7.866-2.533 8-2.533 13.066 0 2.667 1.467 4.934 3.467 4.934 4.4zm25.866-.8c3.067.667 7.734 8.4 6.667 11.2-.533 1.067-.133 2 .667 2 .933 0 1.066.8.266 2.267-.666 1.333-2.266 4.8-3.466 7.733l-3.467 7.6c-1.6 3.067-1.467 12.667 0 13.6.667.533.667 2.667-.133 5.333-1.2 3.734-1.067 5.334.666 8 2.8 4.134 2.934 10.4.267 15.467-1.467 2.933-1.6 4.667-.667 7.467.8 2 1.067 4.666.534 5.733-.534 1.2-1.067 6.933-1.2 12.8-.134 6.933-.934 12.133-2.4 14.933-1.334 2.4-2.267 6-2.267 8-.133 3.334-.267 3.467-1.467 1.2-.8-1.333-1.2-4.533-.8-7.2.534-2.533.267-5.733-.533-7.2-.933-1.866-.933-3.066.133-4.4.8-1.066 1.334-3.866 1.2-6.266-.266-2.4 0-5.067.4-5.734 2.267-3.6.934-38.266-1.6-41.333-.8-1.067-1.333-4.133-1.2-6.933.267-2.8-.133-5.867-.666-6.8s-.267-2.533.533-3.6c2.133-2.533 2.133-17.467.133-19.867-.8-1.067-4.8-2.267-8.933-2.8-5.867-.667-7.067-1.2-5.867-2.667.8-.933 3.467-2.133 6-2.533 2.534-.533 5.334-1.867 6.267-3.2 2.267-2.933 6.933-5.467 7.733-4.267.4.533 1.867 1.2 3.2 1.467zm-75.2 163.867c0 2 .934 2.666 3.2 2.666 4.134 0 4.534.8 3.734 7.067-.4 3.867-1.467 5.467-4.4 7.067-2.4 1.2-3.867 2.8-3.6 4.266.266 1.334-.4 2.267-1.6 2.267-1.067 0-1.867-.8-1.6-1.733.133-.934-1.467-3.2-3.6-5.067-7.067-6-6.667-15.6.533-14.133 2.667.4 3.333 0 3.333-2.267 0-1.6.8-2.8 2-2.8 1.067 0 2 1.2 2 2.667zm28.4 8c-.133 5.866-.8 10.133-1.6 10.4s-1.466-.4-1.466-1.467c0-1.2-2.4-4-5.334-6.267L120 227.067v7.066c0 9.734-2.933 6.667-3.2-3.333-.133-9.2 1.6-10.267 8.267-4.8l4.933 4.133.4-6.133c.667-10.4 3.467-6.4 3.333 4.667zm-61.466-2C74 229.2 75.6 231.333 76 231.333s2.133-2.133 4-4.666c5.333-7.334 7.333-5.734 7.333 5.866 0 6.8-.533 10.134-1.6 10.4-1.333.534-1.733-1.6-1.733-7.466 0-4.534-.4-8.134-.8-8.134-1.6 0-4.4 4.534-4.533 6.934 0 3.6-3.467 2.933-6.533-1.334l-2.667-3.6-.133 4.934c0 4.4-2.4 8.666-2.8 5.2-.533-4.134-.667-15.6-.267-16.534 1.067-2 3.2-.8 6 3.734zm80.266-3.867c4 1.467 2.134 3.2-3.466 3.333l-5.734.267 5.6.8c3.2.533 6 1.333 6.534 1.867 1.066 1.066-4.934 11.733-7.734 13.466-1.6.934-3.2.8-5.6-.533-4.666-2.4-4.4-4.4.267-3.333 3.2.666 4 .266 5.333-2.667 2.4-5.333 2-6.4-2.133-5.6-2.8.533-4.133.133-5.467-2-1.866-3.067-.933-4.533 3.867-5.467 5.467-.933 6.4-.933 8.533-.133zm24.534 2.267c.533 2.666-1.2 2.933-3.334.8-3.333-3.334-5.733-.267-5.733 7.6 0 6.533-.267 7.333-2 5.866-1.333-1.066-2-4-2-8.133 0-6.667-1.733-8.267-5.067-4.933-2 2-3.733.266-1.866-1.867.933-1.067 4.666-1.733 10.533-1.6 7.333 0 9.2.533 9.467 2.267zm13.733-1.734c3.067 0 3.867.534 3.867 2.934 0 2.666-.134 2.666-2.667.4-1.333-1.2-3.467-2-4.667-1.6-3.2 1.333-2.4 3.6 1.334 3.6 2.266 0 3.066.533 2.533 1.866-.4 1.067-1.733 1.6-3.333 1.2-1.867-.533-2.534 0-2.534 2.134s.8 2.8 3.734 2.8c2 0 4.4-.667 5.333-1.6 1.2-1.2 1.6-.934 1.6 1.333 0 2.933-.533 3.067-7.6 2.667l-7.467-.4-.133-7.734c-.133-7.466.8-9.333 4.267-8.133 1.066.267 3.6.533 5.733.533zm22.4.534c1.2 1.466 1.067 2.266-.533 3.866-2.8 2.934-2.534 3.867 2.266 8.8 3.467 3.467 3.867 4.534 2.267 5.6-1.867 1.2-4-.666-9.6-8.666-3.067-4.4-4.933-3.334-4.933 2.933 0 4.267-.267 4.533-1.867 2.933-2.533-2.533-3.2-14.533-1.067-15.866 2.934-1.867 11.867-1.467 13.467.4zM92.8 253.333c1.6 1.6 1.6 2 .267 2.134-.933.133-.267.666 1.6 1.2 3.2 1.066 3.067 1.066-.933 1.2-3.867.133-4.4-.267-4.4-3.2 0-3.867.8-4.134 3.467-1.334zm19.867.134c2.4 1.733 2.666 1.733 3.6-.4.666-1.867.933-1.467.933 1.466.133 3.734.133 3.734-3.2 1.6-4-2.666-4.267-2.666-5.067.134-.4 1.466-.666.933-.8-1.334-.133-4.133.667-4.4 4.534-1.466zm18.8-.134c1.6 1.6 1.6 2 .266 2.134-.933.133-.266.666 1.6 1.2 3.2 1.066 3.067 1.066-.933 1.2-3.867.133-4.4-.267-4.4-3.2 0-3.867.8-4.134 3.467-1.334zm17.866-.666c0 .666 1.2 1.333 2.8 1.333 1.467 0 2.267-.667 1.867-1.333-.4-.8-.133-1.334.533-1.334.8 0 1.334 1.467 1.2 3.334-.4 3.733-1.066 4.133-3.6 1.6-1.466-1.334-1.866-1.334-2.4 0-1.066 2.933-3.066 1.866-3.066-1.6 0-1.867.666-3.334 1.333-3.334.8 0 1.333.534 1.333 1.334zM168.4 254c-.533 2.267 0 2.667 3.067 2.667s3.466-.267 1.866-1.334c-1.733-1.066-1.6-1.333.4-1.333 1.2 0 2.267.933 2.267 2 0 1.333-1.467 2-4.667 2-4.133 0-4.666-.4-4.666-3.333 0-1.867.533-3.334 1.2-3.334s.933 1.2.533 2.667zm20.267-1.333c.666 1.066 1.466.933 2.8-.134 1.066-.8 2.266-1.2 2.8-.666.4.4.133.8-.8.8-.8 0-2.134 1.333-2.8 2.933-.667 1.733-1.2 2.267-1.2 1.2-.134-1.067-1.2-2.667-2.4-3.6-1.334-.933-1.734-1.867-.8-1.867.8 0 2 .667 2.4 1.334zm-91.333-24.8c0 2.933 1.467 6.133 2.8 6.133.667 0 1.2-1.867 1.2-4 0-2.667-.667-4-2-4-1.067 0-2 .8-2 1.867zm6.666 3.599c0 4.8.267 5.334 2 3.867 1.067-.933 2-3.333 2-5.467 0-2.533-.667-3.866-2-3.866-1.467 0-2 1.466-2 5.466zm99.334-5.333c-.533.8-.667 1.6-.4 1.866.933.934 6.4-.933 6.4-2.133 0-1.733-4.933-1.467-6 .267zM340.4 66c-7.067 4.267-7.333 7.067-6.8 66l.4 53.333L337.733 196c7.067 20.133 19.334 34.667 37.067 44 35.6 18.667 77.467 6.4 98.933-28.933 10.534-17.467 11.867-28.267 11.334-89.734-.4-51.866-.4-51.466-7.867-55.866-4.533-2.667-9.467-2.667-14.533-.133-7.867 4.133-8 4.933-8 61.2 0 46.534-.267 52-2.534 59.334-10.8 34.533-54.666 44-76.933 16.533-10.933-13.467-11.2-14.8-11.2-72.8 0-31.6-.533-52.8-1.467-56C360 64.4 349.067 60.667 340.4 66zm178.933-1.467c-3.6 1.467-6.8 5.333-8.667 10-1.866 4.933.134 11.2 4.8 15.6l3.467 3.2 40.8.667c46.533.8 46.533.8 57.333 12.4 7.867 8.667 9.867 14.267 9.334 25.733-.534 11.334-5.067 19.867-14.134 26.8-10 7.6-15.2 8.4-55.2 8.4-39.066 0-41.333.4-45.066 7.467-1.6 2.8-2 9.733-2 32.667v29.066l3.866 4c4.667 4.8 11.2 6.4 16.934 4.134 7.333-3.067 8.4-6.534 9.2-27.867l.666-19.467 32.667-.666L606 196l11.733-5.6c36.667-17.6 49.867-59.867 29.733-94.267-8.666-14.667-29.466-28.4-47.6-31.333-10-1.733-76.666-1.867-80.533-.267zM749.734 66c-7.067 4.267-7.333 7.067-6.8 66l.4 53.333L747.067 196c7.2 20.133 19.334 34.666 37.067 44 37.867 19.866 83.467 4.4 101.867-34.667 7.733-16.667 8-18.933 8-76.667 0-57.2-.134-58.933-7.2-63.066-4.8-2.8-9.734-2.933-14.8-.267-7.867 4.133-8 4.8-8 61.733 0 48.4-.134 52.4-2.667 59.6-5.867 16.934-18.4 28.134-34.933 31.2-20 3.6-39.867-7.066-48.8-26.266l-3.6-7.6-.667-55.334c-.667-59.6-.667-59.6-8-63.333-5.2-2.667-10.533-2.533-15.6.667zm177.198 0c-8.8 5.467-9.866 16.933-2.133 24.133l3.467 3.2 40.8.667c46.804.8 46.664.667 57.864 13.2 14 15.6 11.6 38.8-5.33 51.733-10 7.6-15.2 8.4-55.468 8.4-49.6 0-47.466-1.733-47.466 38.8 0 12.934.4 25.334.8 27.734 1.733 8.8 12.266 14.266 20.666 10.8 7.334-3.067 8.4-6.534 9.2-28l.667-19.334 32.667-.666c29.864-.667 33.334-1.067 39.864-3.734 37.74-15.733 54-55.333 37.2-90.666-4.8-10.267-17.2-23.867-26.26-28.667-16.67-9.067-18.4-9.333-62.138-9.867-38.533-.533-40.133-.4-44.4 2.267zM688.001 99.067c-2.534 1.466-5.734 4.8-7.2 7.6-2.267 4.4-2.4 5.733-.934 11.066 1.467 5.6 1.334 6.267-1.466 9.2-2.534 2.667-3.067 4.8-3.067 11.067 0 8.8 2.4 13.2 10 18.267 5.2 3.6 16.667 4.133 22.667 1.066 3.466-1.733 4.266-1.733 7.866.267 3.734 2.267 4 2.267 6.667-.133 3.6-3.334 3.467-5.067-.4-9.734-2.267-2.666-2.933-4.533-2-5.866 1.733-2.667 1.467-9.734-.4-11.6-2.533-2.534-7.2-1.867-9.467 1.333l-2.133 3.067-6.8-7.334c-10.133-10.933-11.067-12.666-9.333-15.866.933-1.867 2.8-2.8 5.466-2.8 3.067 0 4.534.933 6.667 4.666 3.467 5.734 8.4 6.4 10.8 1.467 3.333-7.333-7.2-18.133-17.6-18.133-2.533 0-6.8 1.067-9.333 2.4zm9.066 40.266c6.267 7.2 6.267 9.334.134 9.334-7.067 0-12.267-7.467-9.734-13.867 1.334-3.467 3.6-2.4 9.6 4.533zM573.866 277.066c-.267.934-.4 7.734-.267 15.067.267 10.667.8 13.2 2.4 13.2 1.334 0 2.134-1.733 2.4-5.6l.4-5.6 6.934-.4c5.333-.267 7.066-.933 7.333-2.8.4-1.867-.667-2.267-6.933-2.267-7.067 0-7.467-.133-7.467-3.333 0-2.933.533-3.2 7.733-3.6 6.534-.4 7.6-.8 7.6-3.067 0-2.4-1.066-2.666-9.733-3.066-7.2-.267-9.867.133-10.4 1.466zm34.534-.8c-1.2.4-1.733 4.667-1.733 14.4 0 15.6-.267 15.334 11.333 15.334 8.267 0 11.333-.934 11.333-3.334 0-2.266-3.066-3.333-10.133-3.333-5.333 0-5.867-.267-5.867-3.333s.4-3.334 6.8-3.334c5.734 0 6.667-.4 6.267-2.4-.267-1.733-2-2.4-6.8-2.666-5.733-.4-6.267-.667-6.267-3.734 0-3.2.4-3.333 6.4-3.066 7.2.4 9.867-.667 8.667-3.467-.533-1.467-2.933-2-9.6-1.867-4.8 0-9.6.4-10.4.8zm34.933 2.4C641.467 280.4 640 282.8 640 283.733c0 3.333 4.4 7.467 10 9.333 3.733 1.334 5.333 2.667 5.333 4.4 0 3.334-3.733 3.867-8.933 1.334-4.533-2.267-7.333-1.2-6 2.4 1.067 2.666 10.4 5.333 14.8 4.266 1.867-.4 4.4-2.4 5.733-4.266 3.334-5.2 1.067-10-6-12.534-7.2-2.666-9.333-4.8-7.2-6.933 1.2-1.2 2.667-1.2 6.267.133 2.533.934 5.2 1.2 6 .8 2.4-1.466 1.467-4.266-2-5.733-5.6-2.533-11.067-1.867-14.667 1.733zm29.201-1.466c-1.2 3.066.533 4.8 4.8 4.8h3.866l.4 11.6c.267 9.333.8 11.733 2.4 11.733s2.134-2.4 2.4-11.6l.4-11.6 4.267-.4c3.2-.267 4.267-1.067 4.267-3.067 0-2.4-1.067-2.666-11.067-3.066-8.8-.267-11.067 0-11.733 1.6zm36.4-.933c-1.467 1.466-1.067 28.133.4 29.066.8.534 2.267.134 3.333-.666 1.467-1.2 2-4.8 2-13.334 0-6.533-.4-12.666-.8-13.866-.8-2.134-3.466-2.8-4.933-1.2zm18.266 1.066c-1.066 2.667 8.667 27.334 11.067 28.267 3.067 1.2 5.467-2.267 10.533-15.067 3.867-9.733 4.667-12.933 3.467-14.133-2.267-2.267-4.667.667-8.133 10.133-1.6 4.4-3.334 8.534-3.734 9.2s-2.666-3.333-4.933-9.066c-4.267-10.534-6.8-13.334-8.267-9.334zm43.733.266c-5.467 10.534-11.2 26-9.867 27.334 1.734 1.733 4.134.266 5.6-3.734 1.067-2.8 2.134-3.2 7.6-3.2 5.734 0 6.667.4 8.667 4 2.4 4.267 4.667 5.067 5.867 2.267.266-.933-2-7.733-5.2-15.067-4.4-9.866-6.667-13.333-8.667-13.6-1.6-.266-3.333.534-4 2zm6.267 10.534c1.733 4 .933 5.866-2.534 5.866-1.333 0-2.8-.533-3.333-1.2-.8-1.466 1.867-8.133 3.333-8.133.534 0 1.6 1.6 2.534 3.467zm24.801-11.2c-.4 1.067-.534 7.867-.4 15.2l.4 13.2 8.4.4c9.333.4 13.466-1.333 10.8-4.533-.934-1.067-4.134-1.867-8-1.867h-6.4l-.4-11.6c-.267-7.733-.934-11.733-2-12.133-.934-.267-2 .4-2.4 1.333zm-468.668 11.066c-.8 1.067-1.2 2.534-.666 3.334.533.933 35.2 1.333 108.8 1.333 97.733 0 108-.267 108.8-2.133.4-1.2 0-2.667-1.067-3.334s-48.933-1.2-108-1.2c-91.333 0-106.4.267-107.867 2zm504.934-1.066c-1.734 1.6-.934 5.466 1.2 6.266 3.333 1.2 211.603.934 213.603-.4 1.06-.666 1.6-2.266 1.33-3.6-.4-2.4-3.87-2.533-107.867-2.933-59.066-.133-107.866.133-108.266.667z" fill="#000"/><g fill="#29aae1"><rect x="395" y="63" width="29" height="125" rx="14.5"/><rect x="802" y="63" width="29" height="125" rx="14.5"/><rect x="514" y="143" width="29" height="93" rx="14.5" transform="rotate(270 514 143)"/><rect x="921" y="143" width="29" height="93" rx="14.5" transform="rotate(270 921 143)"/></g></svg>