<svg width="128" height="128" viewBox="0 0 128 128" fill="none" xmlns="http://www.w3.org/2000/svg">
<mask id="mask0_514_67" style="mask-type:luminance" maskUnits="userSpaceOnUse" x="0" y="0" width="128" height="128">
<path d="M63.7352 0H63.7348C28.5351 0 0 28.5351 0 63.7348V63.7352C0 98.935 28.5351 127.47 63.7348 127.47H63.7352C98.935 127.47 127.47 98.935 127.47 63.7352V63.7348C127.47 28.5351 98.935 0 63.7352 0Z" fill="white"/>
</mask>
<g mask="url(#mask0_514_67)">
<path d="M63.7352 0H63.7348C28.5351 0 0 28.5351 0 63.7348V63.7352C0 98.935 28.5351 127.47 63.7348 127.47H63.7352C98.935 127.47 127.47 98.935 127.47 63.7352V63.7348C127.47 28.5351 98.935 0 63.7352 0Z" fill="#212121"/>
<path d="M63.7352 0H63.7348C28.5351 0 0 28.5351 0 63.7348V63.7352C0 98.935 28.5351 127.47 63.7348 127.47H63.7352C98.935 127.47 127.47 98.935 127.47 63.7352V63.7348C127.47 28.5351 98.935 0 63.7352 0Z" fill="url(#paint0_linear_514_67)"/>
<path d="M127.47 63.7341C127.47 98.9338 98.9349 127.469 63.7348 127.469C28.535 127.469 0 98.9338 0 63.7341C22.1998 18.618 53.7091 92.3785 83.7862 90.9475C118.946 89.2735 127.47 28.5343 127.47 63.7341Z" fill="white" fill-opacity="0.46"/>
</g>
<path d="M93.7934 36.7921H92.8474L92.8447 34.8081C92.8447 33.2608 91.5952 32 90.0584 32H37.939C36.4022 32 35.1553 33.2608 35.1553 34.8081V36.7921H34.2066C31.8865 36.7921 30 38.6916 30 41.0276V81.7884C30 84.1245 31.8865 86.0212 34.2066 86.0212H57.1803V88.8266C57.1803 91.3618 55.817 93.7252 53.6215 94.9996C53.2041 95.2425 53.0008 95.7365 53.1255 96.2059C53.2502 96.6753 53.6703 97 54.1528 97H73.8472C74.3296 97 74.7498 96.6753 74.8745 96.2059C74.9991 95.7365 74.7958 95.2425 74.3784 94.9996C72.1802 93.7252 70.8142 91.3591 70.8142 88.8266V86.0212H93.7906C96.1108 86.0212 97.9973 84.1245 97.9973 81.7884L98 41.0276C98 38.6915 96.1135 36.7921 93.7934 36.7921ZM35.155 77.9841H32.1247V41.0279C32.1247 39.8736 33.0598 38.9347 34.2063 38.9347H35.1523L35.155 77.9841ZM53.5539 36.1151H54.0662C54.6544 36.1151 55.1287 36.5927 55.1287 37.1849C55.1287 37.7771 54.6543 38.2546 54.0662 38.2546H53.5539C52.9657 38.2546 52.4914 37.7771 52.4914 37.1849C52.4887 36.5927 52.9658 36.1151 53.5539 36.1151ZM48.2902 36.1151H48.8025C49.3907 36.1151 49.8649 36.5927 49.8649 37.1849C49.8649 37.7771 49.3906 38.2546 48.8025 38.2546H48.2902C47.702 38.2546 47.2277 37.7771 47.2277 37.1849C47.225 36.5927 47.7021 36.1151 48.2902 36.1151ZM43.0265 36.1151H43.5388C44.1269 36.1151 44.6012 36.5927 44.6012 37.1849C44.6012 37.7771 44.1269 38.2546 43.5388 38.2546H43.0265C42.4383 38.2546 41.964 37.7771 41.964 37.1849C41.964 36.5927 42.4411 36.1151 43.0265 36.1151ZM90.7197 77.9841H37.2798V42.3567C37.3286 42.3649 37.3774 42.3676 37.4289 42.3676H90.7195L90.7197 77.9841ZM95.875 77.9841H92.8474L92.8447 38.9341H93.7906C94.9371 38.9341 95.8723 39.8729 95.8723 41.0273L95.875 77.9841ZM39.2696 52.5874V46.6136C39.2696 45.5957 40.0936 44.7688 41.1046 44.7688H86.8951C87.9061 44.7688 88.7274 45.5957 88.7274 46.6136V52.5874C88.7274 53.6054 87.9061 54.4322 86.8951 54.4322H41.1046C40.0909 54.4322 39.2696 53.6054 39.2696 52.5874ZM39.2696 65.744V58.632C39.2696 57.5322 40.1586 56.6398 41.251 56.6398L50.5941 56.6371C51.6837 56.6371 52.5728 57.5294 52.5728 58.6293V65.7441C52.5728 66.8439 51.6865 67.7418 50.5941 67.7418H41.251C40.156 67.7418 39.2696 66.8438 39.2696 65.744ZM75.4242 65.744V58.632C75.4242 57.5322 76.3132 56.6398 77.4056 56.6398H86.7515C87.8411 56.6398 88.7302 57.5321 88.7302 58.632V65.7468C88.7302 66.8466 87.8439 67.7445 86.7515 67.7445L77.4056 67.7418C76.3133 67.7418 75.4242 66.8438 75.4242 65.744ZM57.3452 65.744V58.632C57.3452 57.5322 58.2342 56.6398 59.3266 56.6398H68.6724C69.762 56.6398 70.6511 57.5321 70.6511 58.632V65.7468C70.6511 66.8466 69.7648 67.7445 68.6724 67.7445L59.3266 67.7418C58.2343 67.7418 57.3452 66.8438 57.3452 65.744ZM39.2662 70.7136C39.2662 70.1214 39.7432 69.6439 40.3286 69.6439H51.5063C52.0945 69.6439 52.5688 70.1242 52.5688 70.7136C52.5688 71.3058 52.0918 71.7834 51.5063 71.7834L40.3314 71.7861C39.7432 71.7861 39.2662 71.3058 39.2662 70.7136ZM39.2662 74.4333C39.2662 73.8411 39.7432 73.3635 40.3286 73.3635H44.2697C44.8578 73.3635 45.3321 73.8438 45.3321 74.4333C45.3321 75.0255 44.8551 75.503 44.2697 75.503H40.3286C39.7432 75.503 39.2662 75.0227 39.2662 74.4333ZM70.6504 70.7136C70.6504 71.3058 70.1733 71.7834 69.5879 71.7834L58.4074 71.7861C57.8192 71.7861 57.3449 71.3058 57.3449 70.7163C57.3449 70.1241 57.822 69.6466 58.4074 69.6466H69.5851C70.1733 69.6439 70.6504 70.1242 70.6504 70.7136ZM63.4132 74.4333C63.4132 75.0255 62.9361 75.503 62.3507 75.503H58.4097C57.8215 75.503 57.3472 75.0227 57.3472 74.4333C57.3472 73.8411 57.8243 73.3635 58.4097 73.3635H62.3507C62.9362 73.3608 63.4132 73.8411 63.4132 74.4333ZM88.7259 70.7136C88.7259 71.3058 88.2489 71.7834 87.6635 71.7834L76.4857 71.7861C75.8976 71.7861 75.4233 71.3058 75.4233 70.7163C75.4233 70.1241 75.9003 69.6466 76.4857 69.6466H87.6635C88.2489 69.6439 88.7259 70.1242 88.7259 70.7136ZM81.4915 74.4333C81.4915 75.0255 81.0145 75.503 80.4291 75.503H76.488C75.8999 75.503 75.4256 75.0227 75.4256 74.4333C75.4256 73.8411 75.9026 73.3635 76.488 73.3635H80.4291C81.0145 73.3608 81.4915 73.8411 81.4915 74.4333Z" fill="black"/>
<path d="M93.7934 36.7921H92.8474L92.8447 34.8081C92.8447 33.2608 91.5952 32 90.0584 32H37.939C36.4022 32 35.1553 33.2608 35.1553 34.8081V36.7921H34.2066C31.8865 36.7921 30 38.6916 30 41.0276V81.7884C30 84.1245 31.8865 86.0212 34.2066 86.0212H57.1803V88.8266C57.1803 91.3618 55.817 93.7252 53.6215 94.9996C53.2041 95.2425 53.0008 95.7365 53.1255 96.2059C53.2502 96.6753 53.6703 97 54.1528 97H73.8472C74.3296 97 74.7498 96.6753 74.8745 96.2059C74.9991 95.7365 74.7958 95.2425 74.3784 94.9996C72.1802 93.7252 70.8142 91.3591 70.8142 88.8266V86.0212H93.7906C96.1108 86.0212 97.9973 84.1245 97.9973 81.7884L98 41.0276C98 38.6915 96.1135 36.7921 93.7934 36.7921ZM35.155 77.9841H32.1247V41.0279C32.1247 39.8736 33.0598 38.9347 34.2063 38.9347H35.1523L35.155 77.9841ZM53.5539 36.1151H54.0662C54.6544 36.1151 55.1287 36.5927 55.1287 37.1849C55.1287 37.7771 54.6543 38.2546 54.0662 38.2546H53.5539C52.9657 38.2546 52.4914 37.7771 52.4914 37.1849C52.4887 36.5927 52.9658 36.1151 53.5539 36.1151ZM48.2902 36.1151H48.8025C49.3907 36.1151 49.8649 36.5927 49.8649 37.1849C49.8649 37.7771 49.3906 38.2546 48.8025 38.2546H48.2902C47.702 38.2546 47.2277 37.7771 47.2277 37.1849C47.225 36.5927 47.7021 36.1151 48.2902 36.1151ZM43.0265 36.1151H43.5388C44.1269 36.1151 44.6012 36.5927 44.6012 37.1849C44.6012 37.7771 44.1269 38.2546 43.5388 38.2546H43.0265C42.4383 38.2546 41.964 37.7771 41.964 37.1849C41.964 36.5927 42.4411 36.1151 43.0265 36.1151ZM90.7197 77.9841H37.2798V42.3567C37.3286 42.3649 37.3774 42.3676 37.4289 42.3676H90.7195L90.7197 77.9841ZM95.875 77.9841H92.8474L92.8447 38.9341H93.7906C94.9371 38.9341 95.8723 39.8729 95.8723 41.0273L95.875 77.9841ZM39.2696 52.5874V46.6136C39.2696 45.5957 40.0936 44.7688 41.1046 44.7688H86.8951C87.9061 44.7688 88.7274 45.5957 88.7274 46.6136V52.5874C88.7274 53.6054 87.9061 54.4322 86.8951 54.4322H41.1046C40.0909 54.4322 39.2696 53.6054 39.2696 52.5874ZM39.2696 65.744V58.632C39.2696 57.5322 40.1586 56.6398 41.251 56.6398L50.5941 56.6371C51.6837 56.6371 52.5728 57.5294 52.5728 58.6293V65.7441C52.5728 66.8439 51.6865 67.7418 50.5941 67.7418H41.251C40.156 67.7418 39.2696 66.8438 39.2696 65.744ZM75.4242 65.744V58.632C75.4242 57.5322 76.3132 56.6398 77.4056 56.6398H86.7515C87.8411 56.6398 88.7302 57.5321 88.7302 58.632V65.7468C88.7302 66.8466 87.8439 67.7445 86.7515 67.7445L77.4056 67.7418C76.3133 67.7418 75.4242 66.8438 75.4242 65.744ZM57.3452 65.744V58.632C57.3452 57.5322 58.2342 56.6398 59.3266 56.6398H68.6724C69.762 56.6398 70.6511 57.5321 70.6511 58.632V65.7468C70.6511 66.8466 69.7648 67.7445 68.6724 67.7445L59.3266 67.7418C58.2343 67.7418 57.3452 66.8438 57.3452 65.744ZM39.2662 70.7136C39.2662 70.1214 39.7432 69.6439 40.3286 69.6439H51.5063C52.0945 69.6439 52.5688 70.1242 52.5688 70.7136C52.5688 71.3058 52.0918 71.7834 51.5063 71.7834L40.3314 71.7861C39.7432 71.7861 39.2662 71.3058 39.2662 70.7136ZM39.2662 74.4333C39.2662 73.8411 39.7432 73.3635 40.3286 73.3635H44.2697C44.8578 73.3635 45.3321 73.8438 45.3321 74.4333C45.3321 75.0255 44.8551 75.503 44.2697 75.503H40.3286C39.7432 75.503 39.2662 75.0227 39.2662 74.4333ZM70.6504 70.7136C70.6504 71.3058 70.1733 71.7834 69.5879 71.7834L58.4074 71.7861C57.8192 71.7861 57.3449 71.3058 57.3449 70.7163C57.3449 70.1241 57.822 69.6466 58.4074 69.6466H69.5851C70.1733 69.6439 70.6504 70.1242 70.6504 70.7136ZM63.4132 74.4333C63.4132 75.0255 62.9361 75.503 62.3507 75.503H58.4097C57.8215 75.503 57.3472 75.0227 57.3472 74.4333C57.3472 73.8411 57.8243 73.3635 58.4097 73.3635H62.3507C62.9362 73.3608 63.4132 73.8411 63.4132 74.4333ZM88.7259 70.7136C88.7259 71.3058 88.2489 71.7834 87.6635 71.7834L76.4857 71.7861C75.8976 71.7861 75.4233 71.3058 75.4233 70.7163C75.4233 70.1241 75.9003 69.6466 76.4857 69.6466H87.6635C88.2489 69.6439 88.7259 70.1242 88.7259 70.7136ZM81.4915 74.4333C81.4915 75.0255 81.0145 75.503 80.4291 75.503H76.488C75.8999 75.503 75.4256 75.0227 75.4256 74.4333C75.4256 73.8411 75.9026 73.3635 76.488 73.3635H80.4291C81.0145 73.3608 81.4915 73.8411 81.4915 74.4333Z" fill="black"/>
<defs>
<linearGradient id="paint0_linear_514_67" x1="98.3979" y1="-52.5813" x2="79.7934" y2="142.418" gradientUnits="userSpaceOnUse">
<stop stop-color="#5CFBD8"/>
<stop offset="0.49" stop-color="#2ED8EB"/>
<stop offset="1" stop-color="#00B6FF"/>
</linearGradient>
</defs>
</svg>
