<svg width="151" height="150" viewBox="0 0 151 150" fill="none" xmlns="http://www.w3.org/2000/svg">
<g clip-path="url(#clip0_414_676)">
<rect x="0.739258" width="149.555" height="149.555" rx="74.7773" fill="#212121"/>
<path opacity="0.06" d="M150.294 74.7767C150.294 116.075 116.815 149.554 75.5165 149.554C34.2182 149.554 0.739258 116.075 0.739258 74.7767C26.7853 21.844 63.7538 108.384 99.042 106.705C140.294 104.741 150.294 33.4783 150.294 74.7767Z" fill="white"/>
<path d="M95.8751 43.04H106.717L83.0301 69.5186L110.896 105.55H89.0773L71.9878 83.6972L52.4336 105.55H41.5847L66.9206 77.2282L40.1885 43.04H62.5614L78.0088 63.0144L95.8751 43.04ZM92.0698 99.2028H98.0777L59.2969 49.0538H52.8498L92.0698 99.2028Z" fill="black"/>
<path d="M95.8751 43.04H106.717L83.0301 69.5186L110.896 105.55H89.0773L71.9878 83.6972L52.4336 105.55H41.5847L66.9206 77.2282L40.1885 43.04H62.5614L78.0088 63.0144L95.8751 43.04ZM92.0698 99.2028H98.0777L59.2969 49.0538H52.8498L92.0698 99.2028Z" fill="url(#paint0_linear_414_676)"/>
</g>
<defs>
<linearGradient id="paint0_linear_414_676" x1="94.7701" y1="17.2547" x2="86.6886" y2="113.069" gradientUnits="userSpaceOnUse">
<stop stop-color="#5CFBD8"/>
<stop offset="0.49" stop-color="#2ED8EB"/>
<stop offset="1" stop-color="#00B6FF"/>
</linearGradient>
<clipPath id="clip0_414_676">
<rect x="0.739258" width="149.555" height="149.555" rx="74.7773" fill="white"/>
</clipPath>
</defs>
</svg>
