<svg width="150" height="150" viewBox="0 0 150 150" fill="none" xmlns="http://www.w3.org/2000/svg">
<g clip-path="url(#clip0_173_255)">
<rect width="149.555" height="149.555" rx="74.7773" fill="#212121"/>
<rect width="149.555" height="149.555" rx="74.7773" fill="url(#paint0_linear_173_255)"/>
<path d="M149.555 74.7767C149.555 116.075 116.076 149.554 74.7773 149.554C33.4789 149.554 0 116.075 0 74.7767C26.046 21.844 63.0146 108.384 98.3027 106.705C139.554 104.741 149.555 33.4783 149.555 74.7767Z" fill="white" fill-opacity="0.46"/>
<path d="M95.6866 44H106.529L82.8417 70.4786L110.708 106.51H88.8889L71.7994 84.6571L52.2451 106.51H41.3963L66.7322 78.1881L40 44H62.3729L77.8203 63.9743L95.6866 44ZM91.8813 100.163H97.8892L59.1084 50.0138H52.6613L91.8813 100.163Z" fill="#212121"/>
</g>
<defs>
<linearGradient id="paint0_linear_173_255" x1="115.446" y1="-61.6913" x2="93.6181" y2="167.093" gradientUnits="userSpaceOnUse">
<stop stop-color="#5CFBD8"/>
<stop offset="0.49" stop-color="#2ED8EB"/>
<stop offset="1" stop-color="#00B6FF"/>
</linearGradient>
<clipPath id="clip0_173_255">
<rect width="149.555" height="149.555" rx="74.7773" fill="white"/>
</clipPath>
</defs>
</svg>
